<svg width="500" height="451" viewBox="0 0 500 451" fill="none" xmlns="http://www.w3.org/2000/svg">
<g clip-path="url(#clip0_1305_2)">
<mask id="mask0_1305_2" style="mask-type:luminance" maskUnits="userSpaceOnUse" x="0" y="0" width="500" height="451">
<path d="M500 0H0V451H500V0Z" fill="white"/>
</mask>
<g mask="url(#mask0_1305_2)">
<path d="M500 0H0V451H500V0Z" fill="white"/>
<path d="M254.059 400.433C376.254 400.433 475.314 394.78 475.314 387.806C475.314 380.832 376.254 375.179 254.059 375.179C131.863 375.179 32.8037 380.832 32.8037 387.806C32.8037 394.78 131.863 400.433 254.059 400.433Z" fill="#E3E5E8"/>
<path d="M407.98 309.252L409.972 309.845L411.029 310.159L414.023 311.049C414.023 311.049 458.611 278.516 447.185 259.135C443.668 253.169 433.035 253.539 427.07 273.485C421.541 291.975 407.98 309.252 407.98 309.252Z" fill="#D4D5D6"/>
<path d="M409.973 309.844L411.03 310.158C419.987 301.652 426.9 291.599 431.258 284.377C436.433 275.8 439.229 269.247 439.255 269.182C439.355 268.949 439.225 268.686 438.965 268.598C438.706 268.508 438.415 268.625 438.316 268.858C438.288 268.924 435.513 275.431 430.366 283.957C425.986 291.214 419.011 301.348 409.973 309.844Z" fill="#C6C6C6"/>
<path d="M117.122 141.398L114.67 141.439L113.369 141.461L109.685 141.522C109.685 141.522 72.3443 91.2962 92.5253 73.2111C98.7383 67.6431 110.472 71.3692 109.495 95.504C108.592 117.877 117.122 141.398 117.122 141.398Z" fill="#D4D5D6"/>
<path d="M114.671 141.439L113.37 141.46C106.623 129.17 102.752 115.788 100.65 106.363C98.1535 95.1723 97.5405 86.9832 97.5355 86.902C97.5135 86.6097 97.7596 86.3572 98.0836 86.3391C98.4076 86.3193 98.6876 86.5412 98.7096 86.8325C98.7156 86.9146 99.3235 95.0469 101.808 106.172C103.921 115.642 107.831 129.133 114.671 141.439Z" fill="#C6C6C6"/>
<path d="M129.046 149.227L126.093 151.005L124.526 151.948L120.088 154.618C120.088 154.618 31.0822 119.693 40.0272 83.43C42.7802 72.266 60.3112 68.5434 80.0162 98.653C98.2832 126.564 129.046 149.227 129.046 149.227Z" fill="#E3E5E8"/>
<path d="M126.093 151.004L124.526 151.947C105.66 141.717 89.355 128.131 78.633 118.122C65.901 106.238 58.064 96.686 57.988 96.5912C57.708 96.2503 57.789 95.7695 58.168 95.5197C58.546 95.2671 59.079 95.3402 59.357 95.6802C59.435 95.7767 67.217 105.261 79.877 117.074C90.654 127.129 107.1 140.821 126.093 151.004Z" fill="#D4D5D6"/>
<path d="M397.637 315.51L399.831 317.405L400.995 318.409L404.293 321.253C404.293 321.253 485.03 303.78 483.477 272.033C482.999 262.26 468.847 256.77 447.28 279.489C427.289 300.548 397.637 315.51 397.637 315.51Z" fill="#E3E5E8"/>
<path d="M399.831 317.403L400.995 318.407C418.575 312.322 434.551 303.066 445.233 296.075C457.918 287.773 466.096 280.779 466.176 280.708C466.468 280.458 466.479 280.043 466.201 279.781C465.924 279.518 465.463 279.507 465.173 279.757C465.091 279.827 456.971 286.772 444.358 295.024C433.622 302.05 417.509 311.374 399.831 317.403Z" fill="#D4D5D6"/>
<path d="M467.875 137.004C464.376 145.975 454.31 145.243 454.121 152.644C453.932 160.043 448.477 165.427 441.474 163.758C434.469 162.087 429.418 160.506 425.787 167.715C422.158 174.924 411.662 178.141 407.904 172.155C406.967 170.666 405.956 169.052 404.968 167.469C404.698 167.036 404.428 166.605 404.164 166.181C404.102 166.082 404.04 165.985 403.98 165.887C400.003 159.517 401.875 151.391 408.482 147.158C411.157 145.444 414.294 144.554 417.736 145.637C428.516 149.024 425.116 138.925 431.863 135.016C439.633 130.513 445.773 136.274 451.141 132.381C458.609 126.968 471.374 128.032 467.875 137.004Z" fill="#D4D5D6"/>
<path d="M454.61 140.36L404.969 167.469C404.699 167.036 404.429 166.605 404.165 166.181L453.76 139.096C454.147 138.885 454.651 138.996 454.885 139.345C455.12 139.694 454.996 140.149 454.61 140.36Z" fill="#C6C6C6"/>
<path d="M460.754 86.6906C462.15 98.3936 450.474 102.419 454.639 110.776C458.803 119.131 455.892 127.768 447.084 129.273C438.273 130.776 431.696 131.44 431.902 141.238C432.111 151.035 422.29 159.678 414.554 154.8C412.627 153.588 410.544 152.27 408.504 150.978C407.947 150.624 407.391 150.272 406.844 149.926C406.717 149.846 406.589 149.766 406.464 149.686C398.255 144.484 395.542 134.509 400.42 126.601C402.395 123.401 405.371 120.897 409.856 120.45C423.9 119.048 414.131 109.403 419.355 101.792C425.371 93.024 435.635 96.5057 439.329 89.5752C444.47 79.9382 459.358 74.9872 460.754 86.6906Z" fill="#E3E5E8"/>
<path d="M447.921 96.8205L408.503 150.978C407.946 150.625 407.39 150.273 406.843 149.927L446.225 95.8174C446.532 95.3953 447.161 95.2771 447.629 95.554C448.097 95.8319 448.229 96.3983 447.921 96.8205Z" fill="#D4D5D6"/>
<path d="M47.721 318.948C56.971 321.792 62.151 314.761 68.236 318.88C74.319 322.997 81.793 322.5 84.46 316.943C87.127 311.384 88.746 307.158 96.648 308.906C104.55 310.655 113.165 305.604 110.487 299.704C109.822 298.235 109.097 296.646 108.385 295.089C108.19 294.664 107.997 294.239 107.806 293.822C107.762 293.725 107.719 293.628 107.674 293.533C104.811 287.267 97.177 283.84 89.97 285.753C87.053 286.528 84.535 288.077 83.436 290.96C79.991 299.985 73.785 291.961 66.761 294.152C58.669 296.674 59.801 304.01 53.58 305.306C44.929 307.107 38.471 316.104 47.721 318.948Z" fill="#D4D5D6"/>
<path d="M58.0356 312.157L108.385 295.088C108.19 294.663 107.997 294.238 107.806 293.821L57.5016 310.875C57.1096 311.008 56.9096 311.403 57.0576 311.758C57.2056 312.111 57.6436 312.291 58.0356 312.157Z" fill="#C6C6C6"/>
<path d="M23.8002 285.563C32.4502 293.19 42.3942 287.828 46.7542 295.356C51.1142 302.882 59.7562 305.922 66.0212 300.998C72.2872 296.072 76.5932 292.131 84.3872 297.884C92.1792 303.638 104.788 302.14 105.285 294.262C105.411 292.301 105.542 290.176 105.667 288.094C105.701 287.526 105.736 286.96 105.769 286.402C105.778 286.273 105.786 286.143 105.793 286.014C106.299 277.639 99.7992 270.139 90.6182 268.81C86.9022 268.272 83.1732 268.791 80.2412 271.481C71.0572 279.903 68.8702 267.956 59.7292 267.026C49.2002 265.95 46.1262 274.691 38.4122 273.145C27.6832 270.995 15.1502 277.936 23.8002 285.563Z" fill="#E3E5E8"/>
<path d="M39.3371 282.942L105.667 288.096C105.701 287.528 105.736 286.96 105.769 286.403L39.4991 281.253C38.9821 281.213 38.5261 281.558 38.4821 282.024C38.4371 282.491 38.8201 282.902 39.3371 282.942Z" fill="#D4D5D6"/>
<path d="M362.936 142.478C369.506 126.093 376.218 112.471 382.922 101.926C391.681 88.1497 400.464 79.624 409.029 76.5878C409.597 76.3867 410.238 76.6384 410.461 77.1507C410.684 77.663 410.405 78.2412 409.837 78.4424C394.865 83.7506 378.805 107.573 363.347 147.377L362.936 142.478Z" fill="#D4D5D6"/>
<path d="M391.865 90.2315C391.865 90.2315 383.418 86.8687 390.553 73.7031C390.553 73.7031 401.865 82.1585 391.865 90.2315Z" fill="#E3E5E8"/>
<path d="M387.797 96.8474C387.797 96.8474 391.049 89.0526 406.02 94.7457C406.02 94.7457 397.289 105.404 387.797 96.8474Z" fill="#E3E5E8"/>
<path d="M403.422 80.6055C403.422 80.6055 403.607 72.2783 419.825 73.1442C419.825 73.1442 415.534 85.8182 403.422 80.6055Z" fill="#E3E5E8"/>
<path d="M379.158 109.929C379.158 109.929 369.947 109.342 371.725 94.7754C371.725 94.7754 385.541 99.2809 379.158 109.929Z" fill="#E3E5E8"/>
<path d="M376.145 117.234C376.145 117.234 377.854 109.05 393.69 112.322C393.69 112.322 387.135 124.181 376.145 117.234Z" fill="#E3E5E8"/>
<path d="M370.918 126.868C370.918 126.868 361.697 126.439 363.168 111.845C363.168 111.845 377.077 116.113 370.918 126.868Z" fill="#E3E5E8"/>
<path d="M296.468 87.7309C297.957 88.356 299.451 89.0189 300.908 89.7017C301.055 89.7712 301.213 89.8037 301.368 89.8037C301.729 89.8037 302.078 89.6269 302.256 89.3175C302.511 88.8755 302.32 88.3307 301.83 88.1016C300.347 87.4062 298.827 86.7315 297.312 86.0956C296.811 85.8845 296.216 86.0811 295.983 86.533C295.75 86.9849 295.968 87.5207 296.468 87.7309Z" fill="#E3E5E8"/>
<path d="M305.247 91.8482C306.668 92.5879 308.091 93.3654 309.477 94.1609C309.644 94.2566 309.829 94.3026 310.013 94.3026C310.344 94.3026 310.667 94.1546 310.858 93.8849C311.155 93.4646 311.017 92.9072 310.551 92.6393C309.141 91.8302 307.693 91.0382 306.247 90.286C305.769 90.0369 305.157 90.1848 304.881 90.617C304.604 91.0472 304.768 91.5993 305.247 91.8482Z" fill="#E3E5E8"/>
<path d="M287.318 84.3244C288.862 84.8286 290.416 85.3717 291.935 85.9372C292.06 85.9832 292.189 86.0058 292.316 86.0058C292.709 86.0058 293.082 85.7956 293.241 85.4474C293.452 84.9874 293.209 84.4597 292.698 84.2694C291.152 83.6939 289.571 83.141 287.999 82.6278C287.479 82.4573 286.906 82.6999 286.718 83.169C286.53 83.638 286.798 84.1549 287.318 84.3244Z" fill="#E3E5E8"/>
<path d="M258.435 78.6174C260.071 78.7428 261.724 78.9015 263.347 79.0901C263.39 79.0955 263.433 79.0973 263.476 79.0973C263.972 79.0973 264.402 78.7653 264.467 78.3098C264.537 77.8155 264.151 77.3636 263.603 77.3005C261.951 77.1084 260.269 76.9469 258.605 76.8197C258.054 76.7773 257.57 77.1462 257.524 77.6423C257.476 78.1393 257.884 78.5759 258.435 78.6174Z" fill="#E3E5E8"/>
<path d="M268.231 79.7541C269.846 80.0066 271.477 80.2953 273.078 80.611C273.15 80.6254 273.222 80.6317 273.293 80.6317C273.753 80.6317 274.167 80.344 274.269 79.9227C274.387 79.4357 274.045 78.9549 273.506 78.8485C271.876 78.5264 270.216 78.2333 268.573 77.9762C268.03 77.8914 267.511 78.2198 267.417 78.7105C267.322 79.202 267.687 79.6693 268.231 79.7541Z" fill="#E3E5E8"/>
<path d="M313.588 96.6355C314.933 97.4843 316.275 98.371 317.576 99.2702C317.757 99.3956 317.971 99.4561 318.184 99.4561C318.485 99.4561 318.782 99.3343 318.979 99.1025C319.315 98.7074 319.232 98.1409 318.794 97.8379C317.469 96.9223 316.104 96.0194 314.735 95.1562C314.282 94.8703 313.659 94.9704 313.342 95.3781C313.025 95.7876 313.135 96.3505 313.588 96.6355Z" fill="#E3E5E8"/>
<path d="M277.88 81.6579C279.466 82.0377 281.062 82.4535 282.625 82.8955C282.725 82.9235 282.825 82.937 282.924 82.937C283.35 82.937 283.744 82.6898 283.878 82.3047C284.043 81.8293 283.749 81.3233 283.222 81.1745C281.631 80.7253 280.006 80.3013 278.392 79.9153C277.859 79.7872 277.311 80.074 277.169 80.5557C277.029 81.0365 277.347 81.5299 277.88 81.6579Z" fill="#E3E5E8"/>
<path d="M325.152 104.996C325.344 105.154 325.586 105.233 325.827 105.233C326.098 105.233 326.368 105.133 326.565 104.939C326.938 104.571 326.909 104.001 326.502 103.665C325.271 102.649 323.998 101.644 322.718 100.678C322.295 100.357 321.664 100.408 321.309 100.789C320.955 101.171 321.01 101.74 321.434 102.06C322.691 103.01 323.942 103.999 325.152 104.996Z" fill="#E3E5E8"/>
<path d="M353.326 141.122C353.486 141.468 353.858 141.677 354.249 141.677C354.377 141.677 354.508 141.655 354.633 141.608C355.143 141.416 355.384 140.888 355.171 140.428C354.532 139.045 353.849 137.653 353.14 136.291C352.905 135.84 352.311 135.646 351.81 135.858C351.31 136.07 351.095 136.607 351.33 137.058C352.027 138.396 352.698 139.763 353.326 141.122Z" fill="#E3E5E8"/>
<path d="M344.186 125.379C344.377 125.648 344.698 125.795 345.028 125.795C345.213 125.795 345.399 125.749 345.566 125.653C346.031 125.384 346.167 124.826 345.869 124.407C344.971 123.142 344.03 121.877 343.07 120.647C342.752 120.239 342.128 120.141 341.677 120.428C341.225 120.715 341.116 121.278 341.434 121.685C342.376 122.893 343.303 124.136 344.186 125.379Z" fill="#E3E5E8"/>
<path d="M355.122 145.258C355.686 146.647 356.223 148.065 356.719 149.474C356.854 149.859 357.248 150.104 357.672 150.104C357.772 150.104 357.874 150.09 357.975 150.062C358.501 149.911 358.793 149.404 358.626 148.929C358.121 147.494 357.574 146.05 357 144.637C356.81 144.169 356.236 143.929 355.717 144.1C355.198 144.273 354.932 144.79 355.122 145.258Z" fill="#E3E5E8"/>
<path d="M338.507 118.1C338.704 118.331 339 118.451 339.3 118.451C339.513 118.451 339.728 118.39 339.91 118.264C340.348 117.96 340.429 117.393 340.092 116.998C339.074 115.807 338.013 114.619 336.939 113.47C336.583 113.088 335.952 113.039 335.53 113.361C335.108 113.683 335.054 114.252 335.409 114.632C336.463 115.763 337.506 116.929 338.507 118.1Z" fill="#E3E5E8"/>
<path d="M332.147 111.288C332.344 111.482 332.613 111.58 332.883 111.58C333.125 111.58 333.367 111.501 333.559 111.342C333.966 111.004 333.992 110.433 333.618 110.067C332.489 108.959 331.317 107.858 330.137 106.796C329.746 106.445 329.113 106.446 328.723 106.798C328.333 107.151 328.334 107.722 328.725 108.074C329.886 109.117 331.037 110.199 332.147 111.288Z" fill="#E3E5E8"/>
<path d="M248.564 78.2483H248.566H248.75C250.33 78.2483 251.929 78.2781 253.505 78.3367C253.519 78.3376 253.533 78.3376 253.547 78.3376C254.08 78.3376 254.523 77.9579 254.546 77.4726C254.569 76.9747 254.14 76.5544 253.588 76.5345C251.985 76.475 250.358 76.4443 248.751 76.4443H248.563C248.011 76.4452 247.564 76.8502 247.565 77.3481C247.565 77.846 248.013 78.2483 248.564 78.2483Z" fill="#E3E5E8"/>
<path d="M349.138 133.073C349.317 133.381 349.665 133.557 350.025 133.557C350.181 133.557 350.34 133.523 350.488 133.454C350.977 133.223 351.166 132.678 350.91 132.236C350.14 130.909 349.324 129.575 348.485 128.273C348.208 127.841 347.596 127.695 347.118 127.945C346.64 128.195 346.478 128.747 346.755 129.178C347.58 130.459 348.382 131.769 349.138 133.073Z" fill="#E3E5E8"/>
<path d="M167.902 108.488C168.158 108.488 168.414 108.4 168.61 108.224C169.769 107.177 170.968 106.139 172.175 105.14C172.582 104.803 172.609 104.232 172.235 103.865C171.861 103.498 171.229 103.474 170.822 103.811C169.594 104.829 168.373 105.884 167.194 106.949C166.804 107.302 166.804 107.873 167.195 108.225C167.39 108.401 167.646 108.488 167.902 108.488Z" fill="#E3E5E8"/>
<path d="M238.608 78.6484C238.637 78.6484 238.667 78.6475 238.697 78.6448C240.329 78.5158 241.987 78.4166 243.626 78.3508C244.178 78.3282 244.605 77.907 244.581 77.4091C244.556 76.9112 244.083 76.5269 243.537 76.5477C241.869 76.6144 240.182 76.7154 238.521 76.8471C237.971 76.8904 237.564 77.3288 237.612 77.8249C237.659 78.2949 238.095 78.6484 238.608 78.6484Z" fill="#E3E5E8"/>
<path d="M161.171 115.119C161.456 115.119 161.74 115.009 161.938 114.797C162.993 113.663 164.088 112.534 165.195 111.444C165.568 111.077 165.54 110.506 165.133 110.169C164.726 109.833 164.093 109.858 163.72 110.225C162.594 111.335 161.479 112.483 160.406 113.637C160.051 114.018 160.106 114.587 160.53 114.908C160.717 115.049 160.945 115.119 161.171 115.119Z" fill="#E3E5E8"/>
<path d="M149.241 129.723C149.398 129.805 149.57 129.844 149.74 129.844C150.086 129.844 150.422 129.683 150.607 129.393C151.428 128.112 152.291 126.829 153.173 125.58C153.47 125.159 153.333 124.602 152.867 124.334C152.401 124.066 151.783 124.19 151.486 124.61C150.588 125.881 149.709 127.187 148.874 128.491C148.599 128.923 148.763 129.474 149.241 129.723Z" fill="#E3E5E8"/>
<path d="M140.227 151.109C140.373 150.668 140.521 150.229 140.673 149.792C140.838 149.317 140.545 148.811 140.018 148.662C139.49 148.512 138.93 148.777 138.765 149.253C138.551 149.867 138.344 150.488 138.142 151.109H140.227Z" fill="#E3E5E8"/>
<path d="M144.712 137.746C144.849 137.803 144.992 137.83 145.134 137.83C145.511 137.83 145.872 137.637 146.041 137.309C146.735 135.966 147.471 134.619 148.229 133.305C148.484 132.863 148.293 132.318 147.804 132.088C147.314 131.858 146.71 132.031 146.455 132.472C145.684 133.808 144.934 135.179 144.228 136.546C143.994 136.999 144.211 137.536 144.712 137.746Z" fill="#E3E5E8"/>
<path d="M140.977 146.101C141.09 146.138 141.205 146.155 141.318 146.155C141.727 146.155 142.111 145.927 142.258 145.561C142.819 144.167 143.421 142.766 144.049 141.397C144.26 140.937 144.017 140.41 143.507 140.219C142.996 140.028 142.412 140.248 142.201 140.708C141.562 142.101 140.949 143.527 140.379 144.946C140.19 145.414 140.458 145.931 140.977 146.101Z" fill="#E3E5E8"/>
<path d="M154.529 122.092C154.704 122.202 154.904 122.255 155.102 122.255C155.417 122.255 155.728 122.121 155.922 121.87C156.863 120.658 157.847 119.448 158.845 118.274C159.181 117.879 159.098 117.312 158.66 117.009C158.222 116.706 157.594 116.781 157.258 117.176C156.242 118.371 155.241 119.602 154.283 120.836C153.966 121.244 154.076 121.807 154.529 122.092Z" fill="#E3E5E8"/>
<path d="M209.505 84.4888C209.619 84.4888 209.735 84.4708 209.848 84.4338C211.389 83.9251 212.962 83.4416 214.523 82.996C215.05 82.8454 215.341 82.3384 215.175 81.864C215.008 81.3895 214.447 81.1262 213.92 81.2768C212.331 81.7305 210.73 82.223 209.162 82.7407C208.643 82.9121 208.377 83.4299 208.566 83.898C208.714 84.2624 209.098 84.4888 209.505 84.4888Z" fill="#E3E5E8"/>
<path d="M219.004 81.777C219.09 81.777 219.177 81.767 219.264 81.7454C220.848 81.3611 222.462 81.0039 224.061 80.6828C224.6 80.5746 224.94 80.0929 224.82 79.6067C224.7 79.1206 224.167 78.8139 223.627 78.9221C221.999 79.2486 220.356 79.6122 218.745 80.0036C218.212 80.1326 217.896 80.6278 218.039 81.1086C218.159 81.5118 218.562 81.777 219.004 81.777Z" fill="#E3E5E8"/>
<path d="M175.241 102.41C175.468 102.41 175.697 102.341 175.884 102.198C177.138 101.246 178.433 100.307 179.73 99.4054C180.168 99.1014 180.249 98.535 179.912 98.1408C179.575 97.7457 178.947 97.6727 178.51 97.9766C177.189 98.894 175.873 99.8492 174.596 100.818C174.173 101.139 174.119 101.707 174.475 102.089C174.673 102.301 174.956 102.41 175.241 102.41Z" fill="#E3E5E8"/>
<path d="M228.731 79.8255C228.789 79.8255 228.847 79.821 228.906 79.812C230.519 79.5549 232.161 79.3267 233.788 79.1328C234.336 79.0678 234.721 78.6141 234.649 78.1207C234.577 77.6264 234.075 77.2774 233.527 77.3441C231.872 77.5417 230.2 77.7734 228.559 78.0359C228.015 78.1225 227.652 78.5906 227.748 79.0813C227.833 79.5179 228.255 79.8255 228.731 79.8255Z" fill="#E3E5E8"/>
<path d="M200.329 87.9356C200.471 87.9356 200.616 87.9086 200.753 87.8499C202.235 87.224 203.751 86.6187 205.26 86.0523C205.77 85.861 206.011 85.3325 205.799 84.8734C205.587 84.4133 205.002 84.195 204.492 84.3872C202.956 84.9636 201.413 85.5796 199.905 86.2164C199.405 86.4275 199.189 86.9651 199.424 87.4161C199.593 87.7435 199.953 87.9356 200.329 87.9356Z" fill="#E3E5E8"/>
<path d="M183.132 96.9312C183.331 96.9312 183.531 96.878 183.706 96.7671C185.046 95.9174 186.425 95.083 187.804 94.2875C188.269 94.0187 188.405 93.4612 188.107 93.0418C187.809 92.6224 187.191 92.4997 186.726 92.7685C185.323 93.5785 183.92 94.4273 182.556 95.2923C182.104 95.5782 181.995 96.1411 182.313 96.5488C182.507 96.7968 182.817 96.9312 183.132 96.9312Z" fill="#E3E5E8"/>
<path d="M191.516 92.0923C191.686 92.0923 191.859 92.0526 192.017 91.9705C193.434 91.2291 194.887 90.5066 196.336 89.8231C196.825 89.5922 197.015 89.0474 196.759 88.6054C196.503 88.1643 195.898 87.993 195.409 88.2239C193.934 88.9193 192.455 89.6554 191.013 90.4092C190.535 90.659 190.373 91.211 190.65 91.6422C190.836 91.9308 191.171 92.0923 191.516 92.0923Z" fill="#E3E5E8"/>
<path d="M312.094 96.8491C312.094 100.044 310.645 102.948 308.311 105.054C305.977 107.159 302.757 108.466 299.215 108.466H206.377C199.293 108.466 193.498 103.238 193.498 96.8491C193.498 95.4933 193.761 94.1872 194.239 92.9768C194.888 91.3306 195.94 89.8549 197.282 88.6445C199.015 87.0813 201.237 85.9574 203.716 85.4839C204.417 67.0605 221.198 52.3164 241.794 52.3164C255.269 52.3164 267.113 58.6286 273.885 68.1546C275.779 67.6125 277.797 67.3221 279.895 67.3221C280.544 67.3221 281.183 67.3509 281.811 67.4042C291.878 68.2755 299.751 75.9235 299.751 85.2313C299.751 85.2358 299.751 85.2358 299.751 85.2412C306.588 85.4974 312.094 90.6243 312.094 96.8491Z" fill="#789EFF"/>
<path d="M257.909 79C257.374 79 256.839 78.8386 256.431 78.515L246.934 70.9955L237.568 78.4116C236.752 79.0579 235.429 79.0579 234.612 78.4116C233.796 77.7652 233.796 76.7174 234.612 76.0711L245.456 67.4848C246.273 66.8384 247.596 66.8384 248.413 67.4848L259.388 76.1745C260.204 76.8209 260.204 77.8687 259.388 78.515C258.979 78.8386 258.444 79 257.909 79Z" fill="white"/>
<path d="M247 101C245.342 101 244 100.18 244 99.1683V68.8316C244 67.8197 245.342 67 247 67C248.656 67 250 67.8197 250 68.8316V99.1683C250 100.18 248.656 101 247 101Z" fill="white"/>
<path d="M424.766 128.526V321.786C424.766 325.019 421.861 327.64 418.276 327.64H93.0271C89.4421 327.64 86.5371 325.019 86.5371 321.786V128.526C86.5371 125.292 89.4421 122.672 93.0271 122.672H418.276C421.861 122.672 424.766 125.292 424.766 128.526Z" fill="#3C3C48"/>
<g filter="url(#filter0_f_1305_2)">
<path d="M415.795 136.807V313.503C415.795 316.788 412.846 319.448 409.204 319.448H102.09C101.284 319.448 100.519 319.319 99.8048 319.071C97.2948 318.243 95.5098 316.062 95.5098 313.503V136.807C95.5098 133.521 98.4588 130.862 102.091 130.862H409.205C410.082 130.862 410.929 131.019 411.694 131.304C414.102 132.187 415.795 134.322 415.795 136.807Z" fill="white"/>
</g>
<g filter="url(#filter1_f_1305_2)">
<path d="M415.796 136.806V145.602H95.5068V136.806C95.5068 133.523 98.4558 130.864 102.094 130.864H409.209C412.847 130.863 415.796 133.523 415.796 136.806Z" fill="#E3E5E8"/>
</g>
<path d="M390.667 138.232C390.667 139.826 389.235 141.119 387.467 141.119C385.7 141.119 384.268 139.827 384.268 138.232C384.268 136.638 385.7 135.346 387.467 135.346C389.234 135.346 390.667 136.638 390.667 138.232Z" fill="#4E9FFD"/>
<path d="M378.828 138.232C378.828 139.826 377.396 141.119 375.629 141.119C373.862 141.119 372.429 139.827 372.429 138.232C372.429 136.638 373.862 135.346 375.629 135.346C377.396 135.346 378.828 136.638 378.828 138.232Z" fill="#3C3C48"/>
<path d="M402.505 138.232C402.505 139.826 401.073 141.119 399.306 141.119C397.539 141.119 396.106 139.827 396.106 138.232C396.106 136.638 397.538 135.346 399.306 135.346C401.073 135.346 402.505 136.638 402.505 138.232Z" fill="#D7243A"/>
<path d="M144.647 298.509V163.315C144.647 160.36 147.304 157.963 150.581 157.963H360.309C363.586 157.963 366.243 160.36 366.243 163.315V298.509C366.243 301.465 363.586 303.861 360.309 303.861H150.581C147.304 303.861 144.647 301.465 144.647 298.509Z" fill="#E3E5E8"/>
<path d="M360.69 167.351V294.474C360.69 294.524 360.69 294.573 360.687 294.626C360.6 296.973 358.459 298.854 355.834 298.854H155.054C153.544 298.854 152.191 298.232 151.301 297.253C150.614 296.498 150.201 295.529 150.201 294.475V167.351C150.201 164.934 152.374 162.972 155.053 162.972H355.833C358.515 162.972 360.69 164.933 360.69 167.351Z" fill="#D5FFE4"/>
<path d="M319.492 234.961C323.697 217.571 311.477 200.399 292.198 196.606C272.919 192.812 253.881 203.834 249.676 221.225C245.47 238.615 257.69 255.787 276.97 259.58C296.249 263.373 315.287 252.35 319.492 234.961Z" fill="#FFBC10"/>
<path d="M360.687 262.899V294.624C360.6 296.972 358.461 298.853 355.835 298.853H248.756L316.553 195.855L350.455 247.355L360.687 262.899Z" fill="#1A100E"/>
<path d="M319.243 298.852H155.057C153.546 298.852 152.194 298.23 151.303 297.252L192.462 237.427L234.722 175.999L276.982 237.427L319.243 298.852Z" fill="#3C3C48"/>
<path d="M207.323 215.825L234.721 234.323L262.119 215.825L234.721 176.001L207.323 215.825Z" fill="white"/>
<path d="M293.479 230.912L316.555 247.354L339.631 230.912L316.555 195.855L293.479 230.912Z" fill="white"/>
<path d="M357.659 312.994H352.674C352.191 312.994 351.799 312.64 351.799 312.205C351.799 311.769 352.191 311.416 352.674 311.416H357.659C358.142 311.416 358.534 311.769 358.534 312.205C358.534 312.64 358.142 312.994 357.659 312.994ZM347.688 312.994H342.703C342.22 312.994 341.828 312.64 341.828 312.205C341.828 311.769 342.22 311.416 342.703 311.416H347.688C348.171 311.416 348.563 311.769 348.563 312.205C348.563 312.64 348.172 312.994 347.688 312.994ZM337.718 312.994H332.733C332.25 312.994 331.858 312.64 331.858 312.205C331.858 311.769 332.25 311.416 332.733 311.416H337.718C338.201 311.416 338.593 311.769 338.593 312.205C338.593 312.64 338.201 312.994 337.718 312.994ZM327.747 312.994H322.762C322.279 312.994 321.887 312.64 321.887 312.205C321.887 311.769 322.279 311.416 322.762 311.416H327.747C328.23 311.416 328.622 311.769 328.622 312.205C328.622 312.64 328.23 312.994 327.747 312.994ZM317.777 312.994H312.792C312.309 312.994 311.917 312.64 311.917 312.205C311.917 311.769 312.309 311.416 312.792 311.416H317.777C318.26 311.416 318.652 311.769 318.652 312.205C318.652 312.64 318.26 312.994 317.777 312.994ZM307.806 312.994H302.821C302.338 312.994 301.946 312.64 301.946 312.205C301.946 311.769 302.338 311.416 302.821 311.416H307.806C308.289 311.416 308.681 311.769 308.681 312.205C308.681 312.64 308.289 312.994 307.806 312.994ZM297.836 312.994H292.851C292.368 312.994 291.976 312.64 291.976 312.205C291.976 311.769 292.368 311.416 292.851 311.416H297.836C298.319 311.416 298.711 311.769 298.711 312.205C298.711 312.64 298.319 312.994 297.836 312.994ZM287.865 312.994H282.88C282.397 312.994 282.005 312.64 282.005 312.205C282.005 311.769 282.397 311.416 282.88 311.416H287.865C288.348 311.416 288.74 311.769 288.74 312.205C288.74 312.64 288.348 312.994 287.865 312.994ZM277.895 312.994H272.91C272.427 312.994 272.035 312.64 272.035 312.205C272.035 311.769 272.427 311.416 272.91 311.416H277.895C278.378 311.416 278.77 311.769 278.77 312.205C278.77 312.64 278.378 312.994 277.895 312.994ZM267.924 312.994H262.939C262.456 312.994 262.064 312.64 262.064 312.205C262.064 311.769 262.456 311.416 262.939 311.416H267.924C268.407 311.416 268.799 311.769 268.799 312.205C268.799 312.64 268.407 312.994 267.924 312.994ZM257.953 312.994H252.968C252.485 312.994 252.093 312.64 252.093 312.205C252.093 311.769 252.485 311.416 252.968 311.416H257.953C258.436 311.416 258.828 311.769 258.828 312.205C258.828 312.64 258.436 312.994 257.953 312.994ZM247.983 312.994H242.998C242.515 312.994 242.123 312.64 242.123 312.205C242.123 311.769 242.515 311.416 242.998 311.416H247.983C248.466 311.416 248.858 311.769 248.858 312.205C248.858 312.64 248.466 312.994 247.983 312.994ZM238.012 312.994H233.027C232.544 312.994 232.152 312.64 232.152 312.205C232.152 311.769 232.544 311.416 233.027 311.416H238.012C238.495 311.416 238.887 311.769 238.887 312.205C238.887 312.64 238.495 312.994 238.012 312.994ZM228.042 312.994H223.057C222.574 312.994 222.182 312.64 222.182 312.205C222.182 311.769 222.574 311.416 223.057 311.416H228.042C228.525 311.416 228.917 311.769 228.917 312.205C228.917 312.64 228.525 312.994 228.042 312.994ZM218.071 312.994H213.086C212.603 312.994 212.211 312.64 212.211 312.205C212.211 311.769 212.603 311.416 213.086 311.416H218.071C218.554 311.416 218.946 311.769 218.946 312.205C218.946 312.64 218.554 312.994 218.071 312.994ZM208.1 312.994H203.115C202.632 312.994 202.24 312.64 202.24 312.205C202.24 311.769 202.632 311.416 203.115 311.416H208.1C208.583 311.416 208.975 311.769 208.975 312.205C208.975 312.64 208.584 312.994 208.1 312.994ZM198.13 312.994H193.145C192.662 312.994 192.27 312.64 192.27 312.205C192.27 311.769 192.662 311.416 193.145 311.416H198.13C198.613 311.416 199.005 311.769 199.005 312.205C199.005 312.64 198.613 312.994 198.13 312.994ZM188.159 312.994H183.174C182.691 312.994 182.299 312.64 182.299 312.205C182.299 311.769 182.691 311.416 183.174 311.416H188.159C188.642 311.416 189.034 311.769 189.034 312.205C189.034 312.64 188.643 312.994 188.159 312.994ZM178.189 312.994H173.204C172.721 312.994 172.329 312.64 172.329 312.205C172.329 311.769 172.721 311.416 173.204 311.416H178.189C178.672 311.416 179.064 311.769 179.064 312.205C179.064 312.64 178.672 312.994 178.189 312.994ZM168.218 312.994H163.233C162.75 312.994 162.358 312.64 162.358 312.205C162.358 311.769 162.75 311.416 163.233 311.416H168.218C168.701 311.416 169.093 311.769 169.093 312.205C169.093 312.64 168.701 312.994 168.218 312.994ZM158.248 312.994H153.263C152.78 312.994 152.388 312.64 152.388 312.205C152.388 311.769 152.78 311.416 153.263 311.416H158.248C158.731 311.416 159.123 311.769 159.123 312.205C159.123 312.64 158.731 312.994 158.248 312.994ZM149.676 312.994C147.896 312.994 146.152 312.717 144.492 312.17C144.038 312.02 143.804 311.567 143.97 311.158C144.136 310.748 144.638 310.537 145.092 310.687C146.56 311.17 148.102 311.416 149.676 311.416C150.159 311.416 150.551 311.769 150.551 312.205C150.551 312.64 150.159 312.994 149.676 312.994ZM362.641 312.93C362.197 312.93 361.816 312.626 361.771 312.219C361.723 311.785 362.074 311.398 362.555 311.355C364.115 311.214 365.622 310.831 367.033 310.216C367.469 310.026 367.992 310.191 368.202 310.582C368.412 310.974 368.231 311.446 367.795 311.637C366.199 312.333 364.495 312.767 362.729 312.926C362.699 312.929 362.669 312.93 362.641 312.93ZM140.5 309.975C140.301 309.975 140.101 309.915 139.937 309.79C138.579 308.76 137.441 307.538 136.554 306.157C136.312 305.78 136.454 305.296 136.872 305.078C137.291 304.86 137.826 304.989 138.068 305.365C138.853 306.587 139.861 307.67 141.063 308.581C141.433 308.862 141.481 309.36 141.169 309.694C140.997 309.879 140.749 309.975 140.5 309.975ZM371.435 309.1C371.215 309.1 370.994 309.025 370.824 308.876C370.478 308.572 370.471 308.072 370.808 307.76C371.906 306.744 372.789 305.577 373.434 304.292C373.633 303.895 374.151 303.718 374.592 303.898C375.032 304.078 375.227 304.545 375.028 304.943C374.299 306.396 373.3 307.715 372.06 308.862C371.89 309.021 371.663 309.1 371.435 309.1ZM135.611 302.349C135.194 302.349 134.825 302.079 134.75 301.696C134.599 300.918 134.522 300.121 134.522 299.325V297.074C134.522 296.638 134.914 296.285 135.397 296.285C135.88 296.285 136.272 296.638 136.272 297.074V299.325C136.272 300.03 136.34 300.735 136.474 301.422C136.558 301.852 136.24 302.261 135.764 302.336C135.712 302.345 135.661 302.349 135.611 302.349ZM375.455 301.071C375.433 301.071 375.412 301.07 375.39 301.069C374.908 301.037 374.546 300.658 374.581 300.224C374.605 299.926 374.617 299.624 374.617 299.325V295.786C374.617 295.35 375.009 294.996 375.492 294.996C375.975 294.996 376.367 295.35 376.367 295.786V299.325C376.367 299.662 376.353 300.003 376.326 300.339C376.293 300.754 375.909 301.071 375.455 301.071ZM135.397 293.367C134.914 293.367 134.522 293.014 134.522 292.578V288.082C134.522 287.646 134.914 287.293 135.397 287.293C135.88 287.293 136.272 287.646 136.272 288.082V292.578C136.272 293.014 135.881 293.367 135.397 293.367ZM375.493 292.079C375.01 292.079 374.618 291.725 374.618 291.289V286.793C374.618 286.357 375.01 286.004 375.493 286.004C375.976 286.004 376.368 286.357 376.368 286.793V291.289C376.368 291.725 375.976 292.079 375.493 292.079ZM135.397 284.374C134.914 284.374 134.522 284.02 134.522 283.584V279.088C134.522 278.652 134.914 278.299 135.397 278.299C135.88 278.299 136.272 278.652 136.272 279.088V283.584C136.272 284.02 135.881 284.374 135.397 284.374ZM375.493 283.085C375.01 283.085 374.618 282.731 374.618 282.295V277.799C374.618 277.363 375.01 277.01 375.493 277.01C375.976 277.01 376.368 277.363 376.368 277.799V282.295C376.368 282.731 375.976 283.085 375.493 283.085ZM135.397 275.38C134.914 275.38 134.522 275.026 134.522 274.591V270.094C134.522 269.658 134.914 269.305 135.397 269.305C135.88 269.305 136.272 269.658 136.272 270.094V274.591C136.272 275.027 135.881 275.38 135.397 275.38ZM375.493 274.092C375.01 274.092 374.618 273.738 374.618 273.302V268.806C374.618 268.37 375.01 268.017 375.493 268.017C375.976 268.017 376.368 268.37 376.368 268.806V273.302C376.368 273.738 375.976 274.092 375.493 274.092ZM135.397 266.387C134.914 266.387 134.522 266.033 134.522 265.598V261.101C134.522 260.665 134.914 260.312 135.397 260.312C135.88 260.312 136.272 260.665 136.272 261.101V265.598C136.272 266.033 135.881 266.387 135.397 266.387ZM375.493 265.098C375.01 265.098 374.618 264.744 374.618 264.309V259.812C374.618 259.377 375.01 259.023 375.493 259.023C375.976 259.023 376.368 259.377 376.368 259.812V264.309C376.368 264.744 375.976 265.098 375.493 265.098ZM135.397 257.393C134.914 257.393 134.522 257.039 134.522 256.604V252.107C134.522 251.672 134.914 251.318 135.397 251.318C135.88 251.318 136.272 251.672 136.272 252.107V256.604C136.272 257.039 135.881 257.393 135.397 257.393ZM375.493 256.104C375.01 256.104 374.618 255.75 374.618 255.315V250.818C374.618 250.383 375.01 250.029 375.493 250.029C375.976 250.029 376.368 250.383 376.368 250.818V255.315C376.368 255.751 375.976 256.104 375.493 256.104ZM135.397 248.4C134.914 248.4 134.522 248.046 134.522 247.611V243.114C134.522 242.679 134.914 242.325 135.397 242.325C135.88 242.325 136.272 242.679 136.272 243.114V247.611C136.272 248.046 135.881 248.4 135.397 248.4ZM375.493 247.111C375.01 247.111 374.618 246.758 374.618 246.322V241.825C374.618 241.39 375.01 241.036 375.493 241.036C375.976 241.036 376.368 241.39 376.368 241.825V246.322C376.368 246.758 375.976 247.111 375.493 247.111ZM135.397 239.406C134.914 239.406 134.522 239.053 134.522 238.617V234.12C134.522 233.685 134.914 233.331 135.397 233.331C135.88 233.331 136.272 233.685 136.272 234.12V238.617C136.272 239.053 135.881 239.406 135.397 239.406ZM375.493 238.117C375.01 238.117 374.618 237.764 374.618 237.328V232.832C374.618 232.396 375.01 232.042 375.493 232.042C375.976 232.042 376.368 232.396 376.368 232.832V237.328C376.368 237.764 375.976 238.117 375.493 238.117ZM135.397 230.413C134.914 230.413 134.522 230.06 134.522 229.624V225.128C134.522 224.692 134.914 224.338 135.397 224.338C135.88 224.338 136.272 224.692 136.272 225.128V229.624C136.272 230.06 135.881 230.413 135.397 230.413ZM375.493 229.124C375.01 229.124 374.618 228.771 374.618 228.335V223.839C374.618 223.403 375.01 223.049 375.493 223.049C375.976 223.049 376.368 223.403 376.368 223.839V228.335C376.368 228.771 375.976 229.124 375.493 229.124ZM135.397 221.419C134.914 221.419 134.522 221.066 134.522 220.63V216.134C134.522 215.698 134.914 215.344 135.397 215.344C135.88 215.344 136.272 215.698 136.272 216.134V220.63C136.272 221.066 135.881 221.419 135.397 221.419ZM375.493 220.13C375.01 220.13 374.618 219.777 374.618 219.341V214.845C374.618 214.409 375.01 214.055 375.493 214.055C375.976 214.055 376.368 214.409 376.368 214.845V219.341C376.368 219.778 375.976 220.13 375.493 220.13ZM135.397 212.426C134.914 212.426 134.522 212.072 134.522 211.636V207.14C134.522 206.704 134.914 206.351 135.397 206.351C135.88 206.351 136.272 206.704 136.272 207.14V211.636C136.272 212.072 135.881 212.426 135.397 212.426ZM375.493 211.138C375.01 211.138 374.618 210.784 374.618 210.348V205.852C374.618 205.416 375.01 205.063 375.493 205.063C375.976 205.063 376.368 205.416 376.368 205.852V210.348C376.368 210.784 375.976 211.138 375.493 211.138ZM135.397 203.433C134.914 203.433 134.522 203.079 134.522 202.643V198.147C134.522 197.711 134.914 197.358 135.397 197.358C135.88 197.358 136.272 197.711 136.272 198.147V202.643C136.272 203.079 135.881 203.433 135.397 203.433ZM375.493 202.144C375.01 202.144 374.618 201.79 374.618 201.354V196.858C374.618 196.422 375.01 196.069 375.493 196.069C375.976 196.069 376.368 196.422 376.368 196.858V201.354C376.368 201.79 375.976 202.144 375.493 202.144ZM135.397 194.439C134.914 194.439 134.522 194.085 134.522 193.65V189.153C134.522 188.717 134.914 188.364 135.397 188.364C135.88 188.364 136.272 188.717 136.272 189.153V193.65C136.272 194.085 135.881 194.439 135.397 194.439ZM375.493 193.15C375.01 193.15 374.618 192.796 374.618 192.361V187.864C374.618 187.428 375.01 187.075 375.493 187.075C375.976 187.075 376.368 187.428 376.368 187.864V192.361C376.368 192.797 375.976 193.15 375.493 193.15ZM135.397 185.446C134.914 185.446 134.522 185.092 134.522 184.657V180.16C134.522 179.724 134.914 179.371 135.397 179.371C135.88 179.371 136.272 179.724 136.272 180.16V184.657C136.272 185.092 135.881 185.446 135.397 185.446ZM375.493 184.157C375.01 184.157 374.618 183.803 374.618 183.368V178.871C374.618 178.436 375.01 178.082 375.493 178.082C375.976 178.082 376.368 178.436 376.368 178.871V183.368C376.368 183.803 375.976 184.157 375.493 184.157ZM135.397 176.452C134.914 176.452 134.522 176.098 134.522 175.663V171.166C134.522 170.731 134.914 170.377 135.397 170.377C135.88 170.377 136.272 170.731 136.272 171.166V175.663C136.272 176.098 135.881 176.452 135.397 176.452ZM375.493 175.163C375.01 175.163 374.618 174.809 374.618 174.374V169.877C374.618 169.442 375.01 169.088 375.493 169.088C375.976 169.088 376.368 169.442 376.368 169.877V174.374C376.368 174.81 375.976 175.163 375.493 175.163ZM135.397 167.458C134.914 167.458 134.522 167.105 134.522 166.669V162.498C134.522 162.383 134.524 162.267 134.527 162.153C134.539 161.717 134.943 161.372 135.424 161.383C135.907 161.394 136.289 161.757 136.276 162.192C136.273 162.294 136.272 162.396 136.272 162.498V166.669C136.272 167.105 135.881 167.458 135.397 167.458ZM375.493 166.17C375.01 166.17 374.618 165.817 374.618 165.381V162.498C374.618 161.994 374.583 161.485 374.514 160.986C374.454 160.554 374.794 160.159 375.273 160.105C375.757 160.051 376.19 160.358 376.25 160.79C376.328 161.353 376.368 161.928 376.368 162.497V165.38C376.368 165.817 375.976 166.17 375.493 166.17ZM136.386 158.578C136.279 158.578 136.171 158.56 136.065 158.523C135.615 158.363 135.395 157.905 135.572 157.499C136.221 156.015 137.147 154.654 138.324 153.453C138.644 153.126 139.197 153.096 139.559 153.384C139.921 153.673 139.955 154.172 139.635 154.498C138.593 155.561 137.774 156.765 137.2 158.077C137.064 158.388 136.735 158.578 136.386 158.578ZM373.916 157.406C373.599 157.406 373.293 157.25 373.137 156.979C372.42 155.724 371.472 154.598 370.319 153.635C369.965 153.338 369.944 152.839 370.272 152.519C370.6 152.2 371.154 152.181 371.509 152.477C372.811 153.566 373.882 154.836 374.692 156.254C374.913 156.642 374.745 157.118 374.315 157.318C374.188 157.377 374.051 157.406 373.916 157.406ZM142.857 151.975C142.547 151.975 142.247 151.827 142.088 151.564C141.856 151.182 142.013 150.702 142.437 150.493C143.995 149.726 145.674 149.217 147.427 148.981C147.905 148.916 148.35 149.213 148.422 149.645C148.493 150.076 148.164 150.477 147.686 150.542C146.137 150.751 144.653 151.201 143.276 151.879C143.142 151.944 142.998 151.975 142.857 151.975ZM366.75 151.416C366.637 151.416 366.521 151.396 366.41 151.354C364.968 150.805 363.442 150.492 361.872 150.423C361.389 150.402 361.017 150.032 361.04 149.597C361.063 149.161 361.467 148.826 361.957 148.846C363.732 148.924 365.459 149.278 367.091 149.9C367.536 150.069 367.745 150.532 367.557 150.934C367.415 151.235 367.091 151.416 366.75 151.416ZM356.93 150.409H351.945C351.462 150.409 351.07 150.055 351.07 149.619C351.07 149.184 351.462 148.83 351.945 148.83H356.93C357.413 148.83 357.805 149.184 357.805 149.619C357.805 150.055 357.413 150.409 356.93 150.409ZM346.959 150.409H341.974C341.491 150.409 341.099 150.055 341.099 149.619C341.099 149.184 341.491 148.83 341.974 148.83H346.959C347.442 148.83 347.834 149.184 347.834 149.619C347.834 150.055 347.442 150.409 346.959 150.409ZM336.988 150.409H332.003C331.52 150.409 331.128 150.055 331.128 149.619C331.128 149.184 331.52 148.83 332.003 148.83H336.988C337.471 148.83 337.863 149.184 337.863 149.619C337.863 150.055 337.472 150.409 336.988 150.409ZM327.018 150.409H322.033C321.55 150.409 321.158 150.055 321.158 149.619C321.158 149.184 321.55 148.83 322.033 148.83H327.018C327.501 148.83 327.893 149.184 327.893 149.619C327.893 150.055 327.501 150.409 327.018 150.409ZM317.047 150.409H312.062C311.579 150.409 311.187 150.055 311.187 149.619C311.187 149.184 311.579 148.83 312.062 148.83H317.047C317.53 148.83 317.922 149.184 317.922 149.619C317.922 150.055 317.53 150.409 317.047 150.409ZM307.077 150.409H302.092C301.609 150.409 301.217 150.055 301.217 149.619C301.217 149.184 301.609 148.83 302.092 148.83H307.077C307.56 148.83 307.952 149.184 307.952 149.619C307.952 150.055 307.56 150.409 307.077 150.409ZM297.106 150.409H292.121C291.638 150.409 291.246 150.055 291.246 149.619C291.246 149.184 291.638 148.83 292.121 148.83H297.106C297.589 148.83 297.981 149.184 297.981 149.619C297.981 150.055 297.589 150.409 297.106 150.409ZM287.135 150.409H282.15C281.667 150.409 281.275 150.055 281.275 149.619C281.275 149.184 281.667 148.83 282.15 148.83H287.135C287.618 148.83 288.01 149.184 288.01 149.619C288.01 150.055 287.619 150.409 287.135 150.409ZM277.165 150.409H272.18C271.697 150.409 271.305 150.055 271.305 149.619C271.305 149.184 271.697 148.83 272.18 148.83H277.165C277.648 148.83 278.04 149.184 278.04 149.619C278.04 150.055 277.648 150.409 277.165 150.409ZM267.194 150.409H262.209C261.726 150.409 261.334 150.055 261.334 149.619C261.334 149.184 261.726 148.83 262.209 148.83H267.194C267.677 148.83 268.069 149.184 268.069 149.619C268.069 150.055 267.677 150.409 267.194 150.409ZM257.224 150.409H252.239C251.756 150.409 251.364 150.055 251.364 149.619C251.364 149.184 251.756 148.83 252.239 148.83H257.224C257.707 148.83 258.099 149.184 258.099 149.619C258.099 150.055 257.707 150.409 257.224 150.409ZM247.253 150.409H242.268C241.785 150.409 241.393 150.055 241.393 149.619C241.393 149.184 241.785 148.83 242.268 148.83H247.253C247.736 148.83 248.128 149.184 248.128 149.619C248.128 150.055 247.737 150.409 247.253 150.409ZM237.283 150.409H232.298C231.815 150.409 231.423 150.055 231.423 149.619C231.423 149.184 231.815 148.83 232.298 148.83H237.283C237.766 148.83 238.158 149.184 238.158 149.619C238.158 150.055 237.766 150.409 237.283 150.409ZM227.312 150.409H222.327C221.844 150.409 221.452 150.055 221.452 149.619C221.452 149.184 221.844 148.83 222.327 148.83H227.312C227.795 148.83 228.187 149.184 228.187 149.619C228.187 150.055 227.795 150.409 227.312 150.409ZM217.342 150.409H212.357C211.874 150.409 211.482 150.055 211.482 149.619C211.482 149.184 211.874 148.83 212.357 148.83H217.342C217.825 148.83 218.217 149.184 218.217 149.619C218.217 150.055 217.825 150.409 217.342 150.409ZM207.371 150.409H202.386C201.903 150.409 201.511 150.055 201.511 149.619C201.511 149.184 201.903 148.83 202.386 148.83H207.371C207.854 148.83 208.246 149.184 208.246 149.619C208.246 150.055 207.854 150.409 207.371 150.409ZM197.4 150.409H192.415C191.932 150.409 191.54 150.055 191.54 149.619C191.54 149.184 191.932 148.83 192.415 148.83H197.4C197.883 148.83 198.275 149.184 198.275 149.619C198.275 150.055 197.884 150.409 197.4 150.409ZM187.43 150.409H182.445C181.962 150.409 181.57 150.055 181.57 149.619C181.57 149.184 181.962 148.83 182.445 148.83H187.43C187.913 148.83 188.305 149.184 188.305 149.619C188.305 150.055 187.913 150.409 187.43 150.409ZM177.459 150.409H172.474C171.991 150.409 171.599 150.055 171.599 149.619C171.599 149.184 171.991 148.83 172.474 148.83H177.459C177.942 148.83 178.334 149.184 178.334 149.619C178.334 150.055 177.942 150.409 177.459 150.409ZM167.489 150.409H162.504C162.021 150.409 161.629 150.055 161.629 149.619C161.629 149.184 162.02 148.83 162.503 148.83H167.488C167.971 148.83 168.363 149.184 168.363 149.619C168.363 150.055 167.972 150.409 167.489 150.409ZM157.518 150.409H152.533C152.05 150.409 151.658 150.055 151.658 149.619C151.658 149.184 152.05 148.83 152.533 148.83H157.518C158.001 148.83 158.393 149.184 158.393 149.619C158.393 150.055 158.001 150.409 157.518 150.409Z" fill="#E3E5E8"/>
<path d="M180.75 174.764C180.75 184.976 171.572 193.255 160.25 193.255C156.6 193.255 153.172 192.393 150.202 190.882V167.352C150.202 164.935 152.375 162.973 155.054 162.973H176.039C178.982 166.174 180.75 170.283 180.75 174.764Z" fill="#F4F2F2"/>
<path d="M156.5 189.684C167.822 189.684 177 181.406 177 171.193C177 160.981 167.822 152.702 156.5 152.702C145.178 152.702 136 160.981 136 171.193C136 181.406 145.178 189.684 156.5 189.684Z" fill="#3C3C48"/>
<path d="M158.5 178.935V163.45C158.5 162.455 157.605 161.646 156.5 161.646C155.395 161.646 154.5 162.455 154.5 163.45V178.935C154.5 179.932 155.395 180.739 156.5 180.739C157.605 180.739 158.5 179.932 158.5 178.935Z" fill="white"/>
<path d="M165.083 169.39H147.916C146.811 169.39 145.916 170.197 145.916 171.194C145.916 172.189 146.811 172.998 147.916 172.998H165.083C166.188 172.998 167.083 172.189 167.083 171.194C167.083 170.197 166.188 169.39 165.083 169.39Z" fill="white"/>
<path d="M286.409 327.555H228.989V372.546H286.409V327.555Z" fill="#1A100E"/>
<path d="M319.993 385.83H195.404V382.275C195.404 375.497 201.496 370.002 209.011 370.002H306.387C313.902 370.002 319.994 375.497 319.994 382.275L319.993 385.83Z" fill="#3C3C48"/>
<path d="M439.963 373.37L440.139 380.973L433.758 380.785L433.019 373.081L439.963 373.37Z" fill="#FCBB8C"/>
<path d="M437.374 379.612C437.374 379.612 434.189 378.938 433.316 378.977C432.443 379.017 426.788 385.078 424.829 385.48C421.277 386.208 421.44 391.241 423.623 391.431C429.937 391.983 440.616 389.294 440.616 389.294C440.616 389.294 441.392 382.81 440.893 380.795C440.395 378.78 439.151 380.161 437.374 379.612Z" fill="#F78AEC"/>
<path d="M432.351 385.267C432.464 385.286 432.585 385.266 432.686 385.201C432.882 385.074 432.926 384.829 432.786 384.652C432.739 384.594 431.623 383.201 430.284 382.743C428.503 382.13 427.283 383.118 427.231 383.16C427.054 383.306 427.042 383.555 427.205 383.716C427.367 383.876 427.643 383.886 427.821 383.739C427.854 383.712 428.706 383.044 429.975 383.478C431.066 383.851 432.068 385.098 432.078 385.11C432.146 385.196 432.245 385.249 432.351 385.267Z" fill="white"/>
<path d="M433.516 384.045C433.629 384.064 433.75 384.043 433.851 383.978C434.047 383.852 434.092 383.606 433.952 383.43C433.905 383.371 432.789 381.978 431.45 381.52C429.667 380.908 428.449 381.894 428.397 381.938C428.22 382.084 428.208 382.333 428.371 382.493C428.534 382.653 428.809 382.665 428.987 382.517C429.021 382.491 429.873 381.821 431.141 382.255C432.237 382.631 433.234 383.875 433.244 383.888C433.311 383.973 433.41 384.026 433.516 384.045Z" fill="white"/>
<path d="M430.702 386.325C430.815 386.344 430.936 386.323 431.037 386.258C431.233 386.132 431.278 385.887 431.137 385.71C431.09 385.651 429.974 384.26 428.635 383.8C426.852 383.188 425.634 384.175 425.582 384.217C425.405 384.364 425.393 384.613 425.556 384.773C425.718 384.932 425.994 384.943 426.172 384.796C426.206 384.77 427.058 384.101 428.326 384.535C429.422 384.91 430.419 386.155 430.428 386.167C430.496 386.254 430.595 386.307 430.702 386.325Z" fill="white"/>
<path d="M416.495 283.899C416.495 283.899 416.617 285.62 416.842 288.476C416.9 289.232 416.965 290.067 417.038 290.976C417.809 300.56 419.309 317.892 421.007 330.192C423.386 347.435 431.104 375.799 431.104 375.799L439.326 375.602L440.139 375.579L442.088 375.535C442.088 375.535 440.874 357.616 439.262 342.056C438.199 331.794 437.725 307.526 437.527 292.201C437.426 284.299 437.394 278.772 437.394 278.772L416.495 283.899Z" fill="#3C3C48"/>
<path d="M416.495 283.899C416.495 283.899 416.617 285.62 416.842 288.476C416.9 289.232 416.965 290.067 417.038 290.976C420.825 291.641 431.247 292.157 437.527 292.201C437.426 284.299 437.394 278.772 437.394 278.772L416.495 283.899Z" fill="#1A100E"/>
<path d="M432.88 288.464C432.883 289.052 433.157 344.881 439.325 375.601L440.139 375.577C433.962 344.951 433.689 289.043 433.686 288.462L432.88 288.464Z" fill="#1A100E"/>
<path d="M391.097 374.434L391.31 381.048L398.013 380.775L398.225 373.756L391.097 374.434Z" fill="#FCBB8C"/>
<path d="M393.02 380.755C393.02 380.755 391.575 379.029 390.438 379.11C389.302 379.191 380.579 385.537 377.578 386.075C374.577 386.614 375.176 388.606 375.735 389.622C376.294 390.639 399.704 389.086 399.704 389.086C399.704 389.086 400.298 382.794 399.518 380.875C398.738 378.957 395.373 381.196 393.02 380.755Z" fill="#F68AEC"/>
<path d="M388.207 385.174C388.314 385.202 388.432 385.192 388.536 385.138C388.737 385.033 388.806 384.801 388.689 384.62C388.65 384.559 387.721 383.127 386.481 382.573C384.832 381.834 383.557 382.68 383.503 382.717C383.317 382.844 383.28 383.082 383.42 383.249C383.56 383.416 383.824 383.45 384.01 383.324C384.045 383.301 384.932 382.73 386.107 383.254C387.117 383.705 387.951 384.988 387.96 385C388.017 385.089 388.106 385.148 388.207 385.174Z" fill="white"/>
<path d="M389.453 384.098C389.559 384.126 389.678 384.116 389.782 384.062C389.983 383.958 390.052 383.725 389.936 383.544C389.897 383.483 388.968 382.051 387.729 381.497C386.078 380.758 384.805 381.604 384.751 381.641C384.566 381.768 384.528 382.006 384.668 382.173C384.808 382.34 385.072 382.374 385.257 382.247C385.292 382.225 386.18 381.654 387.354 382.178C388.368 382.631 389.198 383.912 389.206 383.924C389.263 384.013 389.353 384.072 389.453 384.098Z" fill="white"/>
<path d="M386.512 386.054C386.619 386.082 386.737 386.073 386.841 386.018C387.042 385.913 387.111 385.681 386.995 385.5C386.956 385.439 386.027 384.007 384.788 383.453C383.138 382.714 381.864 383.56 381.81 383.597C381.624 383.724 381.587 383.962 381.727 384.129C381.867 384.296 382.131 384.33 382.316 384.203C382.351 384.181 383.24 383.61 384.413 384.134C385.428 384.588 386.257 385.868 386.265 385.88C386.321 385.969 386.411 386.028 386.512 386.054Z" fill="white"/>
<path d="M389.861 376.15L396.676 375.741L397.488 375.695L399.143 375.595C399.143 375.595 403.637 339.709 405.021 330.152C406.224 321.848 411.667 303.212 415.197 291.616C416.197 288.325 417.045 285.601 417.602 283.841C418.028 282.457 418.279 281.67 418.279 281.67L395.528 279.521C395.528 279.521 395.46 279.972 395.349 280.783C395.113 282.444 394.66 285.624 394.111 289.622C392.595 300.504 390.286 317.438 389.374 326.06C387.033 348.263 389.861 376.15 389.861 376.15Z" fill="#3C3C48"/>
<path d="M394.111 289.622L415.197 291.616C416.197 288.325 417.045 285.601 417.602 283.841L395.349 280.784C395.113 282.443 394.659 285.623 394.111 289.622Z" fill="#1A100E"/>
<path d="M396.677 375.741L397.489 375.696C397.98 364.593 399.429 336.863 401.997 325.122C405.226 310.321 412.542 288.789 412.617 288.57L411.843 288.356C411.768 288.574 404.44 310.145 401.207 324.982C398.621 336.799 397.162 364.66 396.677 375.741Z" fill="#1A100E"/>
<path d="M397.278 235.426C394.298 244.51 386.422 251.039 386.422 251.039C381.952 252.953 370.016 256.911 365.873 256.18C366.115 253.625 365.851 251.84 365.373 248.699C371.036 248.499 381.201 242.828 381.201 242.828C390.155 227.89 391.539 211.114 391.539 211.114C397.437 216.68 397.278 235.426 397.278 235.426Z" fill="#D7243A"/>
<path d="M440.867 269.339C440.889 269.632 440.906 269.92 440.925 270.204C441.265 275.399 441.506 279.427 441.609 281.405C436.138 283.066 430.634 284.247 425.097 284.956C424.844 284.986 424.597 285.017 424.345 285.048C424.21 285.064 424.076 285.079 423.941 285.093C423.644 285.128 423.344 285.161 423.049 285.19C422.719 285.227 422.39 285.261 422.057 285.294C418.282 285.658 414.493 285.802 410.686 285.728C409.917 285.712 409.152 285.687 408.382 285.654C408.332 285.652 408.284 285.65 408.234 285.649C408.039 285.641 407.843 285.63 407.645 285.62C407.526 285.613 407.406 285.607 407.29 285.601C402.854 285.366 398.399 284.829 393.921 283.999C393.849 283.102 393.756 281.771 393.643 280.094C393.622 279.782 393.601 279.462 393.581 279.126V279.124C393.423 276.725 393.24 273.737 393.043 270.359C393.026 270.07 393.009 269.78 392.992 269.485C392.863 267.236 392.728 264.827 392.594 262.314C392.579 262.022 392.562 261.732 392.548 261.439C392.411 258.862 392.275 256.185 392.143 253.466C392.063 251.806 391.984 250.131 391.91 248.454C391.835 246.755 391.761 245.054 391.693 243.364C391.678 242.996 391.663 242.628 391.65 242.26C391.014 226.273 390.78 211.559 391.904 209.855C392.684 208.676 394.554 207.239 396.771 205.771C397.042 205.593 397.318 205.413 397.598 205.233C398.544 204.625 406.398 201.733 407.381 201.137L415.821 200.142C415.875 200.167 424.144 202.192 424.198 202.214C424.558 202.375 424.923 202.537 425.284 202.7C428.39 204.099 431.461 205.582 433.261 206.907C433.523 207.098 433.76 207.287 433.962 207.473C434.124 207.621 434.269 207.765 434.388 207.909C434.499 208.038 434.613 208.259 434.729 208.564C435.979 211.869 437.4 225.049 438.628 239.406C438.716 240.435 438.801 241.47 438.888 242.508C438.926 242.962 438.963 243.42 439.001 243.876C439.029 244.19 439.055 244.506 439.078 244.819C439.091 244.977 439.104 245.133 439.117 245.291C439.181 246.072 439.243 246.852 439.302 247.627C439.348 248.202 439.393 248.774 439.438 249.347C439.998 256.582 440.491 263.61 440.867 269.339Z" fill="#D5FFE4"/>
<path d="M410.863 212.808C415.375 212.562 419.248 208.01 419.416 207.811C419.522 207.684 419.495 207.504 419.354 207.407C419.214 207.311 419.014 207.336 418.907 207.463C418.867 207.511 414.81 212.279 410.435 212.243C410.26 212.241 410.115 212.369 410.113 212.528C410.111 212.687 410.253 212.817 410.429 212.818C410.575 212.819 410.72 212.816 410.863 212.808Z" fill="#D7243A"/>
<path d="M418.027 261.244C418.186 261.235 418.317 261.12 418.326 260.973C418.336 260.814 418.201 260.679 418.025 260.669C406.289 260.093 400.245 242.159 400.185 241.977C400.135 241.825 399.957 241.738 399.789 241.783C399.62 241.829 399.524 241.989 399.574 242.141C399.823 242.896 405.81 260.645 417.991 261.243C418.002 261.245 418.015 261.245 418.027 261.244Z" fill="#D7243A"/>
<path d="M413.019 255.989C413.126 255.984 413.227 255.93 413.281 255.838C413.364 255.698 413.306 255.523 413.151 255.448C406.721 252.338 405.46 247.307 405.448 247.256C405.411 247.101 405.243 247 405.07 247.035C404.898 247.069 404.788 247.221 404.825 247.376C404.876 247.593 406.148 252.713 412.85 255.956C412.903 255.982 412.962 255.993 413.019 255.989Z" fill="#D7243A"/>
<path d="M422.42 183.589C422.42 183.589 423.942 182.722 423.021 179.567C422.1 176.412 424.249 175.43 422.811 173.682C421.374 171.934 420.062 171.905 419.137 169.699C418.211 167.493 412.957 166.034 409.674 167.35C406.392 168.666 401.293 166.586 399.58 168.922C396.479 173.152 398.503 174.696 397.324 175.644C395.69 176.958 396.573 185.707 399.651 186.006C402.729 186.307 422.42 183.589 422.42 183.589Z" fill="#3C3C48"/>
<path d="M400.385 185.069C400.385 185.069 398.236 182.785 396.889 184.843C395.542 186.902 398.024 192.63 401.549 191.007L400.385 185.069Z" fill="#FB927E"/>
<path d="M400.638 189.244C400.504 189.252 400.376 189.179 400.33 189.059C399.648 187.285 397.528 186.666 397.506 186.661C397.345 186.615 397.255 186.46 397.305 186.315C397.355 186.169 397.527 186.087 397.688 186.132C397.787 186.16 400.123 186.835 400.908 188.877C400.964 189.022 400.879 189.179 400.719 189.229C400.693 189.237 400.666 189.243 400.638 189.244Z" fill="#E6765D"/>
<path d="M398.486 188.449C398.429 188.452 398.371 188.441 398.317 188.414C398.17 188.339 398.117 188.171 398.2 188.037C398.214 188.016 398.547 187.491 399.293 187.14C399.442 187.069 399.628 187.122 399.707 187.257C399.785 187.392 399.727 187.559 399.577 187.629C399 187.901 398.738 188.304 398.735 188.308C398.682 188.394 398.586 188.444 398.486 188.449Z" fill="#E6765D"/>
<path d="M420.882 183.953C420.882 183.953 422.711 181.452 424.322 183.35C425.933 185.248 424.233 191.203 420.517 189.974L420.882 183.953Z" fill="#FB927E"/>
<path d="M421.186 188.127C421.32 188.12 421.437 188.033 421.467 187.91C421.907 186.076 423.93 185.232 423.951 185.224C424.105 185.161 424.174 184.997 424.105 184.858C424.036 184.719 423.854 184.657 423.7 184.719C423.605 184.758 421.376 185.681 420.868 187.793C420.832 187.942 420.937 188.09 421.103 188.122C421.131 188.126 421.159 188.128 421.186 188.127Z" fill="#E6765D"/>
<path d="M423.217 187.103C423.274 187.101 423.33 187.083 423.379 187.05C423.516 186.96 423.545 186.787 423.445 186.663C423.428 186.642 423.028 186.158 422.241 185.89C422.083 185.836 421.906 185.908 421.846 186.052C421.786 186.194 421.866 186.354 422.025 186.408C422.634 186.615 422.948 186.986 422.951 186.99C423.015 187.07 423.117 187.109 423.217 187.103Z" fill="#E6765D"/>
<path d="M416.261 195.179L416.649 200.989C416.649 200.989 414.926 204.052 412.342 204.394C409.761 204.74 407.271 202.113 407.271 202.113L406.869 196.1L416.261 195.179Z" fill="#FCBB8C"/>
<path d="M416.261 195.179L416.433 197.757C414.807 199.596 411.74 200.2 407.118 199.839L406.868 196.1L416.261 195.179Z" fill="#FB927E"/>
<path d="M422.053 179.89C422.086 182.154 422.037 184.991 421.709 187.273V187.279C421.709 187.286 421.707 187.292 421.706 187.301C421.706 187.303 421.704 187.303 421.704 187.305C421.623 187.863 421.525 188.388 421.412 188.862C421.344 189.14 421.269 189.431 421.183 189.73C419.945 194.134 416.826 200.578 407.745 198.202C403.921 197.201 401.738 193.82 400.492 190.092C400.419 189.869 400.349 189.649 400.286 189.437C400.243 189.295 400.202 189.158 400.164 189.023L400.107 188.823C400.098 188.789 400.091 188.766 400.088 188.75C400.085 188.741 400.085 188.738 400.085 188.738C399.304 185.861 399.018 182.925 398.921 180.821C398.823 178.675 399.991 176.644 401.988 175.476C407.397 172.306 413.381 173.054 417.364 174.191C420.129 174.98 422.018 177.278 422.053 179.89Z" fill="#FCBB8C"/>
<path d="M415.738 184.451C415.78 185.071 415.459 185.593 415.021 185.617C414.584 185.64 414.196 185.157 414.155 184.537C414.114 183.917 414.434 183.395 414.871 183.371C415.308 183.347 415.696 183.831 415.738 184.451Z" fill="#3C3C48"/>
<path d="M406.124 184.974C406.165 185.595 405.845 186.116 405.408 186.14C404.971 186.164 404.583 185.68 404.542 185.061C404.5 184.44 404.821 183.918 405.258 183.894C405.695 183.87 406.083 184.354 406.124 184.974Z" fill="#3C3C48"/>
<path d="M418.047 180.807C418.047 180.807 414.843 179.486 412.266 180.349L412.444 181.625C412.444 181.625 416.158 181.517 417.981 182.287C418.177 181.808 418.23 181.317 418.047 180.807Z" fill="#3C3C48"/>
<path d="M402.4 181.533C402.4 181.533 405.519 180.006 408.175 180.713L408.093 182.007C408.093 182.007 404.352 182.129 402.578 183.016C402.345 182.547 402.255 182.057 402.4 181.533Z" fill="#3C3C48"/>
<path d="M411.034 189.742C411.55 189.714 412.05 189.505 412.128 189.471C412.28 189.406 412.345 189.241 412.271 189.103C412.198 188.965 412.014 188.907 411.862 188.973C411.592 189.089 410.94 189.284 410.642 189.144C410.585 189.117 410.505 189.062 410.474 188.895C410.299 187.937 410.376 184.691 410.376 184.658C410.38 184.506 410.246 184.379 410.076 184.376C409.906 184.372 409.767 184.494 409.763 184.647C409.76 184.782 409.685 187.978 409.869 188.986C409.938 189.366 410.174 189.549 410.359 189.636C410.562 189.73 410.8 189.755 411.034 189.742Z" fill="#FB927E"/>
<path d="M407.33 192.055C407.633 193.096 408.534 194.993 411.136 194.853C413.743 194.711 414.356 192.899 414.526 191.664L407.33 192.055Z" fill="white"/>
<path d="M422.054 179.889C422.085 182.153 422.035 184.989 421.709 187.272L420.335 187.26C420.335 187.26 420.539 185.335 420.609 184.085C420.679 182.835 420.784 180.498 419.589 180.273C418.398 180.05 418.909 177.364 417.201 176.304C415.493 175.241 411.824 175.124 409.508 176.591C407.192 178.055 404.386 176.768 403.293 177.06C402.198 177.349 400.784 178.812 401.278 180.078C401.774 181.342 400.602 182.192 400.395 183.542C400.187 184.891 401.376 188.427 401.376 188.427L400.085 188.735C399.303 185.858 399.018 182.924 398.92 180.821C398.822 178.675 399.989 176.644 401.987 175.474C407.398 172.305 413.381 173.051 417.364 174.189C420.129 174.979 422.018 177.278 422.054 179.889Z" fill="#3C3C48"/>
<path d="M423.937 224.41L431.011 217.78H374.419L367.23 224.516L423.937 224.41Z" fill="#3C3C48"/>
<path d="M422.966 228.096L420.239 207.172C420.177 206.694 419.697 206.353 419.168 206.409L386.678 209.854C386.149 209.91 385.77 210.343 385.832 210.82L388.559 231.745C388.621 232.222 389.101 232.564 389.63 232.508L422.12 229.063C422.65 229.006 423.029 228.574 422.966 228.096Z" fill="#E3E5E8"/>
<path d="M386.772 211.32L389.344 231.059C389.345 231.066 389.346 231.074 389.347 231.082C389.408 231.445 389.778 231.702 390.186 231.658L421.361 228.353C421.595 228.327 421.793 228.209 421.911 228.042C422.002 227.913 422.047 227.756 422.026 227.593L419.454 207.855C419.405 207.479 419.028 207.211 418.612 207.255L387.437 210.561C387.021 210.605 386.723 210.945 386.772 211.32Z" fill="#4E9FFD"/>
<path d="M394.269 220.086C394.629 222.85 397.405 224.827 400.469 224.502C403.533 224.178 405.725 221.674 405.365 218.91C405.005 216.146 402.229 214.169 399.165 214.494C396.101 214.82 393.909 217.323 394.269 220.086Z" fill="#D7243A"/>
<path d="M388.706 226.157L389.348 231.082C389.409 231.445 389.779 231.702 390.187 231.659L406.813 229.896L394.202 215.02L389.98 223.574L388.706 226.157Z" fill="#1A100E"/>
<path d="M395.868 231.058L421.361 228.355C421.596 228.33 421.793 228.21 421.911 228.045L414.31 219.433L406.505 210.591L401.186 220.824L395.868 231.058Z" fill="#3C3C48"/>
<path d="M411.566 216.323L407.686 219.647L403.058 217.225L406.506 210.591L411.566 216.323Z" fill="white"/>
<path d="M398.494 220.083L395.244 223.016L391.328 220.843L394.202 215.02L398.494 220.083Z" fill="white"/>
<path d="M385.964 235.772L397.015 216.8C397.211 216.464 397.067 216.047 396.694 215.869L367.378 201.976C367.004 201.799 366.542 201.928 366.346 202.265L355.295 221.237C355.099 221.574 355.242 221.991 355.616 222.168L384.932 236.061C385.306 236.238 385.768 236.109 385.964 235.772Z" fill="#E3E5E8"/>
<path d="M366.713 203.319L356.465 220.912C356.461 220.919 356.457 220.926 356.453 220.933C356.276 221.264 356.42 221.664 356.784 221.837L384.572 235.006C384.781 235.105 385.018 235.108 385.22 235.03C385.376 234.971 385.511 234.863 385.596 234.718L395.844 217.125C396.039 216.79 395.896 216.376 395.525 216.2L367.737 203.031C367.367 202.855 366.908 202.984 366.713 203.319Z" fill="#06FDEE"/>
<path d="M367.405 214.372C365.97 216.835 367.021 219.881 369.752 221.176C372.483 222.47 375.86 221.522 377.295 219.059C378.73 216.595 377.679 213.549 374.948 212.255C372.217 210.961 368.84 211.909 367.405 214.372Z" fill="#D7243A"/>
<path d="M359.011 216.544L356.453 220.934C356.276 221.266 356.42 221.666 356.784 221.838L371.604 228.861L370.524 210.159L361.68 215.063L359.011 216.544Z" fill="#1A100E"/>
<path d="M361.849 224.237L384.572 235.006C384.781 235.106 385.019 235.108 385.221 235.031L384.347 224.052L383.45 212.778L372.649 218.508L361.849 224.237Z" fill="#3C3C48"/>
<path d="M384.032 220.087L378.749 220.85L376.448 216.494L383.451 212.778L384.032 220.087Z" fill="white"/>
<path d="M370.892 216.525L366.373 217.287L364.504 213.497L370.524 210.159L370.892 216.525Z" fill="white"/>
<path d="M423.919 224.409H367.646V271.674H423.919V224.409Z" fill="#1A100E"/>
<path d="M412.3 271.673H356.027V224.302L412.3 224.409V271.673Z" fill="#3C3C48"/>
<path d="M356.029 224.303L348.521 217.673H405.113L412.301 224.41L356.029 224.303Z" fill="#1A100E"/>
<path d="M409.565 265.695L408.209 266.211C406.997 266.673 405.775 266.38 404.774 265.61C404.332 265.27 403.635 264.604 403.283 264.418C402.292 263.897 399.964 263.275 399.298 263.484C398.631 263.691 399.26 264.733 399.941 265.036C400.622 265.338 401.628 265.67 402.33 266.196C403.032 266.722 400.114 269.442 398.818 270.31C397.522 271.178 394.659 271.444 394.918 272.617C395.177 273.792 397.153 273.226 397.153 273.226C397.153 273.226 397.051 274.411 399.007 274.617C399.007 274.617 399.171 275.678 400.43 275.797C400.43 275.797 400.879 277.048 402.213 276.915C403.547 276.782 407.698 276.342 413.096 269.609L409.565 265.695Z" fill="#FCBB8C"/>
<path d="M409.16 265.027C409.16 265.027 428.653 251.488 434.982 244.245C434.982 244.245 434.187 235.397 433.229 228.31C432.609 223.717 432.503 219.078 432.979 214.473C433.246 211.889 433.681 209.393 434.389 207.907C434.389 207.907 439.857 209.519 442.903 226.191C444.561 235.266 445.107 242.448 445.287 246.188C445.378 248.074 444.683 249.92 443.338 251.366C439.153 255.868 428.709 265.681 413.745 270.042C413.745 270.042 409.902 267.182 409.16 265.027Z" fill="#C0DDDC"/>
<path d="M354.449 246.57C354.449 246.57 358.111 247.312 359.128 248.609C360.145 249.906 355.031 249.609 355.031 249.609C355.031 249.609 361.204 250.009 361.38 251.356C361.556 252.704 355.547 252.471 355.547 252.471C355.547 252.471 359.684 253.316 359.933 254.337C360.182 255.358 355.782 255.349 355.782 255.349C355.782 255.349 358.985 256.319 359.269 257.074C359.552 257.829 355.843 258.22 353.949 257.806C352.055 257.393 353.186 255.262 353.186 255.262C353.186 255.262 352.528 253.26 353.289 252.559C353.289 252.559 352.408 250.765 352.962 249.753C352.962 249.753 351.998 246.821 354.449 246.57Z" fill="#FCBB8C"/>
<path d="M104.391 323.421C104.391 323.421 124.553 333.947 131.461 334.497C134.493 334.739 137.209 334.284 139.123 333.724C139.766 333.537 141.369 332.874 141.458 332.843C141.466 332.84 141.473 332.84 141.473 332.84C148.172 329.754 155.649 325.145 164.437 317.972L161.162 314.166C161.162 314.166 155.442 317.387 148.044 320.368C145.315 321.465 138.962 323.852 136.714 324.984C136.025 324.939 135.338 324.87 134.657 324.776C122.116 323.111 111.007 314.99 111.007 314.99C108.143 317.2 105.18 320.549 104.391 323.421Z" fill="#FCBB8C"/>
<path d="M160.764 313.909C160.764 313.909 160.881 310.165 162.458 308.59C164.035 307.015 168.271 301.902 169.855 302.496C171.439 303.09 173.099 307.896 169.706 313.482C167.544 317.041 164.302 317.983 164.302 317.983L160.764 313.909Z" fill="#FCBB8C"/>
<path d="M171.424 305.385L166.004 314.996C165.801 315.359 165.274 315.617 164.826 315.575L158.91 315.031C158.726 315.013 158.584 314.949 158.495 314.852L158.469 314.819L157.916 314.142L159.066 313.248L170.198 304.585L170.802 304.118L171.387 304.833L171.429 304.882C171.436 304.888 171.439 304.893 171.439 304.901C171.528 305.032 171.527 305.206 171.424 305.385Z" fill="#1A100E"/>
<path d="M170.199 304.588L159.067 313.25L163.889 304.697C164.092 304.337 164.619 304.076 165.064 304.118L170.199 304.588Z" fill="#1F2232"/>
<path d="M164.265 314.889L158.346 314.345C157.9 314.304 157.703 313.979 157.906 313.619L163.327 304.008C163.53 303.648 164.056 303.389 164.503 303.43L170.422 303.974C170.868 304.015 171.065 304.34 170.862 304.7L165.442 314.311C165.238 314.672 164.711 314.93 164.265 314.889Z" fill="#3C3C48"/>
<path d="M164.376 313.448L159.791 313.027C159.345 312.986 159.148 312.66 159.351 312.3L163.566 304.826C163.769 304.466 164.296 304.207 164.742 304.247L169.327 304.669C169.773 304.71 169.97 305.035 169.767 305.395L165.552 312.87C165.349 313.23 164.822 313.489 164.376 313.448Z" fill="#616077"/>
<path d="M171.444 304.899L171.441 304.902C171.441 304.894 171.437 304.888 171.431 304.883L171.444 304.899Z" fill="#1F2232"/>
<path d="M161.65 306.982C161.65 306.982 162.886 306.763 163.371 307.63C163.856 308.498 162.623 308.494 161.843 308.524C161.063 308.554 160.514 308.961 160.459 309.095C160.284 309.52 159.484 307.389 161.65 306.982Z" fill="#FCBB8C"/>
<path d="M168.864 310.19C168.864 310.19 169.602 306.868 170.41 304.92C170.948 303.623 172.005 304.902 171.767 306.114C171.529 307.325 171.087 309.78 168.864 310.19Z" fill="#FCBB8C"/>
<path d="M77.1717 326.879C79.1547 333.412 83.8277 345.436 86.8777 355.753C92.2907 367.861 93.8687 377.32 96.8107 382.381C96.8107 382.381 120.256 376.393 126.508 369.244L122.093 358.365C118.676 352.707 116.299 346.585 115.056 340.241C115.04 340.17 115.027 340.096 115.013 340.024C115.201 339.722 115.373 339.375 115.531 338.992C116.195 337.378 116.582 335.148 116.546 333.187C116.528 332.218 116.408 331.316 116.165 330.587C114.952 326.949 113.08 322.037 112.74 321.148V321.147L112.454 316.969C112.352 315.492 111.048 314.31 109.409 314.217L96.4147 313.47L79.5587 321.806C77.5587 322.799 76.5707 324.894 77.1717 326.879Z" fill="#8BE8E5"/>
<path d="M120.666 366.298H120.664C113.048 367.406 105.977 365.255 101.387 363.254C96.423 361.091 93.202 358.628 93.17 358.604C93.014 358.484 92.996 358.273 93.129 358.132C93.262 357.991 93.497 357.975 93.652 358.095C93.683 358.119 96.845 360.535 101.728 362.66C106.218 364.615 113.127 366.717 120.545 365.637C120.747 365.607 120.938 365.731 120.971 365.913C121.005 366.096 120.868 366.267 120.666 366.298Z" fill="#9A974A"/>
<path d="M113.164 369.817C106.56 370.806 99.35 368.396 99.022 368.284C98.83 368.22 98.733 368.027 98.805 367.853C98.877 367.68 99.091 367.593 99.283 367.657C99.368 367.686 107.851 370.519 114.604 368.849C114.804 368.798 115.006 368.904 115.06 369.083C115.114 369.261 114.998 369.446 114.8 369.495C114.262 369.628 113.715 369.735 113.164 369.817Z" fill="#83783E"/>
<path d="M94.1664 326.371C93.9934 326.397 93.8204 326.31 93.7574 326.156C93.6864 325.982 93.7854 325.79 93.9784 325.727C102.965 322.75 104.771 316.948 104.788 316.889C104.841 316.711 105.044 316.604 105.242 316.652C105.44 316.7 105.558 316.883 105.505 317.062C105.431 317.313 103.579 323.26 94.2344 326.356C94.2114 326.362 94.1884 326.368 94.1664 326.371Z" fill="#9E9B50"/>
<path d="M105.149 343.402C105.176 343.563 105.328 343.681 105.502 343.686C105.526 343.686 105.548 343.685 105.572 343.684C109.955 343.081 113.006 341.657 115.056 340.242C115.04 340.171 115.027 340.097 115.013 340.025C115.201 339.724 115.373 339.377 115.531 338.993C113.603 340.554 110.408 342.341 105.461 343.02C105.258 343.048 105.119 343.219 105.149 343.402Z" fill="#D78F24"/>
<path d="M183.425 382.451L187.555 388.905C187.555 388.905 190.629 389.208 194.169 386.983L189.506 379.37L183.425 382.451Z" fill="#FCBB8C"/>
<path d="M192.323 386.604C192.323 386.604 192.797 384.416 193.891 384.028C194.985 383.641 206.244 385.963 209.294 385.238C212.344 384.514 212.787 386.603 212.779 387.773C212.771 388.942 190.306 397.047 190.306 397.047C190.306 397.047 186.603 391.46 186.364 389.365C186.126 387.27 190.364 387.971 192.323 386.604Z" fill="#6F61C0"/>
<path d="M198.999 388.737C198.914 388.807 198.8 388.846 198.677 388.838C198.438 388.823 198.258 388.636 198.275 388.421C198.281 388.349 198.424 386.644 199.295 385.625C200.452 384.269 202.058 384.533 202.126 384.545C202.361 384.586 202.515 384.791 202.469 385.004C202.424 385.216 202.196 385.355 201.96 385.313C201.916 385.306 200.808 385.139 199.982 386.103C199.272 386.933 199.142 388.461 199.141 388.477C199.131 388.58 199.078 388.671 198.999 388.737Z" fill="white"/>
<path d="M197.303 388.246C197.218 388.316 197.104 388.355 196.981 388.347C196.742 388.332 196.562 388.145 196.579 387.929C196.585 387.857 196.728 386.152 197.599 385.133C198.758 383.776 200.362 384.041 200.43 384.053C200.665 384.094 200.819 384.299 200.773 384.512C200.728 384.724 200.5 384.863 200.264 384.821C200.22 384.814 199.111 384.647 198.286 385.611C197.574 386.445 197.446 387.969 197.445 387.985C197.436 388.088 197.383 388.18 197.303 388.246Z" fill="white"/>
<path d="M201.007 388.859C200.922 388.929 200.808 388.969 200.685 388.961C200.446 388.945 200.266 388.758 200.283 388.542C200.289 388.47 200.432 386.765 201.303 385.747C202.461 384.389 204.066 384.654 204.134 384.666C204.369 384.708 204.523 384.912 204.477 385.125C204.431 385.337 204.204 385.476 203.968 385.435C203.924 385.427 202.815 385.261 201.99 386.225C201.277 387.058 201.15 388.583 201.149 388.598C201.14 388.703 201.087 388.795 201.007 388.859Z" fill="white"/>
<path d="M125.194 374.454C125.194 374.454 145.866 338.19 159.62 342.024C168.791 344.581 190.625 380.136 190.625 380.136C189.755 380.984 185.937 383.291 183.437 383.14C183.437 383.14 164.042 369.386 158 355.524C158 355.524 146.182 380.688 126.885 382.799C125.4 382.961 121.503 378.129 125.194 374.454Z" fill="#1A100E"/>
<path d="M205.081 388.631L212.965 390.859C212.965 390.859 215.455 389.204 216.39 385.405L207.244 382.65L205.081 388.631Z" fill="#FCBB8C"/>
<path d="M214.745 386.252C214.745 386.252 213.452 384.352 213.966 383.398C214.48 382.445 224.51 377.278 226.21 374.882C227.911 372.486 229.805 373.753 230.677 374.618C231.549 375.484 221.1 395.168 221.1 395.168C221.1 395.168 214.181 393.318 212.433 391.921C210.685 390.527 214.329 388.454 214.745 386.252Z" fill="#6F61C0"/>
<path d="M221.258 383.745C221.248 383.848 221.193 383.947 221.096 384.017C220.908 384.151 220.636 384.123 220.487 383.954C220.437 383.897 219.262 382.555 219.139 381.274C218.973 379.57 220.352 378.783 220.411 378.751C220.615 378.637 220.882 378.695 221.008 378.879C221.134 379.063 221.07 379.304 220.866 379.417C220.829 379.439 219.888 379.993 220.004 381.207C220.105 382.251 221.156 383.455 221.166 383.467C221.238 383.548 221.268 383.648 221.258 383.745Z" fill="white"/>
<path d="M219.644 384.42C219.634 384.523 219.579 384.622 219.482 384.691C219.295 384.826 219.022 384.798 218.872 384.629C218.822 384.572 217.647 383.23 217.524 381.949C217.358 380.243 218.737 379.458 218.796 379.425C219 379.312 219.267 379.37 219.393 379.554C219.519 379.738 219.455 379.978 219.251 380.092C219.214 380.114 218.272 380.668 218.389 381.882C218.49 382.93 219.541 384.129 219.551 384.141C219.624 384.223 219.654 384.323 219.644 384.42Z" fill="white"/>
<path d="M222.829 382.608C222.819 382.711 222.764 382.81 222.667 382.88C222.48 383.014 222.207 382.987 222.057 382.818C222.007 382.761 220.832 381.419 220.709 380.138C220.543 378.431 221.922 377.646 221.981 377.614C222.185 377.5 222.452 377.558 222.578 377.742C222.704 377.926 222.64 378.168 222.436 378.281C222.399 378.302 221.457 378.857 221.574 380.07C221.675 381.119 222.726 382.318 222.736 382.33C222.808 382.411 222.839 382.511 222.829 382.608Z" fill="white"/>
<path d="M209.421 382.952C209.431 384.521 209.301 385.586 208.731 386.984C208.621 387.254 208.501 387.534 208.361 387.841C208.141 388.292 207.881 388.797 207.581 389.356C207.581 389.356 177.591 384.115 156.811 375.113C156.811 375.113 130.131 392.45 113.841 394.678C112.291 394.885 110.761 394.894 109.301 394.714C108.691 394.642 108.081 394.533 107.501 394.398C100.571 392.811 95.4606 387.101 95.8806 380.534C95.8806 380.534 137.581 363.604 152.881 362.512C168.171 361.412 209.421 382.952 209.421 382.952Z" fill="#3C3C48"/>
<path d="M208.731 386.985C208.621 387.255 208.501 387.535 208.361 387.842C188.661 384.135 164.621 374.799 157.521 371.939C156.521 371.534 155.361 371.696 154.551 372.345C141.811 382.538 117.161 391.883 109.301 394.715C108.691 394.643 108.081 394.535 107.501 394.399C113.131 392.415 140.331 382.511 153.881 371.669C154.991 370.785 156.581 370.568 157.921 371.11C165.031 373.978 189.111 383.332 208.731 386.985Z" fill="#1A100E"/>
<path d="M85.5095 286.707C85.5095 286.707 81.3305 290.967 80.6875 299.87C80.1635 307.121 80.8815 316.609 88.0665 316.136C95.2515 315.662 107.054 317.66 111.029 311.953C115.003 306.247 85.5095 286.707 85.5095 286.707Z" fill="#3C3C48"/>
<path d="M106.856 299.143C106.856 299.143 108.797 296.727 110.309 298.679C111.821 300.63 109.84 306.492 106.201 305.122L106.856 299.143Z" fill="#FB927E"/>
<path d="M106.957 303.31C107.091 303.308 107.212 303.227 107.247 303.104C107.774 301.296 109.828 300.536 109.849 300.528C110.005 300.471 110.082 300.311 110.019 300.17C109.957 300.028 109.779 299.96 109.623 300.016C109.527 300.05 107.263 300.881 106.656 302.963C106.613 303.11 106.71 303.261 106.874 303.3C106.902 303.307 106.93 303.311 106.957 303.31Z" fill="#E6765D"/>
<path d="M109.028 302.372C109.085 302.371 109.142 302.356 109.192 302.326C109.332 302.241 109.37 302.071 109.276 301.943C109.26 301.923 108.886 301.425 108.115 301.127C107.961 301.067 107.781 301.132 107.714 301.272C107.648 301.412 107.72 301.574 107.875 301.634C108.471 301.864 108.766 302.246 108.768 302.25C108.828 302.33 108.927 302.374 109.028 302.372Z" fill="#E6765D"/>
<path d="M91.9404 310.279L92.0454 316.077C92.0454 316.077 94.0154 319.002 96.6114 319.164C99.2044 319.33 101.456 316.549 101.456 316.549L101.347 310.547L91.9404 310.279Z" fill="#FCBB8C"/>
<path d="M91.9404 310.279L91.9874 312.852C93.7584 314.567 96.8584 315.138 101.418 314.462L101.348 310.548L91.9404 310.279Z" fill="#FB927E"/>
<path d="M84.8937 295.489C85.0537 297.741 85.3427 300.555 85.8607 302.801C85.9897 303.361 86.1337 303.888 86.2927 304.36C87.7227 308.612 91.2397 315.888 100.656 312.697C104.815 311.288 106.678 307.057 107.464 302.769C107.998 299.857 108.033 296.923 107.952 294.827C107.867 292.687 106.537 290.75 104.454 289.727C98.8107 286.95 92.9307 288.103 89.0707 289.507C86.3907 290.481 84.7087 292.894 84.8937 295.489Z" fill="#FCBB8C"/>
<path d="M101.125 299.569C101.136 300.187 101.499 300.684 101.935 300.677C102.371 300.671 102.716 300.164 102.705 299.545C102.694 298.926 102.331 298.429 101.895 298.437C101.459 298.443 101.114 298.95 101.125 299.569Z" fill="#3C3C48"/>
<path d="M91.3714 299.713C91.3824 300.332 91.7454 300.829 92.1814 300.822C92.6174 300.815 92.9624 300.308 92.9514 299.69C92.9404 299.071 92.5774 298.574 92.1414 298.581C91.7044 298.587 91.3594 299.094 91.3714 299.713Z" fill="#3C3C48"/>
<path d="M103.1 296.202C102.441 296.044 101.111 295.778 99.7131 295.795C99.3451 295.799 99.0691 296.099 99.1401 296.423L99.1421 296.432C99.1991 296.691 99.4601 296.873 99.7541 296.855C100.704 296.801 103.203 296.885 104.39 297.298C104.411 297.113 104.286 296.912 104.111 296.736C103.845 296.469 103.485 296.294 103.1 296.202Z" fill="#3C3C48"/>
<path d="M90.338 296.415C90.991 296.239 92.311 295.934 93.709 295.909C94.077 295.903 94.3641 296.193 94.3051 296.521L94.3031 296.529C94.2561 296.791 94.0011 296.979 93.7071 296.971C92.7551 296.945 90.2611 297.103 89.0901 297.551C89.0621 297.367 89.18 297.162 89.348 296.98C89.603 296.704 89.957 296.518 90.338 296.415Z" fill="#3C3C48"/>
<path d="M96.6223 304.75C96.8563 304.746 97.0903 304.705 97.2833 304.597C97.4603 304.498 97.6783 304.3 97.7153 303.918C97.8133 302.904 97.4683 299.735 97.4533 299.6C97.4373 299.449 97.2873 299.338 97.1193 299.353C96.9513 299.368 96.8293 299.503 96.8453 299.654C96.8493 299.687 97.1993 302.907 97.1063 303.869C97.0903 304.037 97.0153 304.097 96.9603 304.128C96.6763 304.287 96.0113 304.139 95.7333 304.042C95.5763 303.986 95.3993 304.057 95.3383 304.199C95.2773 304.34 95.3543 304.5 95.5123 304.555C95.5923 304.584 96.1063 304.757 96.6223 304.75Z" fill="#FB927E"/>
<path d="M100.531 306.432C100.319 307.482 99.5869 309.422 97.0019 309.46C94.4109 309.498 93.6519 307.748 93.3809 306.537L100.531 306.432Z" fill="white"/>
<path d="M97.0674 311.065C97.8134 311.055 98.4654 310.682 98.4924 310.667C98.6344 310.585 98.6754 310.414 98.5844 310.286C98.4934 310.158 98.3054 310.121 98.1634 310.202C98.1584 310.205 97.6264 310.506 97.0574 310.514C96.4414 310.523 95.8844 310.237 95.8794 310.235C95.7334 310.159 95.5464 310.203 95.4624 310.335C95.3774 310.466 95.4274 310.634 95.5724 310.711C95.6004 310.726 96.2774 311.077 97.0674 311.065Z" fill="#FB927E"/>
<path d="M86.4008 299.446C86.4008 299.446 84.3728 297.088 82.9328 299.084C81.4928 301.08 83.6848 306.88 87.2728 305.403L86.4008 299.446Z" fill="#FCBB8C"/>
<path d="M85.004 305.567C85.011 305.923 85.336 306.207 85.731 306.202C86.126 306.196 86.441 305.903 86.435 305.546C86.428 305.19 86.103 304.906 85.708 304.911C85.312 304.917 84.997 305.211 85.004 305.567Z" fill="white"/>
<path d="M86.4504 303.613C86.3174 303.615 86.1933 303.537 86.1523 303.416C85.5593 301.625 83.4793 300.926 83.4583 300.919C83.3003 300.867 83.2173 300.708 83.2753 300.566C83.3323 300.423 83.5073 300.349 83.6653 300.4C83.7623 300.432 86.0553 301.196 86.7383 303.258C86.7863 303.405 86.6944 303.558 86.5334 303.601C86.5054 303.609 86.4784 303.613 86.4504 303.613Z" fill="#FB927E"/>
<path d="M84.3481 302.736C84.2911 302.737 84.2341 302.724 84.1821 302.695C84.0391 302.615 83.9951 302.445 84.0841 302.315C84.0991 302.294 84.4551 301.785 85.2151 301.465C85.3671 301.4 85.5491 301.46 85.6211 301.597C85.6921 301.735 85.6261 301.898 85.4741 301.963C84.8871 302.211 84.6061 302.601 84.6031 302.606C84.5461 302.69 84.4481 302.735 84.3481 302.736Z" fill="#FB927E"/>
<path d="M83.6559 295.059C83.7589 295.309 84.0339 295.466 84.3999 295.556C84.3849 296.164 84.4687 296.894 84.5477 297.593C84.9967 301.568 86.1229 302.251 86.3569 301.263C86.5109 300.606 86.4329 296.857 86.3309 295.636C87.2019 295.571 87.9449 295.43 87.9449 295.43L88.8979 291.55L89.3257 295.362C90.8697 295.821 94.4389 294.997 94.4389 294.997L95.5709 291.169L96.3807 294.824C98.7017 295.802 101.569 295.086 101.569 295.086L102.159 291.123L103.758 295.053C103.758 295.053 108.7 296.571 108.725 294.98C108.741 294.055 107.942 291.461 107.271 289.451C106.539 287.26 104.902 285.425 102.715 284.407C96.5667 281.546 90.1509 283.211 87.9609 284.435C83.3179 287.027 83.6559 295.059 83.6559 295.059Z" fill="#3C3C48"/>
<path d="M105.867 286.7C105.867 286.7 109.991 290.979 111.462 298.71C112.933 306.441 112.837 311.672 109.067 313.836C103.676 316.932 104.577 311.94 104.63 310.395C104.683 308.85 109.373 304.559 105.976 292.721C104.879 288.899 105.867 286.7 105.867 286.7Z" fill="#3C3C48"/>
<path d="M77.0981 324.814C77.0981 324.814 75.2721 332.695 73.2051 340.258C72.8551 341.543 72.5021 342.851 72.1531 344.157C70.6841 349.64 69.3151 355.051 68.7051 358.255C67.3691 365.271 67.5101 378.476 67.5971 382.779L73.1631 382.602C73.4721 377.665 77.7751 362.276 77.6161 357.56L78.2511 355.34L80.5731 347.213L84.2091 334.486C84.2091 334.486 83.6941 324.717 77.0981 324.814Z" fill="#FCBB8C"/>
<path d="M73.3065 381.259C71.1265 381.11 65.3055 381.295 62.9805 382.004C59.8135 382.97 57.9225 385.281 55.8015 385.79C53.6795 386.299 55.9045 387.592 60.2775 386.658C64.1295 385.836 67.3175 385.221 67.5135 386.04C67.7085 386.862 63.4015 386.397 62.0915 387.617C60.7805 388.836 64.2395 388.707 66.4785 388.979C67.9185 389.152 69.0225 389.006 71.1465 388.266C72.6445 387.745 72.9375 386.629 73.0105 384.74L73.3065 381.259Z" fill="#FCBB8C"/>
<path d="M353.067 390.737H334.214C331.65 390.737 329.378 389.247 328.586 387.047L320.591 364.85C320.264 363.942 320.966 362.998 322.022 362.924C336.579 361.907 350.993 361.905 365.265 362.922C366.319 362.996 367.02 363.94 366.693 364.847L358.697 387.047C357.903 389.247 355.631 390.737 353.067 390.737Z" fill="#3C3C48"/>
<path d="M343.77 365.605C355.504 365.605 365.017 365.126 365.017 364.536C365.017 363.946 355.504 363.467 343.77 363.467C332.035 363.467 322.521 363.946 322.521 364.536C322.521 365.126 332.035 365.605 343.77 365.605Z" fill="#1A100E"/>
<path d="M342.644 324.08V364.407C343.364 364.588 344.039 364.588 344.636 364.407V324.08C344.636 323.584 344.19 323.182 343.64 323.182C343.09 323.181 342.644 323.584 342.644 324.08Z" fill="#C0DDDC"/>
<path d="M343.377 335.459C343.377 335.459 353.546 344.148 365.179 327.221C365.179 327.221 345.033 323.582 343.377 335.459Z" fill="#D5FFE4"/>
<path d="M344.316 328.174C344.316 328.174 355.695 320.804 339.458 307.308C339.458 307.308 331.697 324.467 344.316 328.174Z" fill="#D5FFE4"/>
<path d="M344.08 350.615C344.08 350.615 355.437 358.012 364.477 339.841C364.477 339.841 343.974 338.646 344.08 350.615Z" fill="#D5FFE4"/>
<path d="M343.64 357.122C343.64 357.122 343.24 344.492 321.752 349.072C321.752 349.072 333.171 364.479 343.64 357.122Z" fill="#D5FFE4"/>
<path d="M344.674 339.126C344.674 339.126 344.617 326.491 323.011 330.594C323.011 330.594 334.008 346.248 344.674 339.126Z" fill="#D5FFE4"/>
<path d="M385.644 71.4966C385.644 72.3355 385.265 73.1013 384.647 73.6551C384.037 74.2125 383.189 74.5544 382.258 74.5544H309.796C307.935 74.5544 306.41 73.1788 306.41 71.4966C306.41 70.6568 306.789 69.8919 307.407 69.3381C308.017 68.7807 308.865 68.4388 309.796 68.4388H313.221C314.574 65.6038 317.698 63.6221 321.333 63.6221C323.78 63.6221 325.993 64.5214 327.596 65.971C329.731 62.7057 333.668 60.512 338.175 60.512C339.414 60.512 340.607 60.6816 341.733 60.9883C344.09 56.9897 348.751 54.2666 354.123 54.2666C360.574 54.2666 366.001 58.1957 367.639 63.5419C368.828 63.0061 370.169 62.6994 371.592 62.6994C375.615 62.6994 379.009 65.1222 380.076 68.4406H382.258C384.12 68.4388 385.644 69.8144 385.644 71.4966Z" fill="#E3E5E8"/>
<path d="M455 39.5885C455 40.25 454.694 40.854 454.195 41.2908C453.702 41.7304 453.017 42 452.265 42H393.735C392.232 42 391 40.9152 391 39.5885C391 38.9262 391.306 38.323 391.805 37.8862C392.298 37.4466 392.983 37.177 393.735 37.177H396.501C397.594 34.9411 400.118 33.3783 403.054 33.3783C405.03 33.3783 406.818 34.0875 408.113 35.2307C409.837 32.6555 413.017 30.9255 416.658 30.9255C417.658 30.9255 418.622 31.0592 419.532 31.3011C421.435 28.1476 425.2 26 429.539 26C434.75 26 439.134 29.0987 440.457 33.315C441.417 32.8924 442.5 32.6505 443.65 32.6505C446.899 32.6505 449.641 34.5613 450.503 37.1784H452.265C453.769 37.177 455 38.2618 455 39.5885Z" fill="#E3E5E8"/>
<path d="M94.458 54.5421C94.458 55.5425 94.006 56.4553 93.27 57.1146C92.543 57.7794 91.532 58.1871 90.422 58.1871H4.036C1.817 58.1871 0 56.5473 0 54.5421C0 53.5418 0.452003 52.629 1.189 51.9696C1.916 51.3049 2.928 50.8972 4.037 50.8972H8.12C9.733 47.5174 13.457 45.1541 17.791 45.1541C20.709 45.1541 23.347 46.2257 25.258 47.9539C27.803 44.0609 32.496 41.446 37.87 41.446C39.347 41.446 40.769 41.6481 42.111 42.0134C44.921 37.2463 50.477 34 56.882 34C64.573 34 71.042 38.6841 72.995 45.0567C74.412 44.4181 76.011 44.0519 77.707 44.0519C82.503 44.0519 86.549 46.9401 87.821 50.8963H90.422C92.64 50.8972 94.458 52.537 94.458 54.5421Z" fill="#E3E5E8"/>
<path d="M275 31.2734C275 32.845 274.454 34.2791 273.566 35.315C272.689 36.3595 271.469 37 270.129 37H165.871C163.193 37 161 34.4237 161 31.2734C161 29.7018 161.546 28.2677 162.435 27.2318C163.312 26.1874 164.534 25.5469 165.872 25.5469H170.8C172.747 20.2369 177.241 16.5241 182.472 16.5241C185.993 16.5241 189.177 18.2076 191.484 20.9228C194.555 14.8065 200.219 10.6983 206.705 10.6983C208.487 10.6983 210.204 11.0157 211.823 11.5897C215.215 4.1002 221.92 -1 229.65 -1C238.932 -1 246.74 6.35909 249.097 16.371C250.807 15.3677 252.737 14.7924 254.783 14.7924C260.572 14.7924 265.455 19.33 266.99 25.5454H270.129C272.806 25.5469 275 28.1232 275 31.2734Z" fill="#E3E5E8"/>
<path d="M51.0728 193.641C51.0728 195.958 48.9828 197.842 46.4148 197.842C43.8468 197.842 41.7568 195.957 41.7568 193.641C41.7568 191.324 43.8468 189.439 46.4148 189.439C48.9828 189.439 51.0728 191.325 51.0728 193.641ZM49.6108 193.641C49.6108 192.051 48.1768 190.757 46.4138 190.757C44.6508 190.757 43.2168 192.051 43.2168 193.641C43.2168 195.231 44.6508 196.525 46.4138 196.525C48.1768 196.525 49.6108 195.231 49.6108 193.641Z" fill="#6F61C0"/>
<path d="M70.0875 187.973C70.0875 190.29 67.9975 192.175 65.4295 192.175C62.8605 192.175 60.7715 190.289 60.7715 187.973C60.7715 185.656 62.8615 183.771 65.4295 183.771C67.9975 183.771 70.0875 185.656 70.0875 187.973ZM68.6265 187.973C68.6265 186.383 67.1925 185.089 65.4295 185.089C63.6665 185.089 62.2325 186.383 62.2325 187.973C62.2325 189.563 63.6665 190.857 65.4295 190.857C67.1925 190.857 68.6265 189.563 68.6265 187.973Z" fill="#D5FFE4"/>
<path d="M70.6841 169.934C70.2811 169.934 69.9531 170.229 69.9531 170.593V173.499C69.9531 173.864 70.2801 174.159 70.6841 174.159C71.0871 174.159 71.4151 173.864 71.4151 173.499V170.593C71.4141 170.229 71.0871 169.934 70.6841 169.934Z" fill="#6F61C0"/>
<path d="M70.6841 164.848C70.2811 164.848 69.9531 165.143 69.9531 165.507V168.413C69.9531 168.778 70.2801 169.073 70.6841 169.073C71.0871 169.073 71.4151 168.778 71.4151 168.413V165.507C71.4141 165.143 71.0871 164.848 70.6841 164.848Z" fill="#6F61C0"/>
<path d="M75.2071 168.845H72.312C71.908 168.845 71.5811 169.14 71.5811 169.504C71.5811 169.868 71.908 170.163 72.312 170.163H75.2071C75.6101 170.163 75.9381 169.868 75.9381 169.504C75.9371 169.14 75.6101 168.845 75.2071 168.845Z" fill="#6F61C0"/>
<path d="M69.0547 168.845H66.1597C65.7567 168.845 65.4287 169.14 65.4287 169.504C65.4287 169.868 65.7557 170.163 66.1597 170.163H69.0547C69.4587 170.163 69.7857 169.868 69.7857 169.504C69.7857 169.14 69.4587 168.845 69.0547 168.845Z" fill="#6F61C0"/>
<path d="M50.9371 174.59C50.5341 174.59 50.2061 174.885 50.2061 175.249V178.156C50.2061 178.521 50.5331 178.816 50.9371 178.816C51.3411 178.816 51.6681 178.521 51.6681 178.156V175.249C51.6681 174.885 51.3411 174.59 50.9371 174.59Z" fill="#D5FFE4"/>
<path d="M50.9371 169.504C50.5341 169.504 50.2061 169.799 50.2061 170.163V173.07C50.2061 173.434 50.5331 173.729 50.9371 173.729C51.3411 173.729 51.6681 173.434 51.6681 173.07V170.163C51.6681 169.799 51.3411 169.504 50.9371 169.504Z" fill="#D5FFE4"/>
<path d="M55.461 173.499H52.566C52.163 173.499 51.835 173.794 51.835 174.158C51.835 174.523 52.162 174.818 52.566 174.818H55.461C55.864 174.818 56.192 174.523 56.192 174.158C56.191 173.795 55.864 173.499 55.461 173.499Z" fill="#D5FFE4"/>
<path d="M49.3086 173.499H46.4136C46.0106 173.499 45.6826 173.794 45.6826 174.158C45.6826 174.523 46.0096 174.818 46.4136 174.818H49.3086C49.7116 174.818 50.0396 174.523 50.0396 174.158C50.0396 173.795 49.7126 173.499 49.3086 173.499Z" fill="#D5FFE4"/>
<path d="M444.772 196.187C444.772 198.504 442.682 200.388 440.114 200.388C437.546 200.388 435.456 198.503 435.456 196.187C435.456 193.87 437.546 191.985 440.114 191.985C442.682 191.985 444.772 193.871 444.772 196.187ZM443.31 196.187C443.31 194.597 441.876 193.303 440.113 193.303C438.35 193.303 436.916 194.597 436.916 196.187C436.916 197.777 438.35 199.071 440.113 199.071C441.876 199.071 443.31 197.777 443.31 196.187Z" fill="#A084E8"/>
<path d="M463.787 190.519C463.787 192.835 461.697 194.72 459.129 194.72C456.56 194.72 454.471 192.835 454.471 190.519C454.471 188.202 456.561 186.317 459.129 186.317C461.697 186.317 463.787 188.202 463.787 190.519ZM462.326 190.519C462.326 188.929 460.892 187.635 459.129 187.635C457.366 187.635 455.932 188.929 455.932 190.519C455.932 192.109 457.366 193.403 459.129 193.403C460.891 193.403 462.326 192.109 462.326 190.519Z" fill="#8BE8E5"/>
<path d="M464.382 172.481C463.979 172.481 463.651 172.776 463.651 173.141V176.047C463.651 176.411 463.978 176.706 464.382 176.706C464.786 176.706 465.113 176.411 465.113 176.047V173.141C465.113 172.776 464.786 172.481 464.382 172.481Z" fill="#A084E8"/>
<path d="M464.382 167.394C463.979 167.394 463.651 167.689 463.651 168.053V170.959C463.651 171.324 463.978 171.619 464.382 171.619C464.786 171.619 465.113 171.324 465.113 170.959V168.053C465.113 167.689 464.786 167.394 464.382 167.394Z" fill="#A084E8"/>
<path d="M468.906 171.391H466.011C465.607 171.391 465.28 171.686 465.28 172.05C465.28 172.414 465.607 172.709 466.011 172.709H468.906C469.309 172.709 469.637 172.414 469.637 172.05C469.636 171.686 469.309 171.391 468.906 171.391Z" fill="#A084E8"/>
<path d="M462.754 171.391H459.859C459.455 171.391 459.128 171.686 459.128 172.05C459.128 172.414 459.455 172.709 459.859 172.709H462.754C463.158 172.709 463.485 172.414 463.485 172.05C463.485 171.686 463.158 171.391 462.754 171.391Z" fill="#A084E8"/>
<path d="M444.636 177.136C444.233 177.136 443.905 177.431 443.905 177.795V180.702C443.905 181.066 444.232 181.362 444.636 181.362C445.04 181.362 445.367 181.067 445.367 180.702V177.795C445.367 177.431 445.04 177.136 444.636 177.136Z" fill="#4E9EFD"/>
<path d="M444.636 172.05C444.233 172.05 443.905 172.345 443.905 172.709V175.615C443.905 175.98 444.232 176.275 444.636 176.275C445.04 176.275 445.367 175.98 445.367 175.615V172.709C445.367 172.345 445.04 172.05 444.636 172.05Z" fill="#4E9EFD"/>
<path d="M449.159 176.045H446.264C445.861 176.045 445.533 176.34 445.533 176.704C445.533 177.069 445.86 177.364 446.264 177.364H449.159C449.562 177.364 449.89 177.069 449.89 176.704C449.89 176.341 449.563 176.045 449.159 176.045Z" fill="#4E9EFD"/>
<path d="M443.008 176.045H440.113C439.709 176.045 439.382 176.34 439.382 176.704C439.382 177.069 439.709 177.364 440.113 177.364H443.008C443.412 177.364 443.739 177.069 443.739 176.704C443.739 176.341 443.411 176.045 443.008 176.045Z" fill="#4E9EFD"/>
<path d="M56.4691 255.943H65.2861C66.3121 255.943 67.1431 255.192 67.1431 254.268V225.468H72.8541C73.7391 225.468 74.1781 224.498 73.5451 223.94L68.0771 219.11L61.5701 213.363C61.1861 213.024 60.5711 213.024 60.1871 213.363L53.6801 219.11L48.2101 223.94C47.5771 224.498 48.0161 225.468 48.9011 225.468H54.6111V254.268C54.6111 255.192 55.4431 255.943 56.4691 255.943Z" fill="#E3E5E8"/>
<path d="M450.719 359.446H459.535C460.561 359.446 461.392 358.696 461.392 357.771V328.971H467.103C467.988 328.971 468.427 328.002 467.794 327.444L462.326 322.614L455.819 316.867C455.435 316.528 454.82 316.528 454.436 316.867L447.929 322.614L442.459 327.444C441.826 328.002 442.265 328.971 443.15 328.971H448.86V357.771C448.861 358.696 449.693 359.446 450.719 359.446Z" fill="#E3E5E8"/>
</g>
</g>
<defs>
<filter id="filter0_f_1305_2" x="93.5098" y="128.862" width="324.285" height="192.586" filterUnits="userSpaceOnUse" color-interpolation-filters="sRGB">
<feFlood flood-opacity="0" result="BackgroundImageFix"/>
<feBlend mode="normal" in="SourceGraphic" in2="BackgroundImageFix" result="shape"/>
<feGaussianBlur stdDeviation="1" result="effect1_foregroundBlur_1305_2"/>
</filter>
<filter id="filter1_f_1305_2" x="93.5068" y="128.864" width="324.289" height="18.7373" filterUnits="userSpaceOnUse" color-interpolation-filters="sRGB">
<feFlood flood-opacity="0" result="BackgroundImageFix"/>
<feBlend mode="normal" in="SourceGraphic" in2="BackgroundImageFix" result="shape"/>
<feGaussianBlur stdDeviation="1" result="effect1_foregroundBlur_1305_2"/>
</filter>
<clipPath id="clip0_1305_2">
<rect width="500" height="451" fill="white"/>
</clipPath>
</defs>
</svg>
