<svg width="500" height="451" viewBox="0 0 500 451" fill="none" xmlns="http://www.w3.org/2000/svg">
<g clip-path="url(#clip0_1105_2)">
<path d="M500 0H0V500H500V0Z" fill="white"/>
<path d="M254.059 443.939C376.254 443.939 475.314 437.672 475.314 429.94C475.314 422.209 376.254 415.941 254.059 415.941C131.863 415.941 32.8037 422.209 32.8037 429.94C32.8037 437.672 131.863 443.939 254.059 443.939Z" fill="#E3E5E8"/>
<path d="M407.98 342.851L409.972 343.508L411.029 343.856L414.023 344.843C414.023 344.843 458.611 308.775 447.185 287.289C443.668 280.675 433.035 281.085 427.07 303.198C421.541 323.697 407.98 342.851 407.98 342.851Z" fill="#D4D5D6"/>
<path d="M409.973 343.508L411.03 343.856C419.987 334.426 426.9 323.28 431.258 315.273C436.433 305.765 439.229 298.5 439.255 298.428C439.355 298.169 439.225 297.878 438.965 297.78C438.706 297.68 438.415 297.81 438.316 298.069C438.288 298.142 435.513 305.356 430.366 314.808C425.986 322.853 419.011 334.088 409.973 343.508Z" fill="#C6C6C6"/>
<path d="M117.122 156.76L114.67 156.806L113.369 156.83L109.685 156.898C109.685 156.898 72.3442 101.215 92.5252 81.165C98.7382 74.992 110.472 79.123 109.495 105.88C108.592 130.684 117.122 156.76 117.122 156.76Z" fill="#D4D5D6"/>
<path d="M114.671 156.806L113.37 156.83C106.623 143.204 102.752 128.369 100.65 117.92C98.1535 105.513 97.5405 96.4341 97.5355 96.3441C97.5135 96.0201 97.7595 95.7401 98.0835 95.7201C98.4075 95.6981 98.6875 95.9441 98.7095 96.2671C98.7155 96.3581 99.3235 105.374 101.808 117.708C103.921 128.207 107.831 143.163 114.671 156.806Z" fill="#C6C6C6"/>
<path d="M129.046 165.44L126.093 167.411L124.526 168.456L120.088 171.416C120.088 171.416 31.0822 132.697 40.0272 92.4941C42.7802 80.1171 60.3112 75.9901 80.0162 109.371C98.2832 140.314 129.046 165.44 129.046 165.44Z" fill="#E3E5E8"/>
<path d="M126.093 167.41L124.526 168.455C105.66 157.113 89.355 142.052 78.633 130.955C65.901 117.78 58.064 107.19 57.988 107.085C57.708 106.707 57.789 106.174 58.168 105.897C58.546 105.617 59.079 105.698 59.357 106.075C59.435 106.182 67.217 116.697 79.877 129.793C90.654 140.941 107.1 156.12 126.093 167.41Z" fill="#D4D5D6"/>
<path d="M397.637 349.79L399.831 351.89L400.995 353.003L404.293 356.157C404.293 356.157 485.03 336.785 483.477 301.589C482.999 290.754 468.847 284.668 447.28 309.855C427.289 333.202 397.637 349.79 397.637 349.79Z" fill="#E3E5E8"/>
<path d="M399.831 351.888L400.995 353.001C418.575 346.255 434.551 335.993 445.233 328.242C457.918 319.038 466.096 311.284 466.176 311.206C466.468 310.929 466.479 310.468 466.201 310.178C465.924 309.886 465.463 309.874 465.173 310.151C465.091 310.229 456.971 317.929 444.358 327.077C433.622 334.866 417.509 345.204 399.831 351.888Z" fill="#D4D5D6"/>
<path d="M467.875 151.889C464.376 161.835 454.31 161.024 454.121 169.229C453.932 177.432 448.477 183.4 441.474 181.55C434.469 179.698 429.418 177.945 425.787 185.937C422.158 193.929 411.662 197.496 407.904 190.86C406.967 189.209 405.956 187.419 404.968 185.664C404.698 185.184 404.428 184.707 404.164 184.236C404.102 184.127 404.04 184.019 403.98 183.91C400.003 176.848 401.875 167.84 408.482 163.147C411.157 161.247 414.294 160.26 417.736 161.46C428.516 165.215 425.116 154.019 431.863 149.686C439.633 144.693 445.773 151.08 451.141 146.764C458.609 140.763 471.374 141.943 467.875 151.889Z" fill="#D4D5D6"/>
<path d="M454.61 155.609L404.969 185.663C404.699 185.183 404.429 184.706 404.165 184.235L453.76 154.208C454.147 153.974 454.651 154.097 454.885 154.484C455.12 154.871 454.996 155.375 454.61 155.609Z" fill="#C6C6C6"/>
<path d="M460.754 96.1095C462.15 109.084 450.474 113.547 454.639 122.812C458.803 132.075 455.892 141.65 447.084 143.318C438.273 144.985 431.696 145.721 431.902 156.583C432.111 167.445 422.29 177.027 414.554 171.619C412.627 170.275 410.544 168.814 408.504 167.381C407.947 166.989 407.391 166.599 406.844 166.215C406.717 166.127 406.589 166.038 406.464 165.949C398.255 160.182 395.542 149.123 400.42 140.356C402.395 136.808 405.371 134.032 409.856 133.537C423.9 131.982 414.131 121.29 419.355 112.852C425.371 103.131 435.635 106.991 439.329 99.3075C444.47 88.6235 459.358 83.1345 460.754 96.1095Z" fill="#E3E5E8"/>
<path d="M447.921 107.34L408.503 167.382C407.946 166.99 407.39 166.6 406.843 166.216L446.225 106.228C446.532 105.76 447.161 105.629 447.629 105.936C448.097 106.244 448.229 106.872 447.921 107.34Z" fill="#D4D5D6"/>
<path d="M47.721 353.602C56.971 356.755 62.151 348.96 68.236 353.526C74.319 358.091 81.793 357.54 84.46 351.379C87.127 345.216 88.746 340.531 96.648 342.469C104.55 344.408 113.165 338.808 110.487 332.267C109.822 330.638 109.097 328.876 108.385 327.15C108.19 326.679 107.997 326.208 107.806 325.746C107.762 325.638 107.719 325.531 107.674 325.425C104.811 318.479 97.177 314.679 89.97 316.8C87.053 317.659 84.535 319.377 83.436 322.573C79.991 332.578 73.785 323.682 66.761 326.111C58.669 328.907 59.801 337.041 53.58 338.477C44.929 340.474 38.471 350.449 47.721 353.602Z" fill="#D4D5D6"/>
<path d="M58.0356 346.072L108.385 327.148C108.19 326.677 107.997 326.206 107.806 325.744L57.5016 344.651C57.1096 344.798 56.9096 345.236 57.0576 345.629C57.2056 346.021 57.6436 346.22 58.0356 346.072Z" fill="#C6C6C6"/>
<path d="M23.8002 316.589C32.4502 325.044 42.3942 319.1 46.7542 327.446C51.1142 335.789 59.7562 339.159 66.0212 333.7C72.2872 328.239 76.5932 323.87 84.3872 330.248C92.1792 336.627 104.788 334.967 105.285 326.233C105.411 324.059 105.542 321.703 105.667 319.395C105.701 318.765 105.736 318.137 105.769 317.519C105.778 317.376 105.786 317.231 105.793 317.089C106.299 307.804 99.7992 299.489 90.6182 298.015C86.9022 297.419 83.1732 297.994 80.2412 300.977C71.0572 310.314 68.8702 297.069 59.7292 296.037C49.2002 294.845 46.1262 304.535 38.4122 302.821C27.6832 300.438 15.1502 308.133 23.8002 316.589Z" fill="#E3E5E8"/>
<path d="M39.3371 313.682L105.667 319.396C105.701 318.766 105.736 318.137 105.769 317.519L39.4991 311.81C38.9821 311.765 38.5261 312.148 38.4821 312.665C38.4371 313.182 38.8201 313.638 39.3371 313.682Z" fill="#D4D5D6"/>
<path d="M362.936 157.958C369.506 139.793 376.218 124.691 382.922 113C391.681 97.7268 400.464 88.2748 409.029 84.9088C409.597 84.6858 410.238 84.9648 410.461 85.5328C410.684 86.1008 410.405 86.7418 409.837 86.9648C394.865 92.8498 378.805 119.26 363.347 163.389L362.936 157.958Z" fill="#D4D5D6"/>
<path d="M391.865 100.035C391.865 100.035 383.418 96.3069 390.553 81.7109C390.553 81.7109 401.865 91.0849 391.865 100.035Z" fill="#E3E5E8"/>
<path d="M387.797 107.369C387.797 107.369 391.049 98.7273 406.02 105.039C406.02 105.039 397.289 116.855 387.797 107.369Z" fill="#E3E5E8"/>
<path d="M403.422 89.3635C403.422 89.3635 403.607 80.1315 419.825 81.0915C419.825 81.0915 415.534 95.1425 403.422 89.3635Z" fill="#E3E5E8"/>
<path d="M379.158 121.872C379.158 121.872 369.947 121.221 371.725 105.072C371.725 105.072 385.541 110.067 379.158 121.872Z" fill="#E3E5E8"/>
<path d="M376.145 129.972C376.145 129.972 377.854 120.898 393.69 124.526C393.69 124.526 387.135 137.673 376.145 129.972Z" fill="#E3E5E8"/>
<path d="M370.918 140.652C370.918 140.652 361.697 140.176 363.168 123.996C363.168 123.996 377.077 128.728 370.918 140.652Z" fill="#E3E5E8"/>
<path d="M296.468 97.2625C297.957 97.9555 299.451 98.6905 300.908 99.4475C301.055 99.5245 301.213 99.5605 301.368 99.5605C301.729 99.5605 302.078 99.3645 302.256 99.0215C302.511 98.5315 302.32 97.9275 301.83 97.6735C300.347 96.9025 298.827 96.1545 297.312 95.4495C296.811 95.2155 296.216 95.4335 295.983 95.9345C295.75 96.4355 295.968 97.0295 296.468 97.2625Z" fill="#E3E5E8"/>
<path d="M305.247 101.827C306.668 102.647 308.091 103.509 309.477 104.391C309.644 104.497 309.829 104.548 310.013 104.548C310.344 104.548 310.667 104.384 310.858 104.085C311.155 103.619 311.017 103.001 310.551 102.704C309.141 101.807 307.693 100.929 306.247 100.095C305.769 99.8189 305.157 99.9829 304.881 100.462C304.604 100.939 304.768 101.551 305.247 101.827Z" fill="#E3E5E8"/>
<path d="M287.318 93.4864C288.862 94.0454 290.416 94.6474 291.935 95.2744C292.06 95.3254 292.189 95.3504 292.316 95.3504C292.709 95.3504 293.082 95.1174 293.241 94.7314C293.452 94.2214 293.209 93.6364 292.698 93.4254C291.152 92.7874 289.571 92.1744 287.999 91.6054C287.479 91.4164 286.906 91.6854 286.718 92.2054C286.53 92.7254 286.798 93.2984 287.318 93.4864Z" fill="#E3E5E8"/>
<path d="M258.435 87.1588C260.071 87.2978 261.724 87.4738 263.347 87.6828C263.39 87.6888 263.433 87.6908 263.476 87.6908C263.972 87.6908 264.402 87.3228 264.467 86.8178C264.537 86.2698 264.151 85.7688 263.603 85.6988C261.951 85.4858 260.269 85.3068 258.605 85.1658C258.054 85.1188 257.57 85.5278 257.524 86.0778C257.476 86.6288 257.884 87.1128 258.435 87.1588Z" fill="#E3E5E8"/>
<path d="M268.231 88.4194C269.846 88.6994 271.477 89.0194 273.078 89.3694C273.15 89.3854 273.222 89.3924 273.293 89.3924C273.753 89.3924 274.167 89.0734 274.269 88.6064C274.387 88.0664 274.045 87.5334 273.506 87.4154C271.876 87.0584 270.216 86.7334 268.573 86.4484C268.03 86.3544 267.511 86.7184 267.417 87.2624C267.322 87.8074 267.687 88.3254 268.231 88.4194Z" fill="#E3E5E8"/>
<path d="M313.588 107.135C314.933 108.076 316.275 109.059 317.576 110.056C317.757 110.195 317.971 110.262 318.184 110.262C318.485 110.262 318.782 110.127 318.979 109.87C319.315 109.432 319.232 108.804 318.794 108.468C317.469 107.453 316.104 106.452 314.735 105.495C314.282 105.178 313.659 105.289 313.342 105.741C313.025 106.195 313.135 106.819 313.588 107.135Z" fill="#E3E5E8"/>
<path d="M277.88 90.5303C279.466 90.9513 281.062 91.4123 282.625 91.9023C282.725 91.9333 282.825 91.9483 282.924 91.9483C283.35 91.9483 283.744 91.6743 283.878 91.2473C284.043 90.7203 283.749 90.1593 283.222 89.9943C281.631 89.4963 280.006 89.0263 278.392 88.5983C277.859 88.4563 277.311 88.7743 277.169 89.3083C277.029 89.8413 277.347 90.3883 277.88 90.5303Z" fill="#E3E5E8"/>
<path d="M325.152 116.403C325.344 116.578 325.586 116.665 325.827 116.665C326.098 116.665 326.368 116.555 326.565 116.34C326.938 115.932 326.909 115.3 326.502 114.927C325.271 113.801 323.998 112.687 322.718 111.615C322.295 111.26 321.664 111.316 321.309 111.739C320.955 112.162 321.01 112.793 321.434 113.148C322.691 114.201 323.942 115.297 325.152 116.403Z" fill="#E3E5E8"/>
<path d="M353.326 156.454C353.486 156.838 353.858 157.07 354.249 157.07C354.377 157.07 354.508 157.045 354.633 156.993C355.143 156.781 355.384 156.195 355.171 155.685C354.532 154.152 353.849 152.609 353.14 151.099C352.905 150.599 352.311 150.384 351.81 150.619C351.31 150.854 351.095 151.449 351.33 151.949C352.027 153.432 352.698 154.948 353.326 156.454Z" fill="#E3E5E8"/>
<path d="M344.186 139.002C344.377 139.3 344.699 139.463 345.029 139.463C345.214 139.463 345.4 139.412 345.567 139.305C346.032 139.007 346.168 138.389 345.87 137.924C344.972 136.521 344.03 135.119 343.07 133.755C342.752 133.303 342.128 133.195 341.677 133.513C341.225 133.831 341.117 134.455 341.435 134.906C342.377 136.245 343.303 137.623 344.186 139.002Z" fill="#E3E5E8"/>
<path d="M355.122 161.041C355.686 162.58 356.223 164.152 356.719 165.715C356.854 166.141 357.248 166.413 357.672 166.413C357.772 166.413 357.874 166.398 357.975 166.366C358.501 166.199 358.793 165.637 358.626 165.11C358.121 163.519 357.574 161.919 357 160.352C356.81 159.833 356.236 159.567 355.717 159.757C355.198 159.948 354.932 160.522 355.122 161.041Z" fill="#E3E5E8"/>
<path d="M338.507 130.931C338.704 131.187 339 131.321 339.3 131.321C339.513 131.321 339.728 131.253 339.91 131.113C340.348 130.776 340.429 130.148 340.092 129.71C339.074 128.389 338.013 127.072 336.939 125.798C336.583 125.375 335.952 125.321 335.53 125.678C335.108 126.034 335.054 126.665 335.409 127.087C336.463 128.34 337.506 129.633 338.507 130.931Z" fill="#E3E5E8"/>
<path d="M332.147 123.379C332.344 123.594 332.613 123.702 332.883 123.702C333.125 123.702 333.367 123.615 333.559 123.438C333.966 123.064 333.992 122.431 333.618 122.025C332.489 120.796 331.317 119.576 330.137 118.399C329.746 118.009 329.113 118.01 328.723 118.401C328.333 118.792 328.334 119.425 328.725 119.815C329.886 120.972 331.037 122.171 332.147 123.379Z" fill="#E3E5E8"/>
<path d="M248.564 86.75H248.566H248.75C250.33 86.75 251.929 86.783 253.505 86.848C253.519 86.849 253.533 86.849 253.547 86.849C254.08 86.849 254.523 86.428 254.546 85.89C254.569 85.338 254.14 84.872 253.588 84.85C251.985 84.784 250.358 84.75 248.751 84.75H248.563C248.011 84.751 247.564 85.2 247.565 85.752C247.565 86.304 248.013 86.75 248.564 86.75Z" fill="#E3E5E8"/>
<path d="M349.138 147.531C349.317 147.872 349.665 148.067 350.025 148.067C350.181 148.067 350.34 148.03 350.488 147.953C350.977 147.697 351.166 147.093 350.91 146.603C350.14 145.132 349.324 143.653 348.485 142.209C348.208 141.731 347.596 141.569 347.118 141.846C346.64 142.123 346.478 142.735 346.755 143.213C347.58 144.633 348.382 146.085 349.138 147.531Z" fill="#E3E5E8"/>
<path d="M167.902 120.275C168.158 120.275 168.414 120.177 168.61 119.982C169.769 118.822 170.968 117.671 172.175 116.563C172.582 116.19 172.609 115.557 172.235 115.15C171.861 114.743 171.229 114.716 170.822 115.09C169.594 116.218 168.373 117.388 167.194 118.569C166.804 118.96 166.804 119.593 167.195 119.983C167.39 120.178 167.646 120.275 167.902 120.275Z" fill="#E3E5E8"/>
<path d="M238.608 87.1932C238.637 87.1932 238.667 87.1922 238.697 87.1892C240.329 87.0462 241.987 86.9362 243.626 86.8632C244.178 86.8382 244.605 86.3712 244.581 85.8192C244.556 85.2672 244.083 84.8412 243.537 84.8642C241.869 84.9382 240.182 85.0502 238.521 85.1962C237.971 85.2442 237.564 85.7302 237.612 86.2802C237.659 86.8012 238.095 87.1932 238.608 87.1932Z" fill="#E3E5E8"/>
<path d="M161.171 127.626C161.456 127.626 161.74 127.504 161.938 127.269C162.993 126.012 164.088 124.761 165.195 123.552C165.568 123.145 165.54 122.512 165.133 122.139C164.726 121.766 164.093 121.794 163.72 122.201C162.594 123.431 161.479 124.704 160.406 125.983C160.051 126.406 160.106 127.037 160.53 127.392C160.717 127.549 160.945 127.626 161.171 127.626Z" fill="#E3E5E8"/>
<path d="M149.241 143.817C149.398 143.908 149.57 143.951 149.74 143.951C150.086 143.951 150.422 143.772 150.607 143.451C151.428 142.03 152.291 140.608 153.173 139.223C153.47 138.757 153.333 138.139 152.867 137.842C152.401 137.545 151.783 137.682 151.486 138.148C150.588 139.557 149.709 141.005 148.874 142.451C148.599 142.93 148.763 143.541 149.241 143.817Z" fill="#E3E5E8"/>
<path d="M140.227 167.527C140.373 167.038 140.521 166.551 140.673 166.067C140.838 165.54 140.545 164.979 140.018 164.814C139.49 164.648 138.93 164.942 138.765 165.469C138.551 166.15 138.344 166.838 138.142 167.527H140.227Z" fill="#E3E5E8"/>
<path d="M144.712 152.711C144.849 152.775 144.992 152.805 145.134 152.805C145.511 152.805 145.872 152.591 146.041 152.227C146.735 150.738 147.471 149.245 148.229 147.788C148.484 147.298 148.293 146.694 147.804 146.439C147.314 146.184 146.71 146.375 146.455 146.864C145.684 148.346 144.934 149.866 144.228 151.381C143.994 151.883 144.211 152.478 144.712 152.711Z" fill="#E3E5E8"/>
<path d="M140.977 161.974C141.09 162.015 141.205 162.034 141.318 162.034C141.727 162.034 142.111 161.781 142.258 161.375C142.819 159.829 143.421 158.276 144.049 156.759C144.26 156.249 144.017 155.664 143.507 155.453C142.996 155.241 142.412 155.485 142.201 155.995C141.562 157.539 140.949 159.12 140.379 160.693C140.19 161.212 140.458 161.785 140.977 161.974Z" fill="#E3E5E8"/>
<path d="M154.529 135.357C154.704 135.479 154.904 135.538 155.102 135.538C155.417 135.538 155.728 135.389 155.922 135.111C156.863 133.767 157.847 132.426 158.845 131.124C159.181 130.686 159.098 130.058 158.66 129.722C158.222 129.386 157.594 129.469 157.258 129.907C156.242 131.231 155.241 132.596 154.283 133.964C153.966 134.417 154.076 135.041 154.529 135.357Z" fill="#E3E5E8"/>
<path d="M209.505 93.6686C209.619 93.6686 209.735 93.6486 209.848 93.6076C211.389 93.0436 212.962 92.5076 214.523 92.0136C215.05 91.8466 215.341 91.2846 215.175 90.7586C215.008 90.2326 214.447 89.9406 213.92 90.1076C212.331 90.6106 210.73 91.1566 209.162 91.7306C208.643 91.9206 208.377 92.4946 208.566 93.0136C208.714 93.4176 209.098 93.6686 209.505 93.6686Z" fill="#E3E5E8"/>
<path d="M219.004 90.6617C219.09 90.6617 219.177 90.6507 219.264 90.6267C220.848 90.2007 222.462 89.8047 224.061 89.4487C224.6 89.3287 224.94 88.7947 224.82 88.2557C224.7 87.7167 224.167 87.3767 223.627 87.4967C221.999 87.8587 220.356 88.2617 218.745 88.6957C218.212 88.8387 217.896 89.3877 218.039 89.9207C218.159 90.3677 218.562 90.6617 219.004 90.6617Z" fill="#E3E5E8"/>
<path d="M175.241 113.537C175.468 113.537 175.697 113.46 175.884 113.302C177.138 112.247 178.433 111.205 179.73 110.206C180.168 109.869 180.249 109.241 179.912 108.804C179.575 108.366 178.947 108.285 178.51 108.622C177.189 109.639 175.873 110.698 174.596 111.772C174.173 112.128 174.119 112.758 174.475 113.181C174.673 113.416 174.956 113.537 175.241 113.537Z" fill="#E3E5E8"/>
<path d="M228.731 88.4984C228.789 88.4984 228.847 88.4934 228.906 88.4834C230.519 88.1984 232.161 87.9454 233.788 87.7304C234.336 87.6584 234.721 87.1554 234.649 86.6084C234.577 86.0604 234.075 85.6734 233.527 85.7474C231.872 85.9664 230.2 86.2233 228.559 86.5143C228.015 86.6103 227.652 87.1293 227.748 87.6733C227.833 88.1573 228.255 88.4984 228.731 88.4984Z" fill="#E3E5E8"/>
<path d="M200.329 97.4899C200.471 97.4899 200.616 97.4599 200.753 97.3949C202.235 96.7009 203.751 96.0299 205.26 95.4019C205.77 95.1899 206.011 94.6039 205.799 94.0949C205.587 93.5849 205.002 93.3429 204.492 93.5559C202.956 94.1949 201.413 94.8779 199.905 95.5839C199.405 95.8179 199.189 96.4139 199.424 96.9139C199.593 97.2769 199.953 97.4899 200.329 97.4899Z" fill="#E3E5E8"/>
<path d="M183.132 107.462C183.331 107.462 183.531 107.403 183.706 107.28C185.046 106.338 186.425 105.413 187.804 104.531C188.269 104.233 188.405 103.615 188.107 103.15C187.809 102.685 187.191 102.549 186.726 102.847C185.323 103.745 183.92 104.686 182.556 105.645C182.104 105.962 181.995 106.586 182.313 107.038C182.507 107.313 182.817 107.462 183.132 107.462Z" fill="#E3E5E8"/>
<path d="M191.516 102.098C191.686 102.098 191.859 102.054 192.017 101.963C193.434 101.141 194.887 100.34 196.336 99.5823C196.825 99.3263 197.015 98.7223 196.759 98.2323C196.503 97.7433 195.898 97.5533 195.409 97.8093C193.934 98.5803 192.455 99.3963 191.013 100.232C190.535 100.509 190.373 101.121 190.65 101.599C190.836 101.919 191.171 102.098 191.516 102.098Z" fill="#E3E5E8"/>
<path d="M312.094 107.371C312.094 110.913 310.645 114.133 308.311 116.467C305.977 118.801 302.757 120.25 299.215 120.25H206.377C199.293 120.25 193.498 114.454 193.498 107.371C193.498 105.868 193.761 104.42 194.239 103.078C194.888 101.253 195.94 99.617 197.282 98.275C199.015 96.542 201.237 95.296 203.716 94.771C204.417 74.346 221.198 58 241.794 58C255.269 58 267.113 64.998 273.885 75.559C275.779 74.958 277.797 74.636 279.895 74.636C280.544 74.636 281.183 74.668 281.811 74.727C291.878 75.693 299.751 84.172 299.751 94.491C299.751 94.496 299.751 94.496 299.751 94.502C306.588 94.786 312.094 100.47 312.094 107.371Z" fill="#FD4E5A"/>
<path d="M260.001 87.1248C259.489 87.1248 258.977 86.9298 258.587 86.5388L249.501 77.4528L240.54 86.4138C239.759 87.1948 238.493 87.1948 237.712 86.4138C236.931 85.6328 236.931 84.3667 237.712 83.5857L248.087 73.2107C248.868 72.4297 250.134 72.4297 250.916 73.2107L261.416 83.7107C262.197 84.4917 262.197 85.7578 261.416 86.5388C261.025 86.9298 260.513 87.1248 260.001 87.1248Z" fill="white"/>
<path d="M249.501 109.75C248.396 109.75 247.501 108.855 247.501 107.75V74.625C247.501 73.52 248.396 72.625 249.501 72.625C250.605 72.625 251.501 73.52 251.501 74.625V107.75C251.501 108.855 250.605 109.75 249.501 109.75Z" fill="white"/>
<path d="M424.766 142.49V356.747C424.766 360.332 421.861 363.237 418.276 363.237H93.0271C89.4421 363.237 86.5371 360.332 86.5371 356.747V142.49C86.5371 138.905 89.4421 136 93.0271 136H418.276C421.861 136 424.766 138.905 424.766 142.49Z" fill="#3C3C48"/>
<path d="M415.795 151.671V347.564C415.795 351.206 412.846 354.155 409.204 354.155H102.09C101.284 354.155 100.519 354.012 99.8048 353.737C97.2948 352.819 95.5098 350.401 95.5098 347.564V151.671C95.5098 148.028 98.4588 145.08 102.091 145.08H409.205C410.082 145.08 410.929 145.254 411.694 145.57C414.102 146.549 415.795 148.916 415.795 151.671Z" fill="white"/>
<path d="M415.796 151.669V161.421H95.5068V151.669C95.5068 148.03 98.4558 145.082 102.094 145.082H409.209C412.847 145.081 415.796 148.03 415.796 151.669Z" fill="#E3E5E8"/>
<path d="M390.667 153.251C390.667 155.018 389.235 156.451 387.467 156.451C385.7 156.451 384.268 155.019 384.268 153.251C384.268 151.484 385.7 150.051 387.467 150.051C389.234 150.051 390.667 151.484 390.667 153.251Z" fill="#FD4E5A"/>
<path d="M378.828 153.251C378.828 155.018 377.396 156.451 375.629 156.451C373.862 156.451 372.429 155.019 372.429 153.251C372.429 151.484 373.862 150.051 375.629 150.051C377.396 150.051 378.828 151.484 378.828 153.251Z" fill="#3C3C48"/>
<path d="M402.505 153.251C402.505 155.018 401.073 156.451 399.306 156.451C397.539 156.451 396.106 155.019 396.106 153.251C396.106 151.484 397.538 150.051 399.306 150.051C401.073 150.051 402.505 151.484 402.505 153.251Z" fill="#D7243A"/>
<path d="M144.647 330.941V181.059C144.647 177.782 147.304 175.125 150.581 175.125H360.309C363.586 175.125 366.243 177.782 366.243 181.059V330.941C366.243 334.218 363.586 336.875 360.309 336.875H150.581C147.304 336.875 144.647 334.218 144.647 330.941Z" fill="#E3E5E8"/>
<path d="M360.69 185.533V326.468C360.69 326.523 360.69 326.578 360.687 326.636C360.6 329.238 358.459 331.324 355.834 331.324H155.054C153.544 331.324 152.191 330.634 151.301 329.549C150.614 328.712 150.201 327.637 150.201 326.469V185.533C150.201 182.853 152.374 180.678 155.053 180.678H355.833C358.515 180.678 360.69 182.852 360.69 185.533Z" fill="#FD4E5A"/>
<path d="M319.492 260.488C323.697 241.209 311.477 222.171 292.198 217.966C272.919 213.76 253.881 225.98 249.676 245.26C245.47 264.539 257.69 283.577 276.97 287.782C296.249 291.987 315.287 279.767 319.492 260.488Z" fill="#D7243A"/>
<path d="M360.687 291.463V326.635C360.6 329.238 358.461 331.323 355.835 331.323H248.756L316.553 217.135L350.455 274.23L360.687 291.463Z" fill="#1A100E"/>
<path d="M319.243 331.322H155.057C153.546 331.322 152.194 330.632 151.303 329.548L192.462 263.223L234.722 195.121L276.982 263.223L319.243 331.322Z" fill="#3C3C48"/>
<path d="M207.323 239.274L234.721 259.782L262.119 239.274L234.721 195.123L207.323 239.274Z" fill="white"/>
<path d="M293.479 256L316.555 274.229L339.631 256L316.555 217.135L293.479 256Z" fill="white"/>
<path d="M357.659 347H352.674C352.191 347 351.799 346.608 351.799 346.125C351.799 345.642 352.191 345.25 352.674 345.25H357.659C358.142 345.25 358.534 345.642 358.534 346.125C358.534 346.608 358.142 347 357.659 347ZM347.688 347H342.703C342.22 347 341.828 346.608 341.828 346.125C341.828 345.642 342.22 345.25 342.703 345.25H347.688C348.171 345.25 348.563 345.642 348.563 346.125C348.563 346.608 348.172 347 347.688 347ZM337.718 347H332.733C332.25 347 331.858 346.608 331.858 346.125C331.858 345.642 332.25 345.25 332.733 345.25H337.718C338.201 345.25 338.593 345.642 338.593 346.125C338.593 346.608 338.201 347 337.718 347ZM327.747 347H322.762C322.279 347 321.887 346.608 321.887 346.125C321.887 345.642 322.279 345.25 322.762 345.25H327.747C328.23 345.25 328.622 345.642 328.622 346.125C328.622 346.608 328.23 347 327.747 347ZM317.777 347H312.792C312.309 347 311.917 346.608 311.917 346.125C311.917 345.642 312.309 345.25 312.792 345.25H317.777C318.26 345.25 318.652 345.642 318.652 346.125C318.652 346.608 318.26 347 317.777 347ZM307.806 347H302.821C302.338 347 301.946 346.608 301.946 346.125C301.946 345.642 302.338 345.25 302.821 345.25H307.806C308.289 345.25 308.681 345.642 308.681 346.125C308.681 346.608 308.289 347 307.806 347ZM297.836 347H292.851C292.368 347 291.976 346.608 291.976 346.125C291.976 345.642 292.368 345.25 292.851 345.25H297.836C298.319 345.25 298.711 345.642 298.711 346.125C298.711 346.608 298.319 347 297.836 347ZM287.865 347H282.88C282.397 347 282.005 346.608 282.005 346.125C282.005 345.642 282.397 345.25 282.88 345.25H287.865C288.348 345.25 288.74 345.642 288.74 346.125C288.74 346.608 288.348 347 287.865 347ZM277.895 347H272.91C272.427 347 272.035 346.608 272.035 346.125C272.035 345.642 272.427 345.25 272.91 345.25H277.895C278.378 345.25 278.77 345.642 278.77 346.125C278.77 346.608 278.378 347 277.895 347ZM267.924 347H262.939C262.456 347 262.064 346.608 262.064 346.125C262.064 345.642 262.456 345.25 262.939 345.25H267.924C268.407 345.25 268.799 345.642 268.799 346.125C268.799 346.608 268.407 347 267.924 347ZM257.953 347H252.968C252.485 347 252.093 346.608 252.093 346.125C252.093 345.642 252.485 345.25 252.968 345.25H257.953C258.436 345.25 258.828 345.642 258.828 346.125C258.828 346.608 258.436 347 257.953 347ZM247.983 347H242.998C242.515 347 242.123 346.608 242.123 346.125C242.123 345.642 242.515 345.25 242.998 345.25H247.983C248.466 345.25 248.858 345.642 248.858 346.125C248.858 346.608 248.466 347 247.983 347ZM238.012 347H233.027C232.544 347 232.152 346.608 232.152 346.125C232.152 345.642 232.544 345.25 233.027 345.25H238.012C238.495 345.25 238.887 345.642 238.887 346.125C238.887 346.608 238.495 347 238.012 347ZM228.042 347H223.057C222.574 347 222.182 346.608 222.182 346.125C222.182 345.642 222.574 345.25 223.057 345.25H228.042C228.525 345.25 228.917 345.642 228.917 346.125C228.917 346.608 228.525 347 228.042 347ZM218.071 347H213.086C212.603 347 212.211 346.608 212.211 346.125C212.211 345.642 212.603 345.25 213.086 345.25H218.071C218.554 345.25 218.946 345.642 218.946 346.125C218.946 346.608 218.554 347 218.071 347ZM208.1 347H203.115C202.632 347 202.24 346.608 202.24 346.125C202.24 345.642 202.632 345.25 203.115 345.25H208.1C208.583 345.25 208.975 345.642 208.975 346.125C208.975 346.608 208.584 347 208.1 347ZM198.13 347H193.145C192.662 347 192.27 346.608 192.27 346.125C192.27 345.642 192.662 345.25 193.145 345.25H198.13C198.613 345.25 199.005 345.642 199.005 346.125C199.005 346.608 198.613 347 198.13 347ZM188.159 347H183.174C182.691 347 182.299 346.608 182.299 346.125C182.299 345.642 182.691 345.25 183.174 345.25H188.159C188.642 345.25 189.034 345.642 189.034 346.125C189.034 346.608 188.643 347 188.159 347ZM178.189 347H173.204C172.721 347 172.329 346.608 172.329 346.125C172.329 345.642 172.721 345.25 173.204 345.25H178.189C178.672 345.25 179.064 345.642 179.064 346.125C179.064 346.608 178.672 347 178.189 347ZM168.218 347H163.233C162.75 347 162.358 346.608 162.358 346.125C162.358 345.642 162.75 345.25 163.233 345.25H168.218C168.701 345.25 169.093 345.642 169.093 346.125C169.093 346.608 168.701 347 168.218 347ZM158.248 347H153.263C152.78 347 152.388 346.608 152.388 346.125C152.388 345.642 152.78 345.25 153.263 345.25H158.248C158.731 345.25 159.123 345.642 159.123 346.125C159.123 346.608 158.731 347 158.248 347ZM149.676 347C147.896 347 146.152 346.693 144.492 346.086C144.038 345.92 143.804 345.418 143.97 344.964C144.136 344.51 144.638 344.276 145.092 344.442C146.56 344.978 148.102 345.25 149.676 345.25C150.159 345.25 150.551 345.642 150.551 346.125C150.551 346.608 150.159 347 149.676 347ZM362.641 346.929C362.197 346.929 361.816 346.592 361.771 346.141C361.723 345.66 362.074 345.231 362.555 345.183C364.115 345.027 365.622 344.602 367.033 343.92C367.469 343.709 367.992 343.892 368.202 344.326C368.412 344.761 368.231 345.284 367.795 345.495C366.199 346.267 364.495 346.748 362.729 346.924C362.699 346.928 362.669 346.929 362.641 346.929ZM140.5 343.653C140.301 343.653 140.101 343.586 139.937 343.448C138.579 342.306 137.441 340.951 136.554 339.42C136.312 339.002 136.454 338.466 136.872 338.224C137.291 337.982 137.826 338.125 138.068 338.542C138.853 339.897 139.861 341.097 141.063 342.108C141.433 342.419 141.481 342.971 141.169 343.341C140.997 343.547 140.749 343.653 140.5 343.653ZM371.435 342.683C371.215 342.683 370.994 342.6 370.824 342.434C370.478 342.097 370.471 341.543 370.808 341.197C371.906 340.071 372.789 338.777 373.434 337.352C373.633 336.912 374.151 336.716 374.592 336.916C375.032 337.115 375.227 337.633 375.028 338.074C374.299 339.685 373.3 341.147 372.06 342.419C371.89 342.595 371.663 342.683 371.435 342.683ZM135.611 335.198C135.194 335.198 134.825 334.899 134.75 334.474C134.599 333.612 134.522 332.728 134.522 331.846V329.35C134.522 328.867 134.914 328.475 135.397 328.475C135.88 328.475 136.272 328.867 136.272 329.35V331.846C136.272 332.627 136.34 333.409 136.474 334.171C136.558 334.647 136.24 335.101 135.764 335.184C135.712 335.194 135.661 335.198 135.611 335.198ZM375.455 333.781C375.433 333.781 375.412 333.78 375.39 333.779C374.908 333.744 374.546 333.324 374.581 332.842C374.605 332.512 374.617 332.177 374.617 331.846V327.922C374.617 327.439 375.009 327.047 375.492 327.047C375.975 327.047 376.367 327.439 376.367 327.922V331.846C376.367 332.219 376.353 332.597 376.326 332.97C376.293 333.43 375.909 333.781 375.455 333.781ZM135.397 325.241C134.914 325.241 134.522 324.849 134.522 324.366V319.381C134.522 318.898 134.914 318.506 135.397 318.506C135.88 318.506 136.272 318.898 136.272 319.381V324.366C136.272 324.849 135.881 325.241 135.397 325.241ZM375.493 323.812C375.01 323.812 374.618 323.42 374.618 322.937V317.952C374.618 317.469 375.01 317.077 375.493 317.077C375.976 317.077 376.368 317.469 376.368 317.952V322.937C376.368 323.42 375.976 323.812 375.493 323.812ZM135.397 315.27C134.914 315.27 134.522 314.878 134.522 314.395V309.41C134.522 308.927 134.914 308.535 135.397 308.535C135.88 308.535 136.272 308.927 136.272 309.41V314.395C136.272 314.878 135.881 315.27 135.397 315.27ZM375.493 313.841C375.01 313.841 374.618 313.449 374.618 312.966V307.981C374.618 307.498 375.01 307.106 375.493 307.106C375.976 307.106 376.368 307.498 376.368 307.981V312.966C376.368 313.449 375.976 313.841 375.493 313.841ZM135.397 305.299C134.914 305.299 134.522 304.907 134.522 304.424V299.439C134.522 298.956 134.914 298.564 135.397 298.564C135.88 298.564 136.272 298.956 136.272 299.439V304.424C136.272 304.908 135.881 305.299 135.397 305.299ZM375.493 303.871C375.01 303.871 374.618 303.479 374.618 302.996V298.011C374.618 297.528 375.01 297.136 375.493 297.136C375.976 297.136 376.368 297.528 376.368 298.011V302.996C376.368 303.479 375.976 303.871 375.493 303.871ZM135.397 295.329C134.914 295.329 134.522 294.937 134.522 294.454V289.469C134.522 288.986 134.914 288.594 135.397 288.594C135.88 288.594 136.272 288.986 136.272 289.469V294.454C136.272 294.937 135.881 295.329 135.397 295.329ZM375.493 293.9C375.01 293.9 374.618 293.508 374.618 293.025V288.04C374.618 287.557 375.01 287.165 375.493 287.165C375.976 287.165 376.368 287.557 376.368 288.04V293.025C376.368 293.508 375.976 293.9 375.493 293.9ZM135.397 285.358C134.914 285.358 134.522 284.966 134.522 284.483V279.498C134.522 279.015 134.914 278.623 135.397 278.623C135.88 278.623 136.272 279.015 136.272 279.498V284.483C136.272 284.966 135.881 285.358 135.397 285.358ZM375.493 283.929C375.01 283.929 374.618 283.537 374.618 283.054V278.069C374.618 277.586 375.01 277.194 375.493 277.194C375.976 277.194 376.368 277.586 376.368 278.069V283.054C376.368 283.538 375.976 283.929 375.493 283.929ZM135.397 275.388C134.914 275.388 134.522 274.996 134.522 274.513V269.528C134.522 269.045 134.914 268.653 135.397 268.653C135.88 268.653 136.272 269.045 136.272 269.528V274.513C136.272 274.996 135.881 275.388 135.397 275.388ZM375.493 273.959C375.01 273.959 374.618 273.567 374.618 273.084V268.099C374.618 267.616 375.01 267.224 375.493 267.224C375.976 267.224 376.368 267.616 376.368 268.099V273.084C376.368 273.567 375.976 273.959 375.493 273.959ZM135.397 265.417C134.914 265.417 134.522 265.025 134.522 264.542V259.557C134.522 259.074 134.914 258.682 135.397 258.682C135.88 258.682 136.272 259.074 136.272 259.557V264.542C136.272 265.025 135.881 265.417 135.397 265.417ZM375.493 263.988C375.01 263.988 374.618 263.596 374.618 263.113V258.128C374.618 257.645 375.01 257.253 375.493 257.253C375.976 257.253 376.368 257.645 376.368 258.128V263.113C376.368 263.596 375.976 263.988 375.493 263.988ZM135.397 255.447C134.914 255.447 134.522 255.055 134.522 254.572V249.587C134.522 249.104 134.914 248.712 135.397 248.712C135.88 248.712 136.272 249.104 136.272 249.587V254.572C136.272 255.055 135.881 255.447 135.397 255.447ZM375.493 254.018C375.01 254.018 374.618 253.626 374.618 253.143V248.158C374.618 247.675 375.01 247.283 375.493 247.283C375.976 247.283 376.368 247.675 376.368 248.158V253.143C376.368 253.626 375.976 254.018 375.493 254.018ZM135.397 245.476C134.914 245.476 134.522 245.084 134.522 244.601V239.616C134.522 239.133 134.914 238.741 135.397 238.741C135.88 238.741 136.272 239.133 136.272 239.616V244.601C136.272 245.084 135.881 245.476 135.397 245.476ZM375.493 244.047C375.01 244.047 374.618 243.655 374.618 243.172V238.187C374.618 237.704 375.01 237.312 375.493 237.312C375.976 237.312 376.368 237.704 376.368 238.187V243.172C376.368 243.656 375.976 244.047 375.493 244.047ZM135.397 235.505C134.914 235.505 134.522 235.113 134.522 234.63V229.645C134.522 229.162 134.914 228.77 135.397 228.77C135.88 228.77 136.272 229.162 136.272 229.645V234.63C136.272 235.113 135.881 235.505 135.397 235.505ZM375.493 234.077C375.01 234.077 374.618 233.685 374.618 233.202V228.217C374.618 227.734 375.01 227.342 375.493 227.342C375.976 227.342 376.368 227.734 376.368 228.217V233.202C376.368 233.685 375.976 234.077 375.493 234.077ZM135.397 225.535C134.914 225.535 134.522 225.143 134.522 224.66V219.675C134.522 219.192 134.914 218.8 135.397 218.8C135.88 218.8 136.272 219.192 136.272 219.675V224.66C136.272 225.143 135.881 225.535 135.397 225.535ZM375.493 224.106C375.01 224.106 374.618 223.714 374.618 223.231V218.246C374.618 217.763 375.01 217.371 375.493 217.371C375.976 217.371 376.368 217.763 376.368 218.246V223.231C376.368 223.714 375.976 224.106 375.493 224.106ZM135.397 215.564C134.914 215.564 134.522 215.172 134.522 214.689V209.704C134.522 209.221 134.914 208.829 135.397 208.829C135.88 208.829 136.272 209.221 136.272 209.704V214.689C136.272 215.172 135.881 215.564 135.397 215.564ZM375.493 214.135C375.01 214.135 374.618 213.743 374.618 213.26V208.275C374.618 207.792 375.01 207.4 375.493 207.4C375.976 207.4 376.368 207.792 376.368 208.275V213.26C376.368 213.744 375.976 214.135 375.493 214.135ZM135.397 205.594C134.914 205.594 134.522 205.202 134.522 204.719V199.734C134.522 199.251 134.914 198.859 135.397 198.859C135.88 198.859 136.272 199.251 136.272 199.734V204.719C136.272 205.202 135.881 205.594 135.397 205.594ZM375.493 204.165C375.01 204.165 374.618 203.773 374.618 203.29V198.305C374.618 197.822 375.01 197.43 375.493 197.43C375.976 197.43 376.368 197.822 376.368 198.305V203.29C376.368 203.773 375.976 204.165 375.493 204.165ZM135.397 195.623C134.914 195.623 134.522 195.231 134.522 194.748V189.763C134.522 189.28 134.914 188.888 135.397 188.888C135.88 188.888 136.272 189.28 136.272 189.763V194.748C136.272 195.231 135.881 195.623 135.397 195.623ZM375.493 194.194C375.01 194.194 374.618 193.802 374.618 193.319V188.334C374.618 187.851 375.01 187.459 375.493 187.459C375.976 187.459 376.368 187.851 376.368 188.334V193.319C376.368 193.803 375.976 194.194 375.493 194.194ZM135.397 185.652C134.914 185.652 134.522 185.26 134.522 184.777V180.153C134.522 180.025 134.524 179.897 134.527 179.77C134.539 179.287 134.943 178.905 135.424 178.917C135.907 178.929 136.289 179.331 136.276 179.814C136.273 179.927 136.272 180.04 136.272 180.153V184.777C136.272 185.261 135.881 185.652 135.397 185.652ZM375.493 184.224C375.01 184.224 374.618 183.832 374.618 183.349V180.153C374.618 179.594 374.583 179.03 374.514 178.477C374.454 177.998 374.794 177.56 375.273 177.5C375.757 177.44 376.19 177.78 376.25 178.259C376.328 178.883 376.368 179.521 376.368 180.152V183.348C376.368 183.832 375.976 184.224 375.493 184.224ZM136.386 175.807C136.279 175.807 136.171 175.787 136.065 175.746C135.615 175.569 135.395 175.061 135.572 174.611C136.221 172.966 137.147 171.457 138.324 170.125C138.644 169.763 139.197 169.729 139.559 170.049C139.921 170.369 139.955 170.922 139.635 171.284C138.593 172.462 137.774 173.797 137.2 175.252C137.064 175.596 136.735 175.807 136.386 175.807ZM373.916 174.508C373.599 174.508 373.293 174.335 373.137 174.034C372.42 172.643 371.472 171.395 370.319 170.327C369.965 169.998 369.944 169.445 370.272 169.09C370.6 168.736 371.154 168.715 371.509 169.043C372.811 170.25 373.882 171.659 374.692 173.231C374.913 173.661 374.745 174.188 374.315 174.41C374.188 174.476 374.051 174.508 373.916 174.508ZM142.857 168.487C142.547 168.487 142.247 168.322 142.088 168.031C141.856 167.607 142.013 167.075 142.437 166.844C143.995 165.993 145.674 165.429 147.427 165.167C147.905 165.095 148.35 165.425 148.422 165.903C148.493 166.381 148.164 166.826 147.686 166.898C146.137 167.13 144.653 167.628 143.276 168.38C143.142 168.452 142.998 168.487 142.857 168.487ZM366.75 167.867C366.637 167.867 366.521 167.845 366.41 167.798C364.968 167.189 363.442 166.842 361.872 166.766C361.389 166.743 361.017 166.332 361.04 165.85C361.063 165.367 361.467 164.995 361.957 165.018C363.732 165.104 365.459 165.497 367.091 166.186C367.536 166.374 367.745 166.887 367.557 167.332C367.415 167.666 367.091 167.867 366.75 167.867ZM356.93 166.75H351.945C351.462 166.75 351.07 166.358 351.07 165.875C351.07 165.392 351.462 165 351.945 165H356.93C357.413 165 357.805 165.392 357.805 165.875C357.805 166.358 357.413 166.75 356.93 166.75ZM346.959 166.75H341.974C341.491 166.75 341.099 166.358 341.099 165.875C341.099 165.392 341.491 165 341.974 165H346.959C347.442 165 347.834 165.392 347.834 165.875C347.834 166.358 347.442 166.75 346.959 166.75ZM336.988 166.75H332.003C331.52 166.75 331.128 166.358 331.128 165.875C331.128 165.392 331.52 165 332.003 165H336.988C337.471 165 337.863 165.392 337.863 165.875C337.863 166.358 337.472 166.75 336.988 166.75ZM327.018 166.75H322.033C321.55 166.75 321.158 166.358 321.158 165.875C321.158 165.392 321.55 165 322.033 165H327.018C327.501 165 327.893 165.392 327.893 165.875C327.893 166.358 327.501 166.75 327.018 166.75ZM317.047 166.75H312.062C311.579 166.75 311.187 166.358 311.187 165.875C311.187 165.392 311.579 165 312.062 165H317.047C317.53 165 317.922 165.392 317.922 165.875C317.922 166.358 317.53 166.75 317.047 166.75ZM307.077 166.75H302.092C301.609 166.75 301.217 166.358 301.217 165.875C301.217 165.392 301.609 165 302.092 165H307.077C307.56 165 307.952 165.392 307.952 165.875C307.952 166.358 307.56 166.75 307.077 166.75ZM297.106 166.75H292.121C291.638 166.75 291.246 166.358 291.246 165.875C291.246 165.392 291.638 165 292.121 165H297.106C297.589 165 297.981 165.392 297.981 165.875C297.981 166.358 297.589 166.75 297.106 166.75ZM287.135 166.75H282.15C281.667 166.75 281.275 166.358 281.275 165.875C281.275 165.392 281.667 165 282.15 165H287.135C287.618 165 288.01 165.392 288.01 165.875C288.01 166.358 287.619 166.75 287.135 166.75ZM277.165 166.75H272.18C271.697 166.75 271.305 166.358 271.305 165.875C271.305 165.392 271.697 165 272.18 165H277.165C277.648 165 278.04 165.392 278.04 165.875C278.04 166.358 277.648 166.75 277.165 166.75ZM267.194 166.75H262.209C261.726 166.75 261.334 166.358 261.334 165.875C261.334 165.392 261.726 165 262.209 165H267.194C267.677 165 268.069 165.392 268.069 165.875C268.069 166.358 267.677 166.75 267.194 166.75ZM257.224 166.75H252.239C251.756 166.75 251.364 166.358 251.364 165.875C251.364 165.392 251.756 165 252.239 165H257.224C257.707 165 258.099 165.392 258.099 165.875C258.099 166.358 257.707 166.75 257.224 166.75ZM247.253 166.75H242.268C241.785 166.75 241.393 166.358 241.393 165.875C241.393 165.392 241.785 165 242.268 165H247.253C247.736 165 248.128 165.392 248.128 165.875C248.128 166.358 247.737 166.75 247.253 166.75ZM237.283 166.75H232.298C231.815 166.75 231.423 166.358 231.423 165.875C231.423 165.392 231.815 165 232.298 165H237.283C237.766 165 238.158 165.392 238.158 165.875C238.158 166.358 237.766 166.75 237.283 166.75ZM227.312 166.75H222.327C221.844 166.75 221.452 166.358 221.452 165.875C221.452 165.392 221.844 165 222.327 165H227.312C227.795 165 228.187 165.392 228.187 165.875C228.187 166.358 227.795 166.75 227.312 166.75ZM217.342 166.75H212.357C211.874 166.75 211.482 166.358 211.482 165.875C211.482 165.392 211.874 165 212.357 165H217.342C217.825 165 218.217 165.392 218.217 165.875C218.217 166.358 217.825 166.75 217.342 166.75ZM207.371 166.75H202.386C201.903 166.75 201.511 166.358 201.511 165.875C201.511 165.392 201.903 165 202.386 165H207.371C207.854 165 208.246 165.392 208.246 165.875C208.246 166.358 207.854 166.75 207.371 166.75ZM197.4 166.75H192.415C191.932 166.75 191.54 166.358 191.54 165.875C191.54 165.392 191.932 165 192.415 165H197.4C197.883 165 198.275 165.392 198.275 165.875C198.275 166.358 197.884 166.75 197.4 166.75ZM187.43 166.75H182.445C181.962 166.75 181.57 166.358 181.57 165.875C181.57 165.392 181.962 165 182.445 165H187.43C187.913 165 188.305 165.392 188.305 165.875C188.305 166.358 187.913 166.75 187.43 166.75ZM177.459 166.75H172.474C171.991 166.75 171.599 166.358 171.599 165.875C171.599 165.392 171.991 165 172.474 165H177.459C177.942 165 178.334 165.392 178.334 165.875C178.334 166.358 177.942 166.75 177.459 166.75ZM167.489 166.75H162.504C162.021 166.75 161.629 166.358 161.629 165.875C161.629 165.392 162.02 165 162.503 165H167.488C167.971 165 168.363 165.392 168.363 165.875C168.363 166.358 167.972 166.75 167.489 166.75ZM157.518 166.75H152.533C152.05 166.75 151.658 166.358 151.658 165.875C151.658 165.392 152.05 165 152.533 165H157.518C158.001 165 158.393 165.392 158.393 165.875C158.393 166.358 158.001 166.75 157.518 166.75Z" fill="#E3E5E8"/>
<path d="M180.75 193.752C180.75 205.074 171.572 214.252 160.25 214.252C156.6 214.252 153.172 213.297 150.202 211.622V185.535C150.202 182.855 152.375 180.68 155.054 180.68H176.039C178.982 184.229 180.75 188.785 180.75 193.752Z" fill="#D7243A"/>
<path d="M156.5 210.293C167.822 210.293 177 201.115 177 189.793C177 178.471 167.822 169.293 156.5 169.293C145.178 169.293 136 178.471 136 189.793C136 201.115 145.178 210.293 156.5 210.293Z" fill="#3C3C48"/>
<path d="M158.5 198.376V181.209C158.5 180.105 157.605 179.209 156.5 179.209C155.395 179.209 154.5 180.105 154.5 181.209V198.376C154.5 199.481 155.395 200.376 156.5 200.376C157.605 200.376 158.5 199.481 158.5 198.376Z" fill="white"/>
<path d="M165.083 187.793H147.916C146.811 187.793 145.916 188.688 145.916 189.793C145.916 190.897 146.811 191.793 147.916 191.793H165.083C166.188 191.793 167.083 190.897 167.083 189.793C167.083 188.688 166.188 187.793 165.083 187.793Z" fill="white"/>
<path d="M286.409 363.143H228.989V413.022H286.409V363.143Z" fill="#1A100E"/>
<path d="M319.993 427.749H195.404V423.808C195.404 416.293 201.496 410.201 209.011 410.201H306.387C313.902 410.201 319.994 416.293 319.994 423.808L319.993 427.749Z" fill="#3C3C48"/>
<path d="M439.963 413.935L440.139 422.364L433.758 422.156L433.019 413.615L439.963 413.935Z" fill="#FCBB8C"/>
<path d="M437.374 420.856C437.374 420.856 434.189 420.108 433.316 420.152C432.443 420.196 426.788 426.916 424.829 427.361C421.277 428.168 421.44 433.748 423.623 433.959C429.937 434.571 440.616 431.59 440.616 431.59C440.616 431.59 441.392 424.401 440.893 422.167C440.395 419.933 439.151 421.464 437.374 420.856Z" fill="#FD4E5A"/>
<path d="M432.351 427.126C432.464 427.147 432.585 427.124 432.686 427.052C432.882 426.912 432.926 426.64 432.786 426.444C432.739 426.379 431.623 424.835 430.284 424.327C428.503 423.648 427.283 424.743 427.231 424.79C427.054 424.952 427.042 425.228 427.205 425.406C427.367 425.583 427.643 425.595 427.821 425.432C427.854 425.402 428.706 424.661 429.975 425.142C431.066 425.556 432.068 426.938 432.078 426.952C432.146 427.047 432.245 427.106 432.351 427.126Z" fill="white"/>
<path d="M433.516 425.771C433.629 425.792 433.75 425.769 433.851 425.697C434.047 425.557 434.092 425.285 433.952 425.089C433.905 425.024 432.789 423.48 431.45 422.972C429.667 422.293 428.449 423.387 428.397 423.435C428.22 423.597 428.208 423.873 428.371 424.051C428.534 424.228 428.809 424.241 428.987 424.077C429.021 424.048 429.873 423.306 431.141 423.787C432.237 424.204 433.234 425.583 433.244 425.597C433.311 425.691 433.41 425.75 433.516 425.771Z" fill="white"/>
<path d="M430.702 428.298C430.815 428.319 430.936 428.296 431.037 428.224C431.233 428.084 431.278 427.812 431.137 427.616C431.09 427.551 429.974 426.008 428.635 425.499C426.852 424.82 425.634 425.914 425.582 425.961C425.405 426.124 425.393 426.4 425.556 426.577C425.718 426.754 425.994 426.766 426.172 426.603C426.206 426.574 427.058 425.832 428.326 426.313C429.422 426.729 430.419 428.109 430.428 428.123C430.496 428.219 430.595 428.278 430.702 428.298Z" fill="white"/>
<path d="M416.495 314.744C416.495 314.744 416.617 316.653 416.842 319.819C416.9 320.657 416.965 321.583 417.038 322.59C417.809 333.216 419.309 352.431 421.007 366.067C423.386 385.184 431.104 416.629 431.104 416.629L439.326 416.411L440.139 416.385L442.088 416.336C442.088 416.336 440.874 396.471 439.262 379.22C438.199 367.843 437.725 340.939 437.527 323.949C437.426 315.188 437.394 309.061 437.394 309.061L416.495 314.744Z" fill="#3C3C48"/>
<path d="M416.495 314.744C416.495 314.744 416.617 316.653 416.842 319.819C416.9 320.657 416.965 321.583 417.038 322.59C420.825 323.328 431.247 323.9 437.527 323.949C437.426 315.188 437.394 309.061 437.394 309.061L416.495 314.744Z" fill="#1A100E"/>
<path d="M432.88 319.805C432.883 320.457 433.157 382.352 439.325 416.409L440.139 416.383C433.962 382.43 433.689 320.447 433.686 319.803L432.88 319.805Z" fill="#1A100E"/>
<path d="M391.097 415.115L391.31 422.447L398.013 422.145L398.225 414.363L391.097 415.115Z" fill="#FCBB8C"/>
<path d="M393.02 422.123C393.02 422.123 391.575 420.21 390.438 420.3C389.302 420.39 380.579 427.425 377.578 428.022C374.577 428.619 375.176 430.827 375.735 431.954C376.294 433.081 399.704 431.36 399.704 431.36C399.704 431.36 400.298 424.384 399.518 422.257C398.738 420.13 395.373 422.612 393.02 422.123Z" fill="#FD4E5A"/>
<path d="M388.207 427.023C388.314 427.054 388.432 427.043 388.536 426.983C388.737 426.866 388.806 426.609 388.689 426.408C388.65 426.341 387.721 424.753 386.481 424.139C384.832 423.32 383.557 424.258 383.503 424.299C383.317 424.439 383.28 424.703 383.42 424.888C383.56 425.074 383.824 425.111 384.01 424.971C384.045 424.946 384.932 424.313 386.107 424.894C387.117 425.394 387.951 426.816 387.96 426.83C388.017 426.928 388.106 426.994 388.207 427.023Z" fill="white"/>
<path d="M389.453 425.83C389.559 425.861 389.678 425.85 389.782 425.79C389.983 425.674 390.052 425.416 389.936 425.215C389.897 425.148 388.968 423.56 387.729 422.946C386.078 422.127 384.805 423.065 384.751 423.106C384.566 423.246 384.528 423.51 384.668 423.695C384.808 423.881 385.072 423.918 385.257 423.778C385.292 423.753 386.18 423.12 387.354 423.701C388.368 424.203 389.198 425.623 389.206 425.637C389.263 425.735 389.353 425.801 389.453 425.83Z" fill="white"/>
<path d="M386.512 427.998C386.619 428.029 386.737 428.019 386.841 427.958C387.042 427.841 387.111 427.584 386.995 427.383C386.956 427.316 386.027 425.728 384.788 425.114C383.138 424.295 381.864 425.233 381.81 425.274C381.624 425.414 381.587 425.678 381.727 425.863C381.867 426.049 382.131 426.086 382.316 425.946C382.351 425.921 383.24 425.288 384.413 425.869C385.428 426.372 386.257 427.791 386.265 427.805C386.321 427.903 386.411 427.969 386.512 427.998Z" fill="white"/>
<path d="M389.861 417.018L396.676 416.564L397.488 416.514L399.143 416.403C399.143 416.403 403.637 376.618 405.021 366.022C406.224 356.816 411.667 336.155 415.197 323.3C416.197 319.651 417.045 316.631 417.602 314.68C418.028 313.145 418.279 312.273 418.279 312.273L395.528 309.891C395.528 309.891 395.46 310.39 395.349 311.29C395.113 313.131 394.66 316.657 394.111 321.089C392.595 333.153 390.286 351.927 389.374 361.486C387.033 386.101 389.861 417.018 389.861 417.018Z" fill="#3C3C48"/>
<path d="M394.111 321.089L415.197 323.3C416.197 319.651 417.045 316.631 417.602 314.68L395.349 311.291C395.113 313.13 394.659 316.656 394.111 321.089Z" fill="#1A100E"/>
<path d="M396.677 416.565L397.489 416.515C397.98 404.205 399.429 373.463 401.997 360.446C405.226 344.037 412.542 320.165 412.617 319.923L411.843 319.686C411.768 319.927 404.44 343.842 401.207 360.291C398.621 373.392 397.162 404.28 396.677 416.565Z" fill="#1A100E"/>
<path d="M397.278 261.004C394.298 271.075 386.422 278.314 386.422 278.314C381.952 280.435 370.016 284.823 365.873 284.013C366.115 281.18 365.851 279.202 365.373 275.719C371.036 275.498 381.201 269.21 381.201 269.21C390.155 252.649 391.539 234.051 391.539 234.051C397.437 240.222 397.278 261.004 397.278 261.004Z" fill="#D7243A"/>
<path d="M440.867 298.603C440.889 298.927 440.906 299.247 440.925 299.562C441.265 305.321 441.506 309.786 441.609 311.979C436.138 313.821 430.634 315.13 425.097 315.916C424.844 315.95 424.597 315.984 424.345 316.018C424.21 316.036 424.076 316.053 423.941 316.068C423.644 316.107 423.344 316.144 423.049 316.176C422.719 316.217 422.39 316.254 422.057 316.291C418.282 316.695 414.493 316.854 410.686 316.772C409.917 316.754 409.152 316.727 408.382 316.69C408.332 316.688 408.284 316.686 408.234 316.685C408.039 316.676 407.843 316.664 407.645 316.652C407.526 316.645 407.406 316.638 407.29 316.631C402.854 316.371 398.399 315.776 393.921 314.855C393.849 313.861 393.756 312.385 393.643 310.526C393.622 310.18 393.601 309.825 393.581 309.453V309.451C393.423 306.791 393.24 303.478 393.043 299.733C393.026 299.413 393.009 299.091 392.992 298.764C392.863 296.271 392.728 293.6 392.594 290.814C392.579 290.491 392.562 290.169 392.548 289.844C392.411 286.987 392.275 284.019 392.143 281.005C392.063 279.165 391.984 277.308 391.91 275.448C391.835 273.565 391.761 271.679 391.693 269.805C391.678 269.397 391.663 268.989 391.65 268.581C391.014 250.857 390.78 234.545 391.904 232.656C392.684 231.349 394.554 229.755 396.771 228.128C397.042 227.931 397.318 227.731 397.598 227.531C398.544 226.858 406.398 223.651 407.381 222.99L415.821 221.887C415.875 221.915 424.144 224.16 424.198 224.185C424.558 224.363 424.923 224.543 425.284 224.723C428.39 226.274 431.461 227.919 433.261 229.387C433.523 229.599 433.76 229.809 433.962 230.015C434.124 230.179 434.269 230.339 434.388 230.498C434.499 230.641 434.613 230.886 434.729 231.224C435.979 234.888 437.4 249.5 438.628 265.417C438.716 266.558 438.801 267.706 438.888 268.856C438.926 269.36 438.963 269.867 439.001 270.373C439.029 270.721 439.055 271.071 439.078 271.419C439.091 271.594 439.104 271.767 439.117 271.942C439.181 272.808 439.243 273.672 439.302 274.532C439.348 275.169 439.393 275.803 439.438 276.438C439.998 284.459 440.491 292.251 440.867 298.603Z" fill="#FD4E5A"/>
<path d="M410.863 235.929C415.375 235.657 419.248 230.61 419.416 230.389C419.522 230.249 419.495 230.049 419.354 229.942C419.214 229.835 419.014 229.863 418.907 230.004C418.867 230.057 414.81 235.343 410.435 235.303C410.26 235.301 410.115 235.443 410.113 235.619C410.111 235.795 410.253 235.939 410.429 235.941C410.575 235.942 410.72 235.938 410.863 235.929Z" fill="#D7243A"/>
<path d="M418.027 289.627C418.186 289.617 418.317 289.49 418.326 289.326C418.336 289.15 418.201 289 418.025 288.99C406.289 288.351 400.245 268.468 400.185 268.267C400.135 268.098 399.957 268.002 399.789 268.052C399.62 268.102 399.524 268.28 399.574 268.448C399.823 269.285 405.81 288.963 417.991 289.626C418.002 289.628 418.015 289.628 418.027 289.627Z" fill="#D7243A"/>
<path d="M413.019 283.802C413.126 283.796 413.227 283.736 413.281 283.634C413.364 283.479 413.306 283.285 413.151 283.202C406.721 279.754 405.46 274.176 405.448 274.12C405.411 273.948 405.243 273.836 405.07 273.875C404.898 273.912 404.788 274.081 404.825 274.253C404.876 274.493 406.148 280.17 412.85 283.765C412.903 283.794 412.962 283.806 413.019 283.802Z" fill="#D7243A"/>
<path d="M422.42 203.535C422.42 203.535 423.942 202.574 423.021 199.076C422.1 195.579 424.249 194.49 422.811 192.552C421.374 190.614 420.062 190.582 419.137 188.136C418.211 185.69 412.957 184.073 409.674 185.532C406.392 186.991 401.293 184.685 399.58 187.275C396.479 191.964 398.503 193.676 397.324 194.727C395.69 196.184 396.573 205.883 399.651 206.215C402.729 206.549 422.42 203.535 422.42 203.535Z" fill="#3C3C48"/>
<path d="M400.385 205.176C400.385 205.176 398.236 202.644 396.889 204.926C395.542 207.208 398.024 213.559 401.549 211.76L400.385 205.176Z" fill="#FB927E"/>
<path d="M400.638 209.806C400.504 209.814 400.376 209.733 400.33 209.6C399.648 207.634 397.528 206.948 397.506 206.942C397.345 206.891 397.255 206.719 397.305 206.558C397.355 206.397 397.527 206.306 397.688 206.356C397.787 206.387 400.123 207.135 400.908 209.399C400.964 209.559 400.879 209.734 400.719 209.789C400.693 209.798 400.666 209.804 400.638 209.806Z" fill="#E6765D"/>
<path d="M398.486 208.924C398.429 208.927 398.371 208.915 398.317 208.885C398.17 208.802 398.117 208.615 398.2 208.467C398.214 208.443 398.547 207.861 399.293 207.472C399.442 207.394 399.628 207.452 399.707 207.602C399.785 207.752 399.727 207.937 399.577 208.015C399 208.316 398.738 208.763 398.735 208.767C398.682 208.863 398.586 208.918 398.486 208.924Z" fill="#E6765D"/>
<path d="M420.882 203.939C420.882 203.939 422.711 201.167 424.322 203.271C425.933 205.375 424.233 211.977 420.517 210.615L420.882 203.939Z" fill="#FB927E"/>
<path d="M421.186 208.566C421.32 208.558 421.437 208.462 421.467 208.325C421.907 206.292 423.93 205.356 423.951 205.347C424.105 205.277 424.174 205.096 424.105 204.942C424.036 204.788 423.854 204.719 423.7 204.788C423.605 204.831 421.376 205.854 420.868 208.196C420.832 208.361 420.937 208.525 421.103 208.56C421.131 208.565 421.159 208.567 421.186 208.566Z" fill="#E6765D"/>
<path d="M423.217 207.431C423.274 207.428 423.33 207.409 423.379 207.372C423.516 207.272 423.545 207.08 423.445 206.943C423.428 206.92 423.028 206.383 422.241 206.086C422.083 206.026 421.906 206.106 421.846 206.265C421.786 206.423 421.866 206.6 422.025 206.66C422.634 206.89 422.948 207.301 422.951 207.305C423.015 207.394 423.117 207.437 423.217 207.431Z" fill="#E6765D"/>
<path d="M416.261 216.385L416.649 222.826C416.649 222.826 414.926 226.222 412.342 226.602C409.761 226.985 407.271 224.073 407.271 224.073L406.869 217.406L416.261 216.385Z" fill="#FCBB8C"/>
<path d="M416.261 216.385L416.433 219.243C414.807 221.282 411.74 221.952 407.118 221.552L406.868 217.406L416.261 216.385Z" fill="#FB927E"/>
<path d="M422.053 199.435C422.086 201.945 422.037 205.09 421.709 207.62V207.627C421.709 207.634 421.707 207.641 421.706 207.651C421.706 207.653 421.704 207.653 421.704 207.656C421.623 208.274 421.525 208.856 421.412 209.382C421.344 209.69 421.269 210.013 421.183 210.344C419.945 215.226 416.826 222.371 407.745 219.736C403.921 218.627 401.738 214.878 400.492 210.745C400.419 210.498 400.349 210.254 400.286 210.019C400.243 209.862 400.202 209.71 400.164 209.56L400.107 209.339C400.098 209.301 400.091 209.275 400.088 209.258C400.085 209.248 400.085 209.244 400.085 209.244C399.304 206.055 399.018 202.8 398.921 200.467C398.823 198.088 399.991 195.836 401.988 194.541C407.397 191.027 413.381 191.856 417.364 193.117C420.129 193.991 422.018 196.539 422.053 199.435Z" fill="#FCBB8C"/>
<path d="M415.738 204.491C415.78 205.179 415.459 205.757 415.021 205.784C414.584 205.81 414.196 205.274 414.155 204.587C414.114 203.899 414.434 203.321 414.871 203.294C415.308 203.268 415.696 203.804 415.738 204.491Z" fill="#3C3C48"/>
<path d="M406.124 205.071C406.165 205.759 405.845 206.337 405.408 206.364C404.971 206.39 404.583 205.854 404.542 205.167C404.5 204.479 404.821 203.9 405.258 203.874C405.695 203.847 406.083 204.383 406.124 205.071Z" fill="#3C3C48"/>
<path d="M418.047 200.452C418.047 200.452 414.843 198.987 412.266 199.944L412.444 201.358C412.444 201.358 416.158 201.239 417.981 202.092C418.177 201.561 418.23 201.017 418.047 200.452Z" fill="#3C3C48"/>
<path d="M402.4 201.257C402.4 201.257 405.519 199.564 408.175 200.348L408.093 201.782C408.093 201.782 404.352 201.918 402.578 202.901C402.345 202.381 402.255 201.838 402.4 201.257Z" fill="#3C3C48"/>
<path d="M411.034 210.357C411.55 210.326 412.05 210.094 412.128 210.057C412.28 209.984 412.345 209.801 412.271 209.648C412.198 209.495 412.014 209.431 411.862 209.504C411.592 209.633 410.94 209.849 410.642 209.694C410.585 209.664 410.505 209.603 410.474 209.418C410.299 208.356 410.376 204.757 410.376 204.721C410.38 204.552 410.246 204.411 410.076 204.408C409.906 204.404 409.767 204.539 409.763 204.708C409.76 204.858 409.685 208.401 409.869 209.519C409.938 209.94 410.174 210.143 410.359 210.239C410.562 210.344 410.8 210.371 411.034 210.357Z" fill="#FB927E"/>
<path d="M407.33 212.921C407.633 214.076 408.534 216.179 411.136 216.023C413.743 215.866 414.356 213.857 414.526 212.488L407.33 212.921Z" fill="white"/>
<path d="M422.054 199.434C422.085 201.944 422.035 205.089 421.709 207.62L420.335 207.606C420.335 207.606 420.539 205.472 420.609 204.086C420.679 202.7 420.784 200.11 419.589 199.86C418.398 199.613 418.909 196.635 417.201 195.46C415.493 194.282 411.824 194.152 409.508 195.778C407.192 197.401 404.386 195.974 403.293 196.298C402.198 196.619 400.784 198.24 401.278 199.644C401.774 201.045 400.602 201.988 400.395 203.484C400.187 204.98 401.376 208.9 401.376 208.9L400.085 209.242C399.303 206.052 399.018 202.799 398.92 200.468C398.822 198.088 399.989 195.837 401.987 194.54C407.398 191.026 413.381 191.854 417.364 193.115C420.129 193.991 422.018 196.54 422.054 199.434Z" fill="#3C3C48"/>
<path d="M423.937 248.791L431.011 241.441H374.419L367.23 248.909L423.937 248.791Z" fill="#3C3C48"/>
<path d="M422.966 252.878L420.239 229.681C420.177 229.151 419.697 228.773 419.168 228.835L386.678 232.654C386.149 232.716 385.77 233.196 385.832 233.725L388.559 256.923C388.621 257.452 389.101 257.831 389.63 257.769L422.12 253.95C422.65 253.887 423.029 253.408 422.966 252.878Z" fill="#E3E5E8"/>
<path d="M386.772 234.28L389.344 256.163C389.345 256.171 389.346 256.18 389.347 256.189C389.408 256.591 389.778 256.876 390.186 256.828L421.361 253.163C421.595 253.135 421.793 253.004 421.911 252.819C422.002 252.676 422.047 252.502 422.026 252.321L419.454 230.438C419.405 230.022 419.028 229.724 418.612 229.773L387.437 233.438C387.021 233.487 386.723 233.864 386.772 234.28Z" fill="#FD4E5A"/>
<path d="M394.269 243.998C394.629 247.062 397.405 249.254 400.469 248.894C403.533 248.534 405.725 245.758 405.365 242.694C405.005 239.63 402.229 237.438 399.165 237.798C396.101 238.159 393.909 240.934 394.269 243.998Z" fill="#D7243A"/>
<path d="M388.706 250.728L389.348 256.189C389.409 256.591 389.779 256.876 390.187 256.828L406.813 254.874L394.202 238.381L389.98 247.865L388.706 250.728Z" fill="#1A100E"/>
<path d="M395.868 256.162L421.361 253.165C421.596 253.137 421.793 253.005 421.911 252.821L414.31 243.274L406.505 233.471L401.186 244.816L395.868 256.162Z" fill="#3C3C48"/>
<path d="M411.566 239.826L407.686 243.511L403.058 240.826L406.506 233.471L411.566 239.826Z" fill="white"/>
<path d="M398.494 243.995L395.244 247.246L391.328 244.837L394.202 238.381L398.494 243.995Z" fill="white"/>
<path d="M385.964 261.388L397.015 240.355C397.211 239.982 397.067 239.52 396.694 239.323L367.378 223.92C367.004 223.724 366.542 223.867 366.346 224.241L355.295 245.274C355.099 245.648 355.242 246.11 355.616 246.306L384.932 261.709C385.306 261.905 385.768 261.762 385.964 261.388Z" fill="#E3E5E8"/>
<path d="M366.713 225.408L356.465 244.913C356.461 244.921 356.457 244.928 356.453 244.936C356.276 245.303 356.42 245.747 356.784 245.938L384.572 260.538C384.781 260.648 385.018 260.651 385.22 260.565C385.376 260.499 385.511 260.38 385.596 260.219L395.844 240.714C396.039 240.343 395.896 239.884 395.525 239.689L367.737 225.089C367.367 224.894 366.908 225.037 366.713 225.408Z" fill="#FD4E5A"/>
<path d="M367.405 237.663C365.97 240.394 367.021 243.771 369.752 245.206C372.483 246.641 375.86 245.59 377.295 242.859C378.73 240.128 377.679 236.751 374.948 235.316C372.217 233.881 368.84 234.932 367.405 237.663Z" fill="#D7243A"/>
<path d="M359.011 240.07L356.453 244.938C356.276 245.305 356.42 245.749 356.784 245.94L371.604 253.726L370.524 232.992L361.68 238.429L359.011 240.07Z" fill="#1A100E"/>
<path d="M361.849 248.6L384.572 260.539C384.781 260.649 385.019 260.652 385.221 260.566L384.347 248.394L383.45 235.896L372.649 242.248L361.849 248.6Z" fill="#3C3C48"/>
<path d="M384.032 243.999L378.749 244.845L376.448 240.015L383.451 235.896L384.032 243.999Z" fill="white"/>
<path d="M370.892 240.049L366.373 240.894L364.504 236.693L370.524 232.992L370.892 240.049Z" fill="white"/>
<path d="M423.919 248.791H367.646V301.191H423.919V248.791Z" fill="#1A100E"/>
<path d="M412.3 301.19H356.027V248.672L412.3 248.791V301.19Z" fill="#3C3C48"/>
<path d="M356.028 248.672L348.521 241.322H405.113L412.301 248.791L356.028 248.672Z" fill="#1A100E"/>
<path d="M409.565 294.562L408.209 295.134C406.997 295.646 405.775 295.321 404.774 294.467C404.332 294.09 403.635 293.352 403.283 293.146C402.292 292.568 399.964 291.879 399.298 292.11C398.631 292.34 399.26 293.495 399.941 293.831C400.622 294.166 401.628 294.534 402.33 295.117C403.032 295.7 400.114 298.716 398.818 299.678C397.522 300.64 394.659 300.935 394.918 302.236C395.177 303.538 397.153 302.911 397.153 302.911C397.153 302.911 397.051 304.225 399.007 304.453C399.007 304.453 399.171 305.629 400.43 305.761C400.43 305.761 400.879 307.148 402.213 307.001C403.547 306.853 407.698 306.365 413.096 298.901L409.565 294.562Z" fill="#FCBB8C"/>
<path d="M409.16 293.822C409.16 293.822 428.653 278.812 434.982 270.782C434.982 270.782 434.187 260.972 433.229 253.115C432.609 248.024 432.503 242.881 432.979 237.775C433.246 234.91 433.681 232.143 434.389 230.496C434.389 230.496 439.857 232.283 442.903 250.766C444.561 260.827 445.107 268.789 445.287 272.936C445.378 275.027 444.683 277.073 443.338 278.677C439.153 283.668 428.709 294.547 413.745 299.382C413.745 299.382 409.902 296.211 409.16 293.822Z" fill="#D7243A"/>
<path d="M354.449 273.359C354.449 273.359 358.111 274.181 359.128 275.619C360.145 277.057 355.031 276.728 355.031 276.728C355.031 276.728 361.204 277.171 361.38 278.665C361.556 280.159 355.547 279.901 355.547 279.901C355.547 279.901 359.684 280.838 359.933 281.969C360.182 283.101 355.782 283.092 355.782 283.092C355.782 283.092 358.985 284.167 359.269 285.004C359.552 285.841 355.843 286.274 353.949 285.815C352.055 285.357 353.186 282.995 353.186 282.995C353.186 282.995 352.528 280.775 353.289 279.998C353.289 279.998 352.408 278.009 352.962 276.888C352.962 276.888 351.998 273.637 354.449 273.359Z" fill="#FCBB8C"/>
<path d="M104.391 358.56C104.391 358.56 124.553 370.229 131.461 370.839C134.493 371.107 137.209 370.603 139.123 369.982C139.766 369.775 141.369 369.04 141.458 369.005C141.466 369.002 141.473 369.002 141.473 369.002C148.172 365.581 155.649 360.471 164.437 352.518L161.162 348.299C161.162 348.299 155.442 351.87 148.044 355.175C145.315 356.391 138.962 359.037 136.714 360.292C136.025 360.242 135.338 360.166 134.657 360.062C122.116 358.216 111.007 349.212 111.007 349.212C108.143 351.663 105.18 355.375 104.391 358.56Z" fill="#FCBB8C"/>
<path d="M160.764 348.015C160.764 348.015 160.881 343.864 162.458 342.118C164.035 340.372 168.271 334.703 169.855 335.362C171.439 336.021 173.099 341.349 169.706 347.542C167.544 351.487 164.302 352.532 164.302 352.532L160.764 348.015Z" fill="#FCBB8C"/>
<path d="M171.424 338.565L166.004 349.22C165.801 349.622 165.274 349.908 164.826 349.862L158.91 349.259C158.726 349.239 158.584 349.168 158.495 349.06L158.469 349.024L157.916 348.273L159.066 347.282L170.198 337.678L170.802 337.16L171.387 337.953L171.429 338.007C171.436 338.013 171.439 338.019 171.439 338.028C171.528 338.173 171.527 338.366 171.424 338.565Z" fill="#1A100E"/>
<path d="M170.199 337.68L159.067 347.284L163.889 337.801C164.092 337.402 164.619 337.113 165.064 337.159L170.199 337.68Z" fill="#1F2232"/>
<path d="M164.265 349.101L158.346 348.498C157.9 348.452 157.703 348.092 157.906 347.693L163.327 337.038C163.53 336.639 164.056 336.352 164.503 336.397L170.422 337C170.868 337.046 171.065 337.406 170.862 337.805L165.442 348.46C165.238 348.86 164.711 349.146 164.265 349.101Z" fill="#3C3C48"/>
<path d="M164.376 347.503L159.791 347.036C159.345 346.991 159.148 346.63 159.351 346.231L163.566 337.944C163.769 337.545 164.296 337.258 164.742 337.303L169.327 337.77C169.773 337.816 169.97 338.176 169.767 338.575L165.552 346.862C165.349 347.262 164.822 347.549 164.376 347.503Z" fill="#616077"/>
<path d="M171.444 338.026L171.441 338.029C171.441 338.02 171.437 338.014 171.431 338.008L171.444 338.026Z" fill="#1F2232"/>
<path d="M161.65 340.334C161.65 340.334 162.886 340.091 163.371 341.053C163.856 342.015 162.623 342.011 161.843 342.044C161.063 342.077 160.514 342.528 160.459 342.677C160.284 343.148 159.484 340.785 161.65 340.334Z" fill="#FCBB8C"/>
<path d="M168.864 343.892C168.864 343.892 169.602 340.209 170.41 338.05C170.948 336.612 172.005 338.03 171.767 339.373C171.529 340.716 171.087 343.438 168.864 343.892Z" fill="#FCBB8C"/>
<path d="M77.1717 362.393C79.1547 369.636 83.8277 382.966 86.8777 394.404C92.2907 407.828 93.8687 418.314 96.8107 423.925C96.8107 423.925 120.256 417.287 126.508 409.361L122.093 397.3C118.676 391.027 116.299 384.24 115.056 377.207C115.04 377.128 115.027 377.046 115.013 376.966C115.201 376.632 115.373 376.247 115.531 375.822C116.195 374.033 116.582 371.561 116.546 369.387C116.528 368.312 116.408 367.312 116.165 366.504C114.952 362.471 113.08 357.025 112.74 356.04V356.038L112.454 351.407C112.352 349.769 111.048 348.459 109.409 348.355L96.4147 347.527L79.5587 356.769C77.5587 357.87 76.5707 360.193 77.1717 362.393Z" fill="#634B57"/>
<path d="M120.666 406.095H120.664C113.048 407.324 105.977 404.939 101.387 402.721C96.423 400.323 93.202 397.592 93.17 397.565C93.014 397.432 92.996 397.198 93.129 397.042C93.262 396.886 93.497 396.868 93.652 397.001C93.683 397.028 96.845 399.706 101.728 402.062C106.218 404.229 113.127 406.56 120.545 405.362C120.747 405.329 120.938 405.467 120.971 405.669C121.005 405.871 120.868 406.061 120.666 406.095Z" fill="#D7243A"/>
<path d="M113.164 409.996C106.56 411.092 99.35 408.421 99.022 408.297C98.83 408.225 98.733 408.011 98.805 407.819C98.877 407.627 99.091 407.53 99.283 407.601C99.368 407.633 107.851 410.774 114.604 408.923C114.804 408.866 115.006 408.984 115.06 409.182C115.114 409.38 114.998 409.585 114.8 409.639C114.262 409.787 113.715 409.905 113.164 409.996Z" fill="#D7243A"/>
<path d="M94.1664 361.831C93.9934 361.86 93.8204 361.763 93.7574 361.593C93.6864 361.4 93.7854 361.187 93.9784 361.117C102.965 357.817 104.771 351.384 104.788 351.319C104.841 351.121 105.044 351.003 105.242 351.056C105.44 351.109 105.558 351.312 105.505 351.51C105.431 351.789 103.579 358.382 94.2344 361.814C94.2114 361.821 94.1884 361.827 94.1664 361.831Z" fill="#D7243A"/>
<path d="M105.149 380.712C105.176 380.89 105.328 381.021 105.502 381.027C105.526 381.027 105.548 381.026 105.572 381.024C109.955 380.356 113.006 378.777 115.056 377.209C115.04 377.13 115.027 377.048 115.013 376.968C115.201 376.634 115.373 376.249 115.531 375.824C113.603 377.554 110.408 379.536 105.461 380.288C105.258 380.319 105.119 380.509 105.149 380.712Z" fill="#D7243A"/>
<path d="M183.425 424.004L187.555 431.159C187.555 431.159 190.629 431.495 194.169 429.028L189.506 420.588L183.425 424.004Z" fill="#FCBB8C"/>
<path d="M192.323 428.607C192.323 428.607 192.797 426.182 193.891 425.752C194.985 425.322 206.244 427.897 209.294 427.093C212.344 426.29 212.787 428.606 212.779 429.903C212.771 431.199 190.306 440.185 190.306 440.185C190.306 440.185 186.603 433.991 186.364 431.668C186.126 429.346 190.364 430.123 192.323 428.607Z" fill="#FD4E5A"/>
<path d="M198.999 430.972C198.914 431.049 198.8 431.093 198.677 431.084C198.438 431.067 198.258 430.86 198.275 430.621C198.281 430.541 198.424 428.651 199.295 427.522C200.452 426.018 202.058 426.311 202.126 426.324C202.361 426.37 202.515 426.597 202.469 426.833C202.424 427.068 202.196 427.222 201.96 427.176C201.916 427.168 200.808 426.983 199.982 428.052C199.272 428.972 199.142 430.666 199.141 430.683C199.131 430.798 199.078 430.899 198.999 430.972Z" fill="white"/>
<path d="M197.303 430.429C197.218 430.506 197.104 430.55 196.981 430.541C196.742 430.524 196.562 430.317 196.579 430.077C196.585 429.997 196.728 428.107 197.599 426.978C198.758 425.473 200.362 425.767 200.43 425.78C200.665 425.826 200.819 426.053 200.773 426.289C200.728 426.524 200.5 426.678 200.264 426.632C200.22 426.624 199.111 426.439 198.286 427.508C197.574 428.432 197.446 430.122 197.445 430.139C197.436 430.254 197.383 430.356 197.303 430.429Z" fill="white"/>
<path d="M201.007 431.108C200.922 431.185 200.808 431.229 200.685 431.22C200.446 431.203 200.266 430.995 200.283 430.756C200.289 430.676 200.432 428.786 201.303 427.657C202.461 426.152 204.066 426.446 204.134 426.459C204.369 426.505 204.523 426.732 204.477 426.968C204.431 427.203 204.204 427.357 203.968 427.311C203.924 427.303 202.815 427.119 201.99 428.187C201.277 429.111 201.15 430.801 201.149 430.818C201.14 430.934 201.087 431.036 201.007 431.108Z" fill="white"/>
<path d="M125.194 415.137C125.194 415.137 145.866 374.933 159.62 379.184C168.791 382.019 190.625 421.437 190.625 421.437C189.755 422.377 185.937 424.934 183.437 424.767C183.437 424.767 164.042 409.519 158 394.151C158 394.151 146.182 422.049 126.885 424.389C125.4 424.569 121.503 419.211 125.194 415.137Z" fill="#1A100E"/>
<path d="M205.081 430.855L212.965 433.325C212.965 433.325 215.455 431.491 216.39 427.279L207.244 424.225L205.081 430.855Z" fill="#FCBB8C"/>
<path d="M214.745 428.217C214.745 428.217 213.452 426.111 213.966 425.054C214.48 423.997 224.51 418.268 226.21 415.612C227.911 412.956 229.805 414.361 230.677 415.32C231.549 416.28 221.1 438.102 221.1 438.102C221.1 438.102 214.181 436.051 212.433 434.503C210.685 432.957 214.329 430.659 214.745 428.217Z" fill="#FD4E5A"/>
<path d="M221.258 425.438C221.248 425.552 221.193 425.662 221.096 425.739C220.908 425.888 220.636 425.857 220.487 425.67C220.437 425.607 219.262 424.119 219.139 422.699C218.973 420.809 220.352 419.937 220.411 419.901C220.615 419.775 220.882 419.839 221.008 420.043C221.134 420.247 221.07 420.514 220.866 420.64C220.829 420.664 219.888 421.278 220.004 422.624C220.105 423.782 221.156 425.116 221.166 425.13C221.238 425.219 221.268 425.33 221.258 425.438Z" fill="white"/>
<path d="M219.644 426.186C219.634 426.3 219.579 426.41 219.482 426.487C219.295 426.636 219.022 426.605 218.872 426.418C218.822 426.355 217.647 424.867 217.524 423.447C217.358 421.555 218.737 420.685 218.796 420.649C219 420.523 219.267 420.587 219.393 420.791C219.519 420.995 219.455 421.262 219.251 421.388C219.214 421.412 218.272 422.027 218.389 423.372C218.49 424.534 219.541 425.864 219.551 425.877C219.624 425.968 219.654 426.079 219.644 426.186Z" fill="white"/>
<path d="M222.829 424.178C222.819 424.292 222.764 424.402 222.667 424.479C222.48 424.628 222.207 424.598 222.057 424.41C222.007 424.347 220.832 422.859 220.709 421.439C220.543 419.547 221.922 418.677 221.981 418.641C222.185 418.515 222.452 418.579 222.578 418.783C222.704 418.987 222.64 419.255 222.436 419.38C222.399 419.404 221.457 420.019 221.574 421.364C221.675 422.527 222.726 423.856 222.736 423.869C222.808 423.959 222.839 424.07 222.829 424.178Z" fill="white"/>
<path d="M209.421 424.559C209.431 426.299 209.301 427.479 208.731 429.029C208.621 429.329 208.501 429.639 208.361 429.979C208.141 430.479 207.881 431.039 207.581 431.659C207.581 431.659 177.591 425.849 156.811 415.869C156.811 415.869 130.131 435.089 113.841 437.559C112.291 437.789 110.761 437.799 109.301 437.599C108.691 437.519 108.081 437.399 107.501 437.249C100.571 435.489 95.4606 429.159 95.8806 421.879C95.8806 421.879 137.581 403.109 152.881 401.899C168.171 400.679 209.421 424.559 209.421 424.559Z" fill="#3C3C48"/>
<path d="M208.731 429.03C208.621 429.33 208.501 429.64 208.361 429.98C188.661 425.87 164.621 415.52 157.521 412.35C156.521 411.9 155.361 412.08 154.551 412.8C141.811 424.1 117.161 434.46 109.301 437.6C108.691 437.52 108.081 437.4 107.501 437.25C113.131 435.05 140.331 424.07 153.881 412.05C154.991 411.07 156.581 410.83 157.921 411.43C165.031 414.61 189.111 424.98 208.731 429.03Z" fill="#1A100E"/>
<path d="M85.5095 317.857C85.5095 317.857 81.3305 322.58 80.6875 332.45C80.1635 340.489 80.8815 351.008 88.0665 350.483C95.2515 349.958 107.054 352.173 111.029 345.846C115.003 339.52 85.5095 317.857 85.5095 317.857Z" fill="#3C3C48"/>
<path d="M106.856 331.644C106.856 331.644 108.797 328.965 110.309 331.129C111.821 333.293 109.84 339.791 106.201 338.272L106.856 331.644Z" fill="#FB927E"/>
<path d="M106.957 336.263C107.091 336.261 107.212 336.171 107.247 336.035C107.774 334.031 109.828 333.188 109.849 333.179C110.005 333.116 110.082 332.939 110.019 332.782C109.957 332.625 109.779 332.549 109.623 332.611C109.527 332.649 107.263 333.571 106.656 335.879C106.613 336.042 106.71 336.209 106.874 336.252C106.902 336.26 106.93 336.264 106.957 336.263Z" fill="#E6765D"/>
<path d="M109.028 335.223C109.085 335.222 109.142 335.205 109.192 335.172C109.332 335.078 109.37 334.889 109.276 334.748C109.26 334.725 108.886 334.173 108.115 333.843C107.961 333.776 107.781 333.848 107.714 334.004C107.648 334.159 107.72 334.338 107.875 334.405C108.471 334.66 108.766 335.084 108.768 335.088C108.828 335.177 108.927 335.225 109.028 335.223Z" fill="#E6765D"/>
<path d="M91.9404 343.99L92.0454 350.418C92.0454 350.418 94.0154 353.66 96.6114 353.84C99.2044 354.024 101.456 350.941 101.456 350.941L101.347 344.287L91.9404 343.99Z" fill="#FCBB8C"/>
<path d="M91.9404 343.99L91.9874 346.842C93.7584 348.744 96.8584 349.377 101.418 348.627L101.348 344.288L91.9404 343.99Z" fill="#FB927E"/>
<path d="M84.8937 327.594C85.0537 330.09 85.3427 333.21 85.8607 335.7C85.9897 336.321 86.1337 336.905 86.2927 337.428C87.7227 342.142 91.2397 350.209 100.656 346.671C104.815 345.109 106.678 340.418 107.464 335.664C107.998 332.436 108.033 329.183 107.952 326.859C107.867 324.487 106.537 322.34 104.454 321.205C98.8107 318.127 92.9307 319.405 89.0707 320.962C86.3907 322.041 84.7087 324.717 84.8937 327.594Z" fill="#FCBB8C"/>
<path d="M101.125 332.116C101.136 332.802 101.499 333.353 101.935 333.345C102.371 333.338 102.716 332.776 102.705 332.09C102.694 331.404 102.331 330.853 101.895 330.861C101.459 330.868 101.114 331.43 101.125 332.116Z" fill="#3C3C48"/>
<path d="M91.3714 332.277C91.3824 332.963 91.7454 333.514 92.1814 333.506C92.6174 333.499 92.9624 332.937 92.9514 332.251C92.9404 331.565 92.5774 331.014 92.1414 331.022C91.7044 331.029 91.3594 331.591 91.3714 332.277Z" fill="#3C3C48"/>
<path d="M103.1 328.384C102.441 328.209 101.111 327.914 99.7131 327.933C99.3451 327.938 99.0691 328.27 99.1401 328.63L99.1421 328.639C99.1991 328.927 99.4601 329.128 99.7541 329.109C100.704 329.049 103.203 329.142 104.39 329.6C104.411 329.395 104.286 329.172 104.111 328.976C103.845 328.68 103.485 328.486 103.1 328.384Z" fill="#3C3C48"/>
<path d="M90.3381 328.62C90.9911 328.424 92.3111 328.086 93.7091 328.059C94.0771 328.052 94.3641 328.374 94.3051 328.737L94.3031 328.746C94.2561 329.036 94.0011 329.245 93.7071 329.236C92.7551 329.207 90.2611 329.382 89.0901 329.879C89.0621 329.675 89.1801 329.448 89.3481 329.246C89.6031 328.94 89.9571 328.734 90.3381 328.62Z" fill="#3C3C48"/>
<path d="M96.6223 337.86C96.8563 337.856 97.0903 337.811 97.2833 337.691C97.4603 337.581 97.6783 337.361 97.7153 336.938C97.8133 335.814 97.4683 332.301 97.4533 332.151C97.4373 331.983 97.2873 331.86 97.1193 331.877C96.9513 331.894 96.8293 332.043 96.8453 332.211C96.8493 332.247 97.1993 335.817 97.1063 336.884C97.0903 337.07 97.0153 337.137 96.9603 337.171C96.6763 337.347 96.0113 337.183 95.7333 337.075C95.5763 337.013 95.3993 337.092 95.3383 337.249C95.2773 337.406 95.3543 337.583 95.5123 337.644C95.5923 337.676 96.1063 337.868 96.6223 337.86Z" fill="#FB927E"/>
<path d="M100.531 339.725C100.319 340.89 99.5869 343.04 97.0019 343.082C94.4109 343.124 93.6519 341.184 93.3809 339.842L100.531 339.725Z" fill="white"/>
<path d="M97.0674 344.862C97.8134 344.85 98.4654 344.437 98.4924 344.42C98.6344 344.329 98.6754 344.14 98.5844 343.998C98.4934 343.856 98.3054 343.815 98.1634 343.905C98.1584 343.908 97.6264 344.242 97.0574 344.251C96.4414 344.261 95.8844 343.944 95.8794 343.941C95.7334 343.857 95.5464 343.906 95.4624 344.052C95.3774 344.198 95.4274 344.384 95.5724 344.469C95.6004 344.486 96.2774 344.875 97.0674 344.862Z" fill="#FB927E"/>
<path d="M86.4008 331.98C86.4008 331.98 84.3728 329.366 82.9328 331.579C81.4928 333.791 83.6848 340.221 87.2728 338.584L86.4008 331.98Z" fill="#FCBB8C"/>
<path d="M85.004 338.766C85.011 339.161 85.336 339.476 85.731 339.47C86.126 339.463 86.441 339.138 86.435 338.743C86.428 338.348 86.103 338.033 85.708 338.039C85.312 338.045 84.997 338.371 85.004 338.766Z" fill="white"/>
<path d="M86.4503 336.6C86.3173 336.602 86.1933 336.516 86.1523 336.382C85.5593 334.396 83.4793 333.621 83.4583 333.613C83.3003 333.556 83.2173 333.38 83.2753 333.222C83.3323 333.064 83.5073 332.981 83.6653 333.038C83.7623 333.073 86.0553 333.92 86.7383 336.207C86.7863 336.369 86.6943 336.539 86.5333 336.587C86.5053 336.596 86.4783 336.6 86.4503 336.6Z" fill="#FB927E"/>
<path d="M84.3481 335.628C84.2911 335.629 84.2341 335.614 84.1821 335.582C84.0391 335.493 83.9951 335.305 84.0841 335.161C84.0991 335.137 84.4551 334.573 85.2151 334.218C85.3671 334.146 85.5491 334.213 85.6211 334.365C85.6921 334.518 85.6261 334.699 85.4741 334.771C84.8871 335.046 84.6061 335.478 84.6031 335.483C84.5461 335.576 84.4481 335.626 84.3481 335.628Z" fill="#FB927E"/>
<path d="M83.6559 327.116C83.7589 327.393 84.0339 327.567 84.3999 327.667C84.3849 328.341 84.4688 329.15 84.5478 329.925C84.9968 334.332 86.1229 335.089 86.3569 333.994C86.5109 333.266 86.4329 329.11 86.3309 327.756C87.2019 327.684 87.9449 327.527 87.9449 327.527L88.8979 323.226L89.3258 327.452C90.8698 327.961 94.4389 327.047 94.4389 327.047L95.5709 322.804L96.3808 326.856C98.7018 327.94 101.569 327.146 101.569 327.146L102.159 322.752L103.758 327.11C103.758 327.11 108.7 328.792 108.725 327.029C108.741 326.003 107.942 323.127 107.271 320.899C106.539 318.47 104.902 316.435 102.715 315.307C96.5668 312.135 90.1509 313.981 87.9609 315.338C83.3179 318.211 83.6559 327.116 83.6559 327.116Z" fill="#3C3C48"/>
<path d="M105.867 317.85C105.867 317.85 109.991 322.594 111.462 331.165C112.933 339.736 112.837 345.535 109.067 347.934C103.676 351.366 104.577 345.832 104.63 344.119C104.683 342.406 109.373 337.649 105.976 324.525C104.879 320.288 105.867 317.85 105.867 317.85Z" fill="#3C3C48"/>
<path d="M77.0981 360.104C77.0981 360.104 75.2721 368.841 73.2051 377.226C72.8551 378.65 72.5021 380.101 72.1531 381.548C70.6841 387.627 69.3151 393.626 68.7051 397.178C67.3691 404.956 67.5101 419.596 67.5971 424.367L73.1631 424.17C73.4721 418.697 77.7751 401.636 77.6161 396.407L78.2511 393.946L80.5731 384.936L84.2091 370.827C84.2091 370.827 83.6941 359.996 77.0981 360.104Z" fill="#FCBB8C"/>
<path d="M73.3065 422.682C71.1265 422.517 65.3055 422.722 62.9805 423.508C59.8135 424.579 57.9225 427.141 55.8015 427.706C53.6795 428.27 55.9045 429.703 60.2775 428.668C64.1295 427.757 67.3175 427.075 67.5135 427.983C67.7085 428.894 63.4015 428.378 62.0915 429.731C60.7805 431.082 64.2395 430.94 66.4785 431.241C67.9185 431.433 69.0225 431.271 71.1465 430.451C72.6445 429.873 72.9375 428.636 73.0105 426.541L73.3065 422.682Z" fill="#FCBB8C"/>
<path d="M353.067 433.189H334.214C331.65 433.189 329.378 431.538 328.586 429.099L320.591 404.49C320.264 403.483 320.966 402.437 322.022 402.355C336.579 401.227 350.993 401.225 365.265 402.352C366.319 402.435 367.02 403.481 366.693 404.487L358.697 429.099C357.903 431.538 355.631 433.189 353.067 433.189Z" fill="#3C3C48"/>
<path d="M343.769 405.327C355.503 405.327 365.017 404.796 365.017 404.142C365.017 403.488 355.503 402.957 343.769 402.957C332.034 402.957 322.521 403.488 322.521 404.142C322.521 404.796 332.034 405.327 343.769 405.327Z" fill="#1A100E"/>
<path d="M342.644 359.291V403.999C343.364 404.2 344.039 404.2 344.636 403.999V359.291C344.636 358.741 344.19 358.295 343.64 358.295C343.09 358.294 342.644 358.741 342.644 359.291Z" fill="#D7243A"/>
<path d="M343.377 371.905C343.377 371.905 353.546 381.539 365.179 362.772C365.179 362.772 345.033 358.738 343.377 371.905Z" fill="#FD4E5A"/>
<path d="M344.316 363.828C344.316 363.828 355.695 355.658 339.458 340.695C339.458 340.695 331.697 359.719 344.316 363.828Z" fill="#FD4E5A"/>
<path d="M344.08 388.708C344.08 388.708 355.437 396.908 364.477 376.763C364.477 376.763 343.974 375.438 344.08 388.708Z" fill="#FD4E5A"/>
<path d="M343.64 395.923C343.64 395.923 343.24 381.92 321.752 386.998C321.752 386.998 333.171 404.079 343.64 395.923Z" fill="#FD4E5A"/>
<path d="M344.674 375.971C344.674 375.971 344.617 361.963 323.011 366.512C323.011 366.512 334.008 383.867 344.674 375.971Z" fill="#FD4E5A"/>
<path d="M385.644 79.2641C385.644 80.1941 385.265 81.0431 384.647 81.6571C384.037 82.2751 383.189 82.6541 382.258 82.6541H309.796C307.935 82.6541 306.41 81.1291 306.41 79.2641C306.41 78.3331 306.789 77.4851 307.407 76.8711C308.017 76.2531 308.865 75.8741 309.796 75.8741H313.221C314.574 72.7311 317.698 70.5341 321.333 70.5341C323.78 70.5341 325.993 71.5311 327.596 73.1381C329.731 69.5181 333.668 67.0861 338.175 67.0861C339.414 67.0861 340.607 67.2741 341.733 67.6141C344.09 63.1811 348.751 60.1621 354.123 60.1621C360.574 60.1621 366.001 64.5181 367.639 70.4451C368.828 69.8511 370.169 69.5111 371.592 69.5111C375.615 69.5111 379.009 72.1971 380.076 75.8761H382.258C384.12 75.8741 385.644 77.3991 385.644 79.2641Z" fill="#E3E5E8"/>
<path d="M202.255 67.3658C202.255 68.4748 201.803 69.4868 201.067 70.2178C200.34 70.9548 199.329 71.4068 198.219 71.4068H111.833C109.614 71.4068 107.797 69.5888 107.797 67.3658C107.797 66.2568 108.249 65.2448 108.986 64.5138C109.713 63.7768 110.725 63.3248 111.834 63.3248H115.917C117.53 59.5778 121.254 56.9578 125.588 56.9578C128.506 56.9578 131.144 58.1458 133.055 60.0618C135.6 55.7458 140.293 52.8468 145.667 52.8468C147.144 52.8468 148.566 53.0708 149.908 53.4758C152.718 48.1908 158.274 44.5918 164.679 44.5918C172.37 44.5918 178.839 49.7848 180.792 56.8498C182.209 56.1418 183.808 55.7358 185.504 55.7358C190.3 55.7358 194.346 58.9378 195.618 63.3238H198.219C200.437 63.3248 202.255 65.1428 202.255 67.3658Z" fill="#E3E5E8"/>
<path d="M51.0728 214.679C51.0728 217.248 48.9828 219.337 46.4148 219.337C43.8468 219.337 41.7568 217.247 41.7568 214.679C41.7568 212.11 43.8468 210.021 46.4148 210.021C48.9828 210.021 51.0728 212.111 51.0728 214.679ZM49.6108 214.679C49.6108 212.916 48.1768 211.482 46.4138 211.482C44.6508 211.482 43.2168 212.916 43.2168 214.679C43.2168 216.442 44.6508 217.876 46.4138 217.876C48.1768 217.876 49.6108 216.442 49.6108 214.679Z" fill="#D7243A"/>
<path d="M70.0875 208.396C70.0875 210.965 67.9975 213.054 65.4295 213.054C62.8605 213.054 60.7715 210.964 60.7715 208.396C60.7715 205.827 62.8615 203.738 65.4295 203.738C67.9975 203.738 70.0875 205.827 70.0875 208.396ZM68.6265 208.396C68.6265 206.633 67.1925 205.199 65.4295 205.199C63.6665 205.199 62.2325 206.633 62.2325 208.396C62.2325 210.159 63.6665 211.593 65.4295 211.593C67.1925 211.593 68.6265 210.159 68.6265 208.396Z" fill="#FD4E5A"/>
<path d="M70.6841 188.396C70.2811 188.396 69.9531 188.723 69.9531 189.127V192.349C69.9531 192.753 70.2801 193.08 70.6841 193.08C71.0871 193.08 71.4151 192.753 71.4151 192.349V189.127C71.4141 188.724 71.0871 188.396 70.6841 188.396Z" fill="#A61A21"/>
<path d="M70.6841 182.758C70.2811 182.758 69.9531 183.085 69.9531 183.489V186.711C69.9531 187.115 70.2801 187.442 70.6841 187.442C71.0871 187.442 71.4151 187.115 71.4151 186.711V183.489C71.4141 183.085 71.0871 182.758 70.6841 182.758Z" fill="#A61A21"/>
<path d="M75.2071 187.189H72.312C71.908 187.189 71.5811 187.516 71.5811 187.92C71.5811 188.324 71.908 188.651 72.312 188.651H75.2071C75.6101 188.651 75.9381 188.324 75.9381 187.92C75.9371 187.516 75.6101 187.189 75.2071 187.189Z" fill="#A61A21"/>
<path d="M69.0547 187.189H66.1597C65.7567 187.189 65.4287 187.516 65.4287 187.92C65.4287 188.324 65.7557 188.651 66.1597 188.651H69.0547C69.4587 188.651 69.7857 188.324 69.7857 187.92C69.7857 187.516 69.4587 187.189 69.0547 187.189Z" fill="#A61A21"/>
<path d="M50.9371 193.559C50.5341 193.559 50.2061 193.886 50.2061 194.29V197.513C50.2061 197.917 50.5331 198.244 50.9371 198.244C51.3411 198.244 51.6681 197.917 51.6681 197.513V194.29C51.6681 193.886 51.3411 193.559 50.9371 193.559Z" fill="#FD4E5A"/>
<path d="M50.9371 187.92C50.5341 187.92 50.2061 188.247 50.2061 188.651V191.873C50.2061 192.277 50.5331 192.604 50.9371 192.604C51.3411 192.604 51.6681 192.277 51.6681 191.873V188.651C51.6681 188.247 51.3411 187.92 50.9371 187.92Z" fill="#FD4E5A"/>
<path d="M55.461 192.35H52.566C52.163 192.35 51.835 192.677 51.835 193.081C51.835 193.485 52.162 193.812 52.566 193.812H55.461C55.864 193.812 56.192 193.485 56.192 193.081C56.191 192.678 55.864 192.35 55.461 192.35Z" fill="#FD4E5A"/>
<path d="M49.3086 192.35H46.4136C46.0106 192.35 45.6826 192.677 45.6826 193.081C45.6826 193.485 46.0096 193.812 46.4136 193.812H49.3086C49.7116 193.812 50.0396 193.485 50.0396 193.081C50.0396 192.678 49.7126 192.35 49.3086 192.35Z" fill="#FD4E5A"/>
<path d="M444.772 217.502C444.772 220.071 442.682 222.16 440.114 222.16C437.546 222.16 435.456 220.07 435.456 217.502C435.456 214.933 437.546 212.844 440.114 212.844C442.682 212.844 444.772 214.934 444.772 217.502ZM443.31 217.502C443.31 215.739 441.876 214.305 440.113 214.305C438.35 214.305 436.916 215.739 436.916 217.502C436.916 219.265 438.35 220.699 440.113 220.699C441.876 220.699 443.31 219.265 443.31 217.502Z" fill="#D7243A"/>
<path d="M463.787 211.219C463.787 213.787 461.697 215.877 459.129 215.877C456.56 215.877 454.471 213.787 454.471 211.219C454.471 208.65 456.561 206.561 459.129 206.561C461.697 206.561 463.787 208.65 463.787 211.219ZM462.326 211.219C462.326 209.456 460.892 208.022 459.129 208.022C457.366 208.022 455.932 209.456 455.932 211.219C455.932 212.982 457.366 214.416 459.129 214.416C460.891 214.416 462.326 212.982 462.326 211.219Z" fill="#FD4E5A"/>
<path d="M464.382 191.221C463.979 191.221 463.651 191.548 463.651 191.952V195.174C463.651 195.578 463.978 195.905 464.382 195.905C464.786 195.905 465.113 195.578 465.113 195.174V191.952C465.113 191.548 464.786 191.221 464.382 191.221Z" fill="#A61A21"/>
<path d="M464.382 185.58C463.979 185.58 463.651 185.907 463.651 186.311V189.533C463.651 189.937 463.978 190.264 464.382 190.264C464.786 190.264 465.113 189.937 465.113 189.533V186.311C465.113 185.907 464.786 185.58 464.382 185.58Z" fill="#A61A21"/>
<path d="M468.906 190.012H466.011C465.607 190.012 465.28 190.339 465.28 190.743C465.28 191.147 465.607 191.474 466.011 191.474H468.906C469.309 191.474 469.637 191.147 469.637 190.743C469.636 190.339 469.309 190.012 468.906 190.012Z" fill="#A61A21"/>
<path d="M462.754 190.012H459.859C459.455 190.012 459.128 190.339 459.128 190.743C459.128 191.147 459.455 191.474 459.859 191.474H462.754C463.158 191.474 463.485 191.147 463.485 190.743C463.485 190.339 463.158 190.012 462.754 190.012Z" fill="#A61A21"/>
<path d="M444.636 196.381C444.233 196.381 443.905 196.708 443.905 197.112V200.335C443.905 200.738 444.232 201.066 444.636 201.066C445.04 201.066 445.367 200.739 445.367 200.335V197.112C445.367 196.708 445.04 196.381 444.636 196.381Z" fill="#FD4E5A"/>
<path d="M444.636 190.742C444.233 190.742 443.905 191.069 443.905 191.473V194.695C443.905 195.099 444.232 195.426 444.636 195.426C445.04 195.426 445.367 195.099 445.367 194.695V191.473C445.367 191.069 445.04 190.742 444.636 190.742Z" fill="#FD4E5A"/>
<path d="M449.159 195.172H446.264C445.861 195.172 445.533 195.499 445.533 195.903C445.533 196.307 445.86 196.634 446.264 196.634H449.159C449.562 196.634 449.89 196.307 449.89 195.903C449.89 195.5 449.563 195.172 449.159 195.172Z" fill="#FD4E5A"/>
<path d="M443.008 195.172H440.113C439.709 195.172 439.382 195.499 439.382 195.903C439.382 196.307 439.709 196.634 440.113 196.634H443.008C443.412 196.634 443.739 196.307 443.739 195.903C443.739 195.5 443.411 195.172 443.008 195.172Z" fill="#FD4E5A"/>
<path d="M56.4691 283.75H65.2861C66.3121 283.75 67.1431 282.918 67.1431 281.893V249.964H72.8541C73.7391 249.964 74.1781 248.889 73.5451 248.27L68.0771 242.916L61.5701 236.544C61.1861 236.168 60.5711 236.168 60.1871 236.544L53.6801 242.916L48.2101 248.27C47.5771 248.889 48.0161 249.964 48.9011 249.964H54.6111V281.893C54.6111 282.918 55.4431 283.75 56.4691 283.75Z" fill="#E3E5E8"/>
<path d="M450.719 398.5H459.535C460.561 398.5 461.392 397.668 461.392 396.643V364.714H467.103C467.988 364.714 468.427 363.639 467.794 363.02L462.326 357.666L455.819 351.294C455.435 350.918 454.82 350.918 454.436 351.294L447.929 357.666L442.459 363.02C441.826 363.639 442.265 364.714 443.15 364.714H448.86V396.643C448.861 397.668 449.693 398.5 450.719 398.5Z" fill="#E3E5E8"/>
</g>
<defs>
<clipPath id="clip0_1105_2">
<rect width="500" height="451" fill="white"/>
</clipPath>
</defs>
</svg>
